G04 #@! TF.GenerationSoftware,KiCad,Pcbnew,(5.1.2-1)-1*
G04 #@! TF.CreationDate,2019-12-30T09:18:02-08:00*
G04 #@! TF.ProjectId,sbc6802,73626336-3830-4322-9e6b-696361645f70,2.0*
G04 #@! TF.SameCoordinates,Original*
G04 #@! TF.FileFunction,Legend,Bot*
G04 #@! TF.FilePolarity,Positive*
%FSLAX46Y46*%
G04 Gerber Fmt 4.6, Leading zero omitted, Abs format (unit mm)*
G04 Created by KiCad (PCBNEW (5.1.2-1)-1) date 2019-12-30 09:18:02*
%MOMM*%
%LPD*%
G04 APERTURE LIST*
%ADD10C,0.150000*%
%ADD11C,0.010000*%
G04 APERTURE END LIST*
D10*
X178547500Y-135162857D02*
X178547500Y-133962857D01*
X178033214Y-135162857D02*
X178033214Y-134534285D01*
X178090357Y-134420000D01*
X178204642Y-134362857D01*
X178376071Y-134362857D01*
X178490357Y-134420000D01*
X178547500Y-134477142D01*
X177633214Y-134362857D02*
X177176071Y-134362857D01*
X177461785Y-133962857D02*
X177461785Y-134991428D01*
X177404642Y-135105714D01*
X177290357Y-135162857D01*
X177176071Y-135162857D01*
X176947500Y-134362857D02*
X176490357Y-134362857D01*
X176776071Y-133962857D02*
X176776071Y-134991428D01*
X176718928Y-135105714D01*
X176604642Y-135162857D01*
X176490357Y-135162857D01*
X176090357Y-134362857D02*
X176090357Y-135562857D01*
X176090357Y-134420000D02*
X175976071Y-134362857D01*
X175747500Y-134362857D01*
X175633214Y-134420000D01*
X175576071Y-134477142D01*
X175518928Y-134591428D01*
X175518928Y-134934285D01*
X175576071Y-135048571D01*
X175633214Y-135105714D01*
X175747500Y-135162857D01*
X175976071Y-135162857D01*
X176090357Y-135105714D01*
X175061785Y-135105714D02*
X174947500Y-135162857D01*
X174718928Y-135162857D01*
X174604642Y-135105714D01*
X174547500Y-134991428D01*
X174547500Y-134934285D01*
X174604642Y-134820000D01*
X174718928Y-134762857D01*
X174890357Y-134762857D01*
X175004642Y-134705714D01*
X175061785Y-134591428D01*
X175061785Y-134534285D01*
X175004642Y-134420000D01*
X174890357Y-134362857D01*
X174718928Y-134362857D01*
X174604642Y-134420000D01*
X174033214Y-135048571D02*
X173976071Y-135105714D01*
X174033214Y-135162857D01*
X174090357Y-135105714D01*
X174033214Y-135048571D01*
X174033214Y-135162857D01*
X174033214Y-134420000D02*
X173976071Y-134477142D01*
X174033214Y-134534285D01*
X174090357Y-134477142D01*
X174033214Y-134420000D01*
X174033214Y-134534285D01*
X172604642Y-133905714D02*
X173633214Y-135448571D01*
X171347500Y-133905714D02*
X172376071Y-135448571D01*
X170433214Y-134362857D02*
X170433214Y-135334285D01*
X170490357Y-135448571D01*
X170547500Y-135505714D01*
X170661785Y-135562857D01*
X170833214Y-135562857D01*
X170947500Y-135505714D01*
X170433214Y-135105714D02*
X170547500Y-135162857D01*
X170776071Y-135162857D01*
X170890357Y-135105714D01*
X170947500Y-135048571D01*
X171004642Y-134934285D01*
X171004642Y-134591428D01*
X170947500Y-134477142D01*
X170890357Y-134420000D01*
X170776071Y-134362857D01*
X170547500Y-134362857D01*
X170433214Y-134420000D01*
X169861785Y-135162857D02*
X169861785Y-134362857D01*
X169861785Y-133962857D02*
X169918928Y-134020000D01*
X169861785Y-134077142D01*
X169804642Y-134020000D01*
X169861785Y-133962857D01*
X169861785Y-134077142D01*
X169461785Y-134362857D02*
X169004642Y-134362857D01*
X169290357Y-133962857D02*
X169290357Y-134991428D01*
X169233214Y-135105714D01*
X169118928Y-135162857D01*
X169004642Y-135162857D01*
X168604642Y-135162857D02*
X168604642Y-133962857D01*
X168090357Y-135162857D02*
X168090357Y-134534285D01*
X168147500Y-134420000D01*
X168261785Y-134362857D01*
X168433214Y-134362857D01*
X168547500Y-134420000D01*
X168604642Y-134477142D01*
X167004642Y-134362857D02*
X167004642Y-135162857D01*
X167518928Y-134362857D02*
X167518928Y-134991428D01*
X167461785Y-135105714D01*
X167347500Y-135162857D01*
X167176071Y-135162857D01*
X167061785Y-135105714D01*
X167004642Y-135048571D01*
X166433214Y-135162857D02*
X166433214Y-133962857D01*
X166433214Y-134420000D02*
X166318928Y-134362857D01*
X166090357Y-134362857D01*
X165976071Y-134420000D01*
X165918928Y-134477142D01*
X165861785Y-134591428D01*
X165861785Y-134934285D01*
X165918928Y-135048571D01*
X165976071Y-135105714D01*
X166090357Y-135162857D01*
X166318928Y-135162857D01*
X166433214Y-135105714D01*
X165347500Y-135048571D02*
X165290357Y-135105714D01*
X165347500Y-135162857D01*
X165404642Y-135105714D01*
X165347500Y-135048571D01*
X165347500Y-135162857D01*
X164261785Y-135105714D02*
X164376071Y-135162857D01*
X164604642Y-135162857D01*
X164718928Y-135105714D01*
X164776071Y-135048571D01*
X164833214Y-134934285D01*
X164833214Y-134591428D01*
X164776071Y-134477142D01*
X164718928Y-134420000D01*
X164604642Y-134362857D01*
X164376071Y-134362857D01*
X164261785Y-134420000D01*
X163576071Y-135162857D02*
X163690357Y-135105714D01*
X163747500Y-135048571D01*
X163804642Y-134934285D01*
X163804642Y-134591428D01*
X163747500Y-134477142D01*
X163690357Y-134420000D01*
X163576071Y-134362857D01*
X163404642Y-134362857D01*
X163290357Y-134420000D01*
X163233214Y-134477142D01*
X163176071Y-134591428D01*
X163176071Y-134934285D01*
X163233214Y-135048571D01*
X163290357Y-135105714D01*
X163404642Y-135162857D01*
X163576071Y-135162857D01*
X162661785Y-135162857D02*
X162661785Y-134362857D01*
X162661785Y-134477142D02*
X162604642Y-134420000D01*
X162490357Y-134362857D01*
X162318928Y-134362857D01*
X162204642Y-134420000D01*
X162147500Y-134534285D01*
X162147500Y-135162857D01*
X162147500Y-134534285D02*
X162090357Y-134420000D01*
X161976071Y-134362857D01*
X161804642Y-134362857D01*
X161690357Y-134420000D01*
X161633214Y-134534285D01*
X161633214Y-135162857D01*
X160204642Y-133905714D02*
X161233214Y-135448571D01*
X159804642Y-135162857D02*
X159804642Y-134362857D01*
X159804642Y-134591428D02*
X159747500Y-134477142D01*
X159690357Y-134420000D01*
X159576071Y-134362857D01*
X159461785Y-134362857D01*
X159176071Y-134362857D02*
X158890357Y-135162857D01*
X158604642Y-134362857D02*
X158890357Y-135162857D01*
X159004642Y-135448571D01*
X159061785Y-135505714D01*
X159176071Y-135562857D01*
X157633214Y-134362857D02*
X157633214Y-135162857D01*
X158147500Y-134362857D02*
X158147500Y-134991428D01*
X158090357Y-135105714D01*
X157976071Y-135162857D01*
X157804642Y-135162857D01*
X157690357Y-135105714D01*
X157633214Y-135048571D01*
X156433214Y-135162857D02*
X157118928Y-135162857D01*
X156776071Y-135162857D02*
X156776071Y-133962857D01*
X156890357Y-134134285D01*
X157004642Y-134248571D01*
X157118928Y-134305714D01*
X155690357Y-133962857D02*
X155576071Y-133962857D01*
X155461785Y-134020000D01*
X155404642Y-134077142D01*
X155347500Y-134191428D01*
X155290357Y-134420000D01*
X155290357Y-134705714D01*
X155347500Y-134934285D01*
X155404642Y-135048571D01*
X155461785Y-135105714D01*
X155576071Y-135162857D01*
X155690357Y-135162857D01*
X155804642Y-135105714D01*
X155861785Y-135048571D01*
X155918928Y-134934285D01*
X155976071Y-134705714D01*
X155976071Y-134420000D01*
X155918928Y-134191428D01*
X155861785Y-134077142D01*
X155804642Y-134020000D01*
X155690357Y-133962857D01*
X153918928Y-133905714D02*
X154947500Y-135448571D01*
X153576071Y-135105714D02*
X153461785Y-135162857D01*
X153233214Y-135162857D01*
X153118928Y-135105714D01*
X153061785Y-134991428D01*
X153061785Y-134934285D01*
X153118928Y-134820000D01*
X153233214Y-134762857D01*
X153404642Y-134762857D01*
X153518928Y-134705714D01*
X153576071Y-134591428D01*
X153576071Y-134534285D01*
X153518928Y-134420000D01*
X153404642Y-134362857D01*
X153233214Y-134362857D01*
X153118928Y-134420000D01*
X152547500Y-135162857D02*
X152547500Y-133962857D01*
X152547500Y-134420000D02*
X152433214Y-134362857D01*
X152204642Y-134362857D01*
X152090357Y-134420000D01*
X152033214Y-134477142D01*
X151976071Y-134591428D01*
X151976071Y-134934285D01*
X152033214Y-135048571D01*
X152090357Y-135105714D01*
X152204642Y-135162857D01*
X152433214Y-135162857D01*
X152547500Y-135105714D01*
X150947500Y-135105714D02*
X151061785Y-135162857D01*
X151290357Y-135162857D01*
X151404642Y-135105714D01*
X151461785Y-135048571D01*
X151518928Y-134934285D01*
X151518928Y-134591428D01*
X151461785Y-134477142D01*
X151404642Y-134420000D01*
X151290357Y-134362857D01*
X151061785Y-134362857D01*
X150947500Y-134420000D01*
X149918928Y-133962857D02*
X150147500Y-133962857D01*
X150261785Y-134020000D01*
X150318928Y-134077142D01*
X150433214Y-134248571D01*
X150490357Y-134477142D01*
X150490357Y-134934285D01*
X150433214Y-135048571D01*
X150376071Y-135105714D01*
X150261785Y-135162857D01*
X150033214Y-135162857D01*
X149918928Y-135105714D01*
X149861785Y-135048571D01*
X149804642Y-134934285D01*
X149804642Y-134648571D01*
X149861785Y-134534285D01*
X149918928Y-134477142D01*
X150033214Y-134420000D01*
X150261785Y-134420000D01*
X150376071Y-134477142D01*
X150433214Y-134534285D01*
X150490357Y-134648571D01*
X149118928Y-134477142D02*
X149233214Y-134420000D01*
X149290357Y-134362857D01*
X149347500Y-134248571D01*
X149347500Y-134191428D01*
X149290357Y-134077142D01*
X149233214Y-134020000D01*
X149118928Y-133962857D01*
X148890357Y-133962857D01*
X148776071Y-134020000D01*
X148718928Y-134077142D01*
X148661785Y-134191428D01*
X148661785Y-134248571D01*
X148718928Y-134362857D01*
X148776071Y-134420000D01*
X148890357Y-134477142D01*
X149118928Y-134477142D01*
X149233214Y-134534285D01*
X149290357Y-134591428D01*
X149347500Y-134705714D01*
X149347500Y-134934285D01*
X149290357Y-135048571D01*
X149233214Y-135105714D01*
X149118928Y-135162857D01*
X148890357Y-135162857D01*
X148776071Y-135105714D01*
X148718928Y-135048571D01*
X148661785Y-134934285D01*
X148661785Y-134705714D01*
X148718928Y-134591428D01*
X148776071Y-134534285D01*
X148890357Y-134477142D01*
X147918928Y-133962857D02*
X147804642Y-133962857D01*
X147690357Y-134020000D01*
X147633214Y-134077142D01*
X147576071Y-134191428D01*
X147518928Y-134420000D01*
X147518928Y-134705714D01*
X147576071Y-134934285D01*
X147633214Y-135048571D01*
X147690357Y-135105714D01*
X147804642Y-135162857D01*
X147918928Y-135162857D01*
X148033214Y-135105714D01*
X148090357Y-135048571D01*
X148147500Y-134934285D01*
X148204642Y-134705714D01*
X148204642Y-134420000D01*
X148147500Y-134191428D01*
X148090357Y-134077142D01*
X148033214Y-134020000D01*
X147918928Y-133962857D01*
X147061785Y-134077142D02*
X147004642Y-134020000D01*
X146890357Y-133962857D01*
X146604642Y-133962857D01*
X146490357Y-134020000D01*
X146433214Y-134077142D01*
X146376071Y-134191428D01*
X146376071Y-134305714D01*
X146433214Y-134477142D01*
X147118928Y-135162857D01*
X146376071Y-135162857D01*
X129140000Y-130835476D02*
X129101904Y-130759285D01*
X129101904Y-130645000D01*
X129140000Y-130530714D01*
X129216190Y-130454523D01*
X129292380Y-130416428D01*
X129444761Y-130378333D01*
X129559047Y-130378333D01*
X129711428Y-130416428D01*
X129787619Y-130454523D01*
X129863809Y-130530714D01*
X129901904Y-130645000D01*
X129901904Y-130721190D01*
X129863809Y-130835476D01*
X129825714Y-130873571D01*
X129559047Y-130873571D01*
X129559047Y-130721190D01*
X129901904Y-131216428D02*
X129101904Y-131216428D01*
X129901904Y-131673571D01*
X129101904Y-131673571D01*
X129901904Y-132054523D02*
X129101904Y-132054523D01*
X129101904Y-132245000D01*
X129140000Y-132359285D01*
X129216190Y-132435476D01*
X129292380Y-132473571D01*
X129444761Y-132511666D01*
X129559047Y-132511666D01*
X129711428Y-132473571D01*
X129787619Y-132435476D01*
X129863809Y-132359285D01*
X129901904Y-132245000D01*
X129901904Y-132054523D01*
X131641904Y-130378333D02*
X132441904Y-130645000D01*
X131641904Y-130911666D01*
X132441904Y-131178333D02*
X131641904Y-131178333D01*
X132213333Y-131445000D01*
X131641904Y-131711666D01*
X132441904Y-131711666D01*
X132213333Y-132054523D02*
X132213333Y-132435476D01*
X132441904Y-131978333D02*
X131641904Y-132245000D01*
X132441904Y-132511666D01*
X134448571Y-130930714D02*
X134981904Y-130930714D01*
X134524761Y-130930714D02*
X134486666Y-130968809D01*
X134448571Y-131045000D01*
X134448571Y-131159285D01*
X134486666Y-131235476D01*
X134562857Y-131273571D01*
X134981904Y-131273571D01*
X134943809Y-131997380D02*
X134981904Y-131921190D01*
X134981904Y-131768809D01*
X134943809Y-131692619D01*
X134905714Y-131654523D01*
X134829523Y-131616428D01*
X134600952Y-131616428D01*
X134524761Y-131654523D01*
X134486666Y-131692619D01*
X134448571Y-131768809D01*
X134448571Y-131921190D01*
X134486666Y-131997380D01*
X136988571Y-130930714D02*
X137521904Y-130930714D01*
X137064761Y-130930714D02*
X137026666Y-130968809D01*
X136988571Y-131045000D01*
X136988571Y-131159285D01*
X137026666Y-131235476D01*
X137102857Y-131273571D01*
X137521904Y-131273571D01*
X137483809Y-131997380D02*
X137521904Y-131921190D01*
X137521904Y-131768809D01*
X137483809Y-131692619D01*
X137445714Y-131654523D01*
X137369523Y-131616428D01*
X137140952Y-131616428D01*
X137064761Y-131654523D01*
X137026666Y-131692619D01*
X136988571Y-131768809D01*
X136988571Y-131921190D01*
X137026666Y-131997380D01*
X139528571Y-130930714D02*
X140061904Y-130930714D01*
X139604761Y-130930714D02*
X139566666Y-130968809D01*
X139528571Y-131045000D01*
X139528571Y-131159285D01*
X139566666Y-131235476D01*
X139642857Y-131273571D01*
X140061904Y-131273571D01*
X140023809Y-131997380D02*
X140061904Y-131921190D01*
X140061904Y-131768809D01*
X140023809Y-131692619D01*
X139985714Y-131654523D01*
X139909523Y-131616428D01*
X139680952Y-131616428D01*
X139604761Y-131654523D01*
X139566666Y-131692619D01*
X139528571Y-131768809D01*
X139528571Y-131921190D01*
X139566666Y-131997380D01*
X141469000Y-130378333D02*
X141469000Y-131178333D01*
X142601904Y-131025952D02*
X142220952Y-130759285D01*
X142601904Y-130568809D02*
X141801904Y-130568809D01*
X141801904Y-130873571D01*
X141840000Y-130949761D01*
X141878095Y-130987857D01*
X141954285Y-131025952D01*
X142068571Y-131025952D01*
X142144761Y-130987857D01*
X142182857Y-130949761D01*
X142220952Y-130873571D01*
X142220952Y-130568809D01*
X141469000Y-131178333D02*
X141469000Y-131864047D01*
X142563809Y-131673571D02*
X142601904Y-131597380D01*
X142601904Y-131445000D01*
X142563809Y-131368809D01*
X142487619Y-131330714D01*
X142182857Y-131330714D01*
X142106666Y-131368809D01*
X142068571Y-131445000D01*
X142068571Y-131597380D01*
X142106666Y-131673571D01*
X142182857Y-131711666D01*
X142259047Y-131711666D01*
X142335238Y-131330714D01*
X141469000Y-131864047D02*
X141469000Y-132511666D01*
X142563809Y-132016428D02*
X142601904Y-132092619D01*
X142601904Y-132245000D01*
X142563809Y-132321190D01*
X142487619Y-132359285D01*
X142449523Y-132359285D01*
X142373333Y-132321190D01*
X142335238Y-132245000D01*
X142335238Y-132130714D01*
X142297142Y-132054523D01*
X142220952Y-132016428D01*
X142182857Y-132016428D01*
X142106666Y-132054523D01*
X142068571Y-132130714D01*
X142068571Y-132245000D01*
X142106666Y-132321190D01*
X144722857Y-131273571D02*
X144722857Y-131540238D01*
X145141904Y-131654523D02*
X145141904Y-131273571D01*
X144341904Y-131273571D01*
X144341904Y-131654523D01*
X147453333Y-130492619D02*
X147453333Y-130873571D01*
X147681904Y-130416428D02*
X146881904Y-130683095D01*
X147681904Y-130949761D01*
X147681904Y-131635476D02*
X147681904Y-131178333D01*
X147681904Y-131406904D02*
X146881904Y-131406904D01*
X146996190Y-131330714D01*
X147072380Y-131254523D01*
X147110476Y-131178333D01*
X146881904Y-132359285D02*
X146881904Y-131978333D01*
X147262857Y-131940238D01*
X147224761Y-131978333D01*
X147186666Y-132054523D01*
X147186666Y-132245000D01*
X147224761Y-132321190D01*
X147262857Y-132359285D01*
X147339047Y-132397380D01*
X147529523Y-132397380D01*
X147605714Y-132359285D01*
X147643809Y-132321190D01*
X147681904Y-132245000D01*
X147681904Y-132054523D01*
X147643809Y-131978333D01*
X147605714Y-131940238D01*
X165233333Y-130873571D02*
X165233333Y-131254523D01*
X165461904Y-130797380D02*
X164661904Y-131064047D01*
X165461904Y-131330714D01*
X165461904Y-132016428D02*
X165461904Y-131559285D01*
X165461904Y-131787857D02*
X164661904Y-131787857D01*
X164776190Y-131711666D01*
X164852380Y-131635476D01*
X164890476Y-131559285D01*
X168001904Y-130854523D02*
X167201904Y-130854523D01*
X167201904Y-131045000D01*
X167240000Y-131159285D01*
X167316190Y-131235476D01*
X167392380Y-131273571D01*
X167544761Y-131311666D01*
X167659047Y-131311666D01*
X167811428Y-131273571D01*
X167887619Y-131235476D01*
X167963809Y-131159285D01*
X168001904Y-131045000D01*
X168001904Y-130854523D01*
X167201904Y-131578333D02*
X167201904Y-132111666D01*
X168001904Y-131768809D01*
X175621904Y-130854523D02*
X174821904Y-130854523D01*
X174821904Y-131045000D01*
X174860000Y-131159285D01*
X174936190Y-131235476D01*
X175012380Y-131273571D01*
X175164761Y-131311666D01*
X175279047Y-131311666D01*
X175431428Y-131273571D01*
X175507619Y-131235476D01*
X175583809Y-131159285D01*
X175621904Y-131045000D01*
X175621904Y-130854523D01*
X175621904Y-132073571D02*
X175621904Y-131616428D01*
X175621904Y-131845000D02*
X174821904Y-131845000D01*
X174936190Y-131768809D01*
X175012380Y-131692619D01*
X175050476Y-131616428D01*
X177029000Y-130587857D02*
X177029000Y-131502142D01*
X177361904Y-130702142D02*
X178161904Y-130892619D01*
X177590476Y-131045000D01*
X178161904Y-131197380D01*
X177361904Y-131387857D01*
X177029000Y-131502142D02*
X177029000Y-132302142D01*
X178161904Y-132149761D02*
X177780952Y-131883095D01*
X178161904Y-131692619D02*
X177361904Y-131692619D01*
X177361904Y-131997380D01*
X177400000Y-132073571D01*
X177438095Y-132111666D01*
X177514285Y-132149761D01*
X177628571Y-132149761D01*
X177704761Y-132111666D01*
X177742857Y-132073571D01*
X177780952Y-131997380D01*
X177780952Y-131692619D01*
X177029000Y-121755000D02*
X177029000Y-122555000D01*
X178161904Y-122402619D02*
X177780952Y-122135952D01*
X178161904Y-121945476D02*
X177361904Y-121945476D01*
X177361904Y-122250238D01*
X177400000Y-122326428D01*
X177438095Y-122364523D01*
X177514285Y-122402619D01*
X177628571Y-122402619D01*
X177704761Y-122364523D01*
X177742857Y-122326428D01*
X177780952Y-122250238D01*
X177780952Y-121945476D01*
X177029000Y-122555000D02*
X177029000Y-123355000D01*
X178161904Y-122745476D02*
X177361904Y-122745476D01*
X177361904Y-122935952D01*
X177400000Y-123050238D01*
X177476190Y-123126428D01*
X177552380Y-123164523D01*
X177704761Y-123202619D01*
X177819047Y-123202619D01*
X177971428Y-123164523D01*
X178047619Y-123126428D01*
X178123809Y-123050238D01*
X178161904Y-122935952D01*
X178161904Y-122745476D01*
X175621904Y-121964523D02*
X174821904Y-121964523D01*
X174821904Y-122155000D01*
X174860000Y-122269285D01*
X174936190Y-122345476D01*
X175012380Y-122383571D01*
X175164761Y-122421666D01*
X175279047Y-122421666D01*
X175431428Y-122383571D01*
X175507619Y-122345476D01*
X175583809Y-122269285D01*
X175621904Y-122155000D01*
X175621904Y-121964523D01*
X174821904Y-122916904D02*
X174821904Y-122993095D01*
X174860000Y-123069285D01*
X174898095Y-123107380D01*
X174974285Y-123145476D01*
X175126666Y-123183571D01*
X175317142Y-123183571D01*
X175469523Y-123145476D01*
X175545714Y-123107380D01*
X175583809Y-123069285D01*
X175621904Y-122993095D01*
X175621904Y-122916904D01*
X175583809Y-122840714D01*
X175545714Y-122802619D01*
X175469523Y-122764523D01*
X175317142Y-122726428D01*
X175126666Y-122726428D01*
X174974285Y-122764523D01*
X174898095Y-122802619D01*
X174860000Y-122840714D01*
X174821904Y-122916904D01*
X168001904Y-121964523D02*
X167201904Y-121964523D01*
X167201904Y-122155000D01*
X167240000Y-122269285D01*
X167316190Y-122345476D01*
X167392380Y-122383571D01*
X167544761Y-122421666D01*
X167659047Y-122421666D01*
X167811428Y-122383571D01*
X167887619Y-122345476D01*
X167963809Y-122269285D01*
X168001904Y-122155000D01*
X168001904Y-121964523D01*
X167201904Y-123107380D02*
X167201904Y-122955000D01*
X167240000Y-122878809D01*
X167278095Y-122840714D01*
X167392380Y-122764523D01*
X167544761Y-122726428D01*
X167849523Y-122726428D01*
X167925714Y-122764523D01*
X167963809Y-122802619D01*
X168001904Y-122878809D01*
X168001904Y-123031190D01*
X167963809Y-123107380D01*
X167925714Y-123145476D01*
X167849523Y-123183571D01*
X167659047Y-123183571D01*
X167582857Y-123145476D01*
X167544761Y-123107380D01*
X167506666Y-123031190D01*
X167506666Y-122878809D01*
X167544761Y-122802619D01*
X167582857Y-122764523D01*
X167659047Y-122726428D01*
X165233333Y-121983571D02*
X165233333Y-122364523D01*
X165461904Y-121907380D02*
X164661904Y-122174047D01*
X165461904Y-122440714D01*
X164661904Y-122859761D02*
X164661904Y-122935952D01*
X164700000Y-123012142D01*
X164738095Y-123050238D01*
X164814285Y-123088333D01*
X164966666Y-123126428D01*
X165157142Y-123126428D01*
X165309523Y-123088333D01*
X165385714Y-123050238D01*
X165423809Y-123012142D01*
X165461904Y-122935952D01*
X165461904Y-122859761D01*
X165423809Y-122783571D01*
X165385714Y-122745476D01*
X165309523Y-122707380D01*
X165157142Y-122669285D01*
X164966666Y-122669285D01*
X164814285Y-122707380D01*
X164738095Y-122745476D01*
X164700000Y-122783571D01*
X164661904Y-122859761D01*
X147453333Y-121602619D02*
X147453333Y-121983571D01*
X147681904Y-121526428D02*
X146881904Y-121793095D01*
X147681904Y-122059761D01*
X147681904Y-122745476D02*
X147681904Y-122288333D01*
X147681904Y-122516904D02*
X146881904Y-122516904D01*
X146996190Y-122440714D01*
X147072380Y-122364523D01*
X147110476Y-122288333D01*
X147148571Y-123431190D02*
X147681904Y-123431190D01*
X146843809Y-123240714D02*
X147415238Y-123050238D01*
X147415238Y-123545476D01*
X145141904Y-121926428D02*
X144760952Y-121659761D01*
X145141904Y-121469285D02*
X144341904Y-121469285D01*
X144341904Y-121774047D01*
X144380000Y-121850238D01*
X144418095Y-121888333D01*
X144494285Y-121926428D01*
X144608571Y-121926428D01*
X144684761Y-121888333D01*
X144722857Y-121850238D01*
X144760952Y-121774047D01*
X144760952Y-121469285D01*
X144303809Y-122840714D02*
X145332380Y-122155000D01*
X144009000Y-122916904D02*
X144009000Y-123831190D01*
X144341904Y-123031190D02*
X145141904Y-123221666D01*
X144570476Y-123374047D01*
X145141904Y-123526428D01*
X144341904Y-123716904D01*
X141469000Y-121545476D02*
X141469000Y-121926428D01*
X142601904Y-121735952D02*
X141801904Y-121735952D01*
X141469000Y-121926428D02*
X141469000Y-122726428D01*
X142601904Y-122574047D02*
X142220952Y-122307380D01*
X142601904Y-122116904D02*
X141801904Y-122116904D01*
X141801904Y-122421666D01*
X141840000Y-122497857D01*
X141878095Y-122535952D01*
X141954285Y-122574047D01*
X142068571Y-122574047D01*
X142144761Y-122535952D01*
X142182857Y-122497857D01*
X142220952Y-122421666D01*
X142220952Y-122116904D01*
X141469000Y-122726428D02*
X141469000Y-123564523D01*
X142678095Y-123450238D02*
X142640000Y-123374047D01*
X142563809Y-123297857D01*
X142449523Y-123183571D01*
X142411428Y-123107380D01*
X142411428Y-123031190D01*
X142601904Y-123069285D02*
X142563809Y-122993095D01*
X142487619Y-122916904D01*
X142335238Y-122878809D01*
X142068571Y-122878809D01*
X141916190Y-122916904D01*
X141840000Y-122993095D01*
X141801904Y-123069285D01*
X141801904Y-123221666D01*
X141840000Y-123297857D01*
X141916190Y-123374047D01*
X142068571Y-123412142D01*
X142335238Y-123412142D01*
X142487619Y-123374047D01*
X142563809Y-123297857D01*
X142601904Y-123221666D01*
X142601904Y-123069285D01*
X138929000Y-121488333D02*
X138929000Y-122326428D01*
X140061904Y-121678809D02*
X139261904Y-121678809D01*
X140061904Y-122135952D01*
X139261904Y-122135952D01*
X138929000Y-122326428D02*
X138929000Y-123240714D01*
X140061904Y-122516904D02*
X139261904Y-122516904D01*
X139833333Y-122783571D01*
X139261904Y-123050238D01*
X140061904Y-123050238D01*
X138929000Y-123240714D02*
X138929000Y-123621666D01*
X140061904Y-123431190D02*
X139261904Y-123431190D01*
X136721904Y-121831190D02*
X136721904Y-121907380D01*
X136760000Y-121983571D01*
X136798095Y-122021666D01*
X136874285Y-122059761D01*
X137026666Y-122097857D01*
X137217142Y-122097857D01*
X137369523Y-122059761D01*
X137445714Y-122021666D01*
X137483809Y-121983571D01*
X137521904Y-121907380D01*
X137521904Y-121831190D01*
X137483809Y-121755000D01*
X137445714Y-121716904D01*
X137369523Y-121678809D01*
X137217142Y-121640714D01*
X137026666Y-121640714D01*
X136874285Y-121678809D01*
X136798095Y-121716904D01*
X136760000Y-121755000D01*
X136721904Y-121831190D01*
X137521904Y-122364523D02*
X136988571Y-122783571D01*
X136988571Y-122364523D02*
X137521904Y-122783571D01*
X137102857Y-123088333D02*
X137102857Y-123355000D01*
X137521904Y-123469285D02*
X137521904Y-123088333D01*
X136721904Y-123088333D01*
X136721904Y-123469285D01*
X134181904Y-121850238D02*
X134181904Y-121926428D01*
X134220000Y-122002619D01*
X134258095Y-122040714D01*
X134334285Y-122078809D01*
X134486666Y-122116904D01*
X134677142Y-122116904D01*
X134829523Y-122078809D01*
X134905714Y-122040714D01*
X134943809Y-122002619D01*
X134981904Y-121926428D01*
X134981904Y-121850238D01*
X134943809Y-121774047D01*
X134905714Y-121735952D01*
X134829523Y-121697857D01*
X134677142Y-121659761D01*
X134486666Y-121659761D01*
X134334285Y-121697857D01*
X134258095Y-121735952D01*
X134220000Y-121774047D01*
X134181904Y-121850238D01*
X134981904Y-122383571D02*
X134448571Y-122802619D01*
X134448571Y-122383571D02*
X134981904Y-122802619D01*
X134753333Y-123069285D02*
X134753333Y-123450238D01*
X134981904Y-122993095D02*
X134181904Y-123259761D01*
X134981904Y-123526428D01*
X131641904Y-121812142D02*
X131641904Y-121888333D01*
X131680000Y-121964523D01*
X131718095Y-122002619D01*
X131794285Y-122040714D01*
X131946666Y-122078809D01*
X132137142Y-122078809D01*
X132289523Y-122040714D01*
X132365714Y-122002619D01*
X132403809Y-121964523D01*
X132441904Y-121888333D01*
X132441904Y-121812142D01*
X132403809Y-121735952D01*
X132365714Y-121697857D01*
X132289523Y-121659761D01*
X132137142Y-121621666D01*
X131946666Y-121621666D01*
X131794285Y-121659761D01*
X131718095Y-121697857D01*
X131680000Y-121735952D01*
X131641904Y-121812142D01*
X132441904Y-122345476D02*
X131908571Y-122764523D01*
X131908571Y-122345476D02*
X132441904Y-122764523D01*
X131984761Y-123183571D02*
X131946666Y-123107380D01*
X131908571Y-123069285D01*
X131832380Y-123031190D01*
X131794285Y-123031190D01*
X131718095Y-123069285D01*
X131680000Y-123107380D01*
X131641904Y-123183571D01*
X131641904Y-123335952D01*
X131680000Y-123412142D01*
X131718095Y-123450238D01*
X131794285Y-123488333D01*
X131832380Y-123488333D01*
X131908571Y-123450238D01*
X131946666Y-123412142D01*
X131984761Y-123335952D01*
X131984761Y-123183571D01*
X132022857Y-123107380D01*
X132060952Y-123069285D01*
X132137142Y-123031190D01*
X132289523Y-123031190D01*
X132365714Y-123069285D01*
X132403809Y-123107380D01*
X132441904Y-123183571D01*
X132441904Y-123335952D01*
X132403809Y-123412142D01*
X132365714Y-123450238D01*
X132289523Y-123488333D01*
X132137142Y-123488333D01*
X132060952Y-123450238D01*
X132022857Y-123412142D01*
X131984761Y-123335952D01*
X129597142Y-121526428D02*
X129597142Y-122135952D01*
X129901904Y-121831190D02*
X129292380Y-121831190D01*
X129101904Y-122897857D02*
X129101904Y-122516904D01*
X129482857Y-122478809D01*
X129444761Y-122516904D01*
X129406666Y-122593095D01*
X129406666Y-122783571D01*
X129444761Y-122859761D01*
X129482857Y-122897857D01*
X129559047Y-122935952D01*
X129749523Y-122935952D01*
X129825714Y-122897857D01*
X129863809Y-122859761D01*
X129901904Y-122783571D01*
X129901904Y-122593095D01*
X129863809Y-122516904D01*
X129825714Y-122478809D01*
X129101904Y-123164523D02*
X129901904Y-123431190D01*
X129101904Y-123697857D01*
D11*
G36*
X180086000Y-121920000D02*
G01*
X181356000Y-121920000D01*
X181356000Y-120650000D01*
X180086000Y-120650000D01*
X180086000Y-121920000D01*
X180086000Y-121920000D01*
G37*
X180086000Y-121920000D02*
X181356000Y-121920000D01*
X181356000Y-120650000D01*
X180086000Y-120650000D01*
X180086000Y-121920000D01*
G36*
X192786000Y-121920000D02*
G01*
X194056000Y-121920000D01*
X194056000Y-120650000D01*
X192786000Y-120650000D01*
X192786000Y-121920000D01*
X192786000Y-121920000D01*
G37*
X192786000Y-121920000D02*
X194056000Y-121920000D01*
X194056000Y-120650000D01*
X192786000Y-120650000D01*
X192786000Y-121920000D01*
G36*
X185624120Y-133848168D02*
G01*
X185589334Y-133985000D01*
X185664169Y-134161880D01*
X185801000Y-134196666D01*
X185977881Y-134121831D01*
X186012667Y-133985000D01*
X185937832Y-133808119D01*
X185801000Y-133773333D01*
X185624120Y-133848168D01*
X185624120Y-133848168D01*
G37*
X185624120Y-133848168D02*
X185589334Y-133985000D01*
X185664169Y-134161880D01*
X185801000Y-134196666D01*
X185977881Y-134121831D01*
X186012667Y-133985000D01*
X185937832Y-133808119D01*
X185801000Y-133773333D01*
X185624120Y-133848168D01*
G36*
X187779187Y-122378833D02*
G01*
X187717984Y-122522319D01*
X187706000Y-122766666D01*
X187723751Y-123043626D01*
X187795494Y-123166032D01*
X187917667Y-123190000D01*
X188056147Y-123154499D01*
X188117350Y-123011013D01*
X188129334Y-122766666D01*
X188111584Y-122489706D01*
X188039841Y-122367301D01*
X187917667Y-122343333D01*
X187779187Y-122378833D01*
X187779187Y-122378833D01*
G37*
X187779187Y-122378833D02*
X187717984Y-122522319D01*
X187706000Y-122766666D01*
X187723751Y-123043626D01*
X187795494Y-123166032D01*
X187917667Y-123190000D01*
X188056147Y-123154499D01*
X188117350Y-123011013D01*
X188129334Y-122766666D01*
X188111584Y-122489706D01*
X188039841Y-122367301D01*
X187917667Y-122343333D01*
X187779187Y-122378833D01*
G36*
X189010787Y-122841502D02*
G01*
X188976000Y-122978333D01*
X189050836Y-123155213D01*
X189187667Y-123190000D01*
X189364547Y-123115164D01*
X189399334Y-122978333D01*
X189324498Y-122801453D01*
X189187667Y-122766666D01*
X189010787Y-122841502D01*
X189010787Y-122841502D01*
G37*
X189010787Y-122841502D02*
X188976000Y-122978333D01*
X189050836Y-123155213D01*
X189187667Y-123190000D01*
X189364547Y-123115164D01*
X189399334Y-122978333D01*
X189324498Y-122801453D01*
X189187667Y-122766666D01*
X189010787Y-122841502D01*
G36*
X180120787Y-125804835D02*
G01*
X180086000Y-125941666D01*
X180160836Y-126118546D01*
X180297667Y-126153333D01*
X180474547Y-126078497D01*
X180509334Y-125941666D01*
X180434498Y-125764786D01*
X180297667Y-125730000D01*
X180120787Y-125804835D01*
X180120787Y-125804835D01*
G37*
X180120787Y-125804835D02*
X180086000Y-125941666D01*
X180160836Y-126118546D01*
X180297667Y-126153333D01*
X180474547Y-126078497D01*
X180509334Y-125941666D01*
X180434498Y-125764786D01*
X180297667Y-125730000D01*
X180120787Y-125804835D01*
G36*
X191974120Y-124958168D02*
G01*
X191939334Y-125095000D01*
X192014169Y-125271880D01*
X192151000Y-125306666D01*
X192327881Y-125231831D01*
X192362667Y-125095000D01*
X192287832Y-124918119D01*
X192151000Y-124883333D01*
X191974120Y-124958168D01*
X191974120Y-124958168D01*
G37*
X191974120Y-124958168D02*
X191939334Y-125095000D01*
X192014169Y-125271880D01*
X192151000Y-125306666D01*
X192327881Y-125231831D01*
X192362667Y-125095000D01*
X192287832Y-124918119D01*
X192151000Y-124883333D01*
X191974120Y-124958168D01*
G36*
X181814120Y-132578168D02*
G01*
X181779334Y-132715000D01*
X181854169Y-132891880D01*
X181991000Y-132926666D01*
X182167881Y-132851831D01*
X182202667Y-132715000D01*
X182127832Y-132538119D01*
X181991000Y-132503333D01*
X181814120Y-132578168D01*
X181814120Y-132578168D01*
G37*
X181814120Y-132578168D02*
X181779334Y-132715000D01*
X181854169Y-132891880D01*
X181991000Y-132926666D01*
X182167881Y-132851831D01*
X182202667Y-132715000D01*
X182127832Y-132538119D01*
X181991000Y-132503333D01*
X181814120Y-132578168D01*
G36*
X180544120Y-128768168D02*
G01*
X180509334Y-128905000D01*
X180584169Y-129081880D01*
X180721000Y-129116666D01*
X180897881Y-129191502D01*
X180932667Y-129328333D01*
X180857832Y-129505213D01*
X180721000Y-129540000D01*
X180582520Y-129575500D01*
X180521318Y-129718986D01*
X180509334Y-129963333D01*
X180509334Y-130386666D01*
X181356000Y-130386666D01*
X181777846Y-130382247D01*
X182030669Y-130361894D01*
X182157045Y-130314962D01*
X182199552Y-130230807D01*
X182202667Y-130175000D01*
X182277503Y-129998119D01*
X182414334Y-129963333D01*
X182591214Y-129888497D01*
X182626000Y-129751666D01*
X182202667Y-129751666D01*
X182167167Y-129890146D01*
X182023681Y-129951349D01*
X181779334Y-129963333D01*
X181502374Y-129945583D01*
X181379968Y-129873840D01*
X181356000Y-129751666D01*
X181391501Y-129613186D01*
X181534987Y-129551983D01*
X181779334Y-129540000D01*
X182056294Y-129557750D01*
X182178699Y-129629493D01*
X182202667Y-129751666D01*
X182626000Y-129751666D01*
X182551165Y-129574786D01*
X182414334Y-129540000D01*
X182237454Y-129465164D01*
X182202667Y-129328333D01*
X182179497Y-129210113D01*
X182077717Y-129146233D01*
X181848920Y-129120558D01*
X181567667Y-129116666D01*
X181213007Y-129108943D01*
X181021367Y-129075016D01*
X180944341Y-128998751D01*
X180932667Y-128905000D01*
X180857832Y-128728119D01*
X180721000Y-128693333D01*
X180544120Y-128768168D01*
X180544120Y-128768168D01*
G37*
X180544120Y-128768168D02*
X180509334Y-128905000D01*
X180584169Y-129081880D01*
X180721000Y-129116666D01*
X180897881Y-129191502D01*
X180932667Y-129328333D01*
X180857832Y-129505213D01*
X180721000Y-129540000D01*
X180582520Y-129575500D01*
X180521318Y-129718986D01*
X180509334Y-129963333D01*
X180509334Y-130386666D01*
X181356000Y-130386666D01*
X181777846Y-130382247D01*
X182030669Y-130361894D01*
X182157045Y-130314962D01*
X182199552Y-130230807D01*
X182202667Y-130175000D01*
X182277503Y-129998119D01*
X182414334Y-129963333D01*
X182591214Y-129888497D01*
X182626000Y-129751666D01*
X182202667Y-129751666D01*
X182167167Y-129890146D01*
X182023681Y-129951349D01*
X181779334Y-129963333D01*
X181502374Y-129945583D01*
X181379968Y-129873840D01*
X181356000Y-129751666D01*
X181391501Y-129613186D01*
X181534987Y-129551983D01*
X181779334Y-129540000D01*
X182056294Y-129557750D01*
X182178699Y-129629493D01*
X182202667Y-129751666D01*
X182626000Y-129751666D01*
X182551165Y-129574786D01*
X182414334Y-129540000D01*
X182237454Y-129465164D01*
X182202667Y-129328333D01*
X182179497Y-129210113D01*
X182077717Y-129146233D01*
X181848920Y-129120558D01*
X181567667Y-129116666D01*
X181213007Y-129108943D01*
X181021367Y-129075016D01*
X180944341Y-128998751D01*
X180932667Y-128905000D01*
X180857832Y-128728119D01*
X180721000Y-128693333D01*
X180544120Y-128768168D01*
G36*
X192786000Y-134620000D02*
G01*
X194056000Y-134620000D01*
X194056000Y-133350000D01*
X192786000Y-133350000D01*
X192786000Y-134620000D01*
X192786000Y-134620000D01*
G37*
X192786000Y-134620000D02*
X194056000Y-134620000D01*
X194056000Y-133350000D01*
X192786000Y-133350000D01*
X192786000Y-134620000D01*
G36*
X179239334Y-122766666D02*
G01*
X182202667Y-122766666D01*
X182202667Y-120226666D01*
X181779334Y-120226666D01*
X181779334Y-122343333D01*
X179662667Y-122343333D01*
X179662667Y-120226666D01*
X181779334Y-120226666D01*
X182202667Y-120226666D01*
X182202667Y-119803333D01*
X179239334Y-119803333D01*
X179239334Y-122766666D01*
X179239334Y-122766666D01*
G37*
X179239334Y-122766666D02*
X182202667Y-122766666D01*
X182202667Y-120226666D01*
X181779334Y-120226666D01*
X181779334Y-122343333D01*
X179662667Y-122343333D01*
X179662667Y-120226666D01*
X181779334Y-120226666D01*
X182202667Y-120226666D01*
X182202667Y-119803333D01*
X179239334Y-119803333D01*
X179239334Y-122766666D01*
G36*
X191939334Y-122766666D02*
G01*
X194902667Y-122766666D01*
X194902667Y-120226666D01*
X194479334Y-120226666D01*
X194479334Y-122343333D01*
X192362667Y-122343333D01*
X192362667Y-120226666D01*
X194479334Y-120226666D01*
X194902667Y-120226666D01*
X194902667Y-119803333D01*
X191939334Y-119803333D01*
X191939334Y-122766666D01*
X191939334Y-122766666D01*
G37*
X191939334Y-122766666D02*
X194902667Y-122766666D01*
X194902667Y-120226666D01*
X194479334Y-120226666D01*
X194479334Y-122343333D01*
X192362667Y-122343333D01*
X192362667Y-120226666D01*
X194479334Y-120226666D01*
X194902667Y-120226666D01*
X194902667Y-119803333D01*
X191939334Y-119803333D01*
X191939334Y-122766666D01*
G36*
X193282520Y-123225500D02*
G01*
X193221318Y-123368986D01*
X193209334Y-123613333D01*
X193209334Y-124036666D01*
X193632667Y-124036666D01*
X193909627Y-124018916D01*
X194032033Y-123947173D01*
X194056000Y-123825000D01*
X194130836Y-123648119D01*
X194267667Y-123613333D01*
X194444547Y-123538497D01*
X194479334Y-123401666D01*
X194404498Y-123224786D01*
X194267667Y-123190000D01*
X194090787Y-123264835D01*
X194056000Y-123401666D01*
X193981165Y-123578546D01*
X193844334Y-123613333D01*
X193667454Y-123538497D01*
X193632667Y-123401666D01*
X193557832Y-123224786D01*
X193421000Y-123190000D01*
X193282520Y-123225500D01*
X193282520Y-123225500D01*
G37*
X193282520Y-123225500D02*
X193221318Y-123368986D01*
X193209334Y-123613333D01*
X193209334Y-124036666D01*
X193632667Y-124036666D01*
X193909627Y-124018916D01*
X194032033Y-123947173D01*
X194056000Y-123825000D01*
X194130836Y-123648119D01*
X194267667Y-123613333D01*
X194444547Y-123538497D01*
X194479334Y-123401666D01*
X194404498Y-123224786D01*
X194267667Y-123190000D01*
X194090787Y-123264835D01*
X194056000Y-123401666D01*
X193981165Y-123578546D01*
X193844334Y-123613333D01*
X193667454Y-123538497D01*
X193632667Y-123401666D01*
X193557832Y-123224786D01*
X193421000Y-123190000D01*
X193282520Y-123225500D01*
G36*
X179332780Y-123213169D02*
G01*
X179268900Y-123314949D01*
X179243225Y-123543746D01*
X179239334Y-123825000D01*
X179247057Y-124179660D01*
X179280984Y-124371300D01*
X179357249Y-124448325D01*
X179451000Y-124460000D01*
X179569221Y-124436830D01*
X179633101Y-124335050D01*
X179658776Y-124106253D01*
X179662667Y-123825000D01*
X179654944Y-123470339D01*
X179621017Y-123278699D01*
X179544752Y-123201674D01*
X179451000Y-123190000D01*
X179332780Y-123213169D01*
X179332780Y-123213169D01*
G37*
X179332780Y-123213169D02*
X179268900Y-123314949D01*
X179243225Y-123543746D01*
X179239334Y-123825000D01*
X179247057Y-124179660D01*
X179280984Y-124371300D01*
X179357249Y-124448325D01*
X179451000Y-124460000D01*
X179569221Y-124436830D01*
X179633101Y-124335050D01*
X179658776Y-124106253D01*
X179662667Y-123825000D01*
X179654944Y-123470339D01*
X179621017Y-123278699D01*
X179544752Y-123201674D01*
X179451000Y-123190000D01*
X179332780Y-123213169D01*
G36*
X194514120Y-124111502D02*
G01*
X194479334Y-124248333D01*
X194554169Y-124425213D01*
X194691000Y-124460000D01*
X194867881Y-124385164D01*
X194902667Y-124248333D01*
X194827832Y-124071453D01*
X194691000Y-124036666D01*
X194514120Y-124111502D01*
X194514120Y-124111502D01*
G37*
X194514120Y-124111502D02*
X194479334Y-124248333D01*
X194554169Y-124425213D01*
X194691000Y-124460000D01*
X194867881Y-124385164D01*
X194902667Y-124248333D01*
X194827832Y-124071453D01*
X194691000Y-124036666D01*
X194514120Y-124111502D01*
G36*
X189010787Y-125804835D02*
G01*
X188976000Y-125941666D01*
X189050836Y-126118546D01*
X189187667Y-126153333D01*
X189364547Y-126078497D01*
X189399334Y-125941666D01*
X189324498Y-125764786D01*
X189187667Y-125730000D01*
X189010787Y-125804835D01*
X189010787Y-125804835D01*
G37*
X189010787Y-125804835D02*
X188976000Y-125941666D01*
X189050836Y-126118546D01*
X189187667Y-126153333D01*
X189364547Y-126078497D01*
X189399334Y-125941666D01*
X189324498Y-125764786D01*
X189187667Y-125730000D01*
X189010787Y-125804835D01*
G36*
X185312374Y-127017750D02*
G01*
X185189968Y-127089493D01*
X185166000Y-127211666D01*
X185201501Y-127350146D01*
X185344987Y-127411349D01*
X185589334Y-127423333D01*
X185866294Y-127405583D01*
X185988699Y-127333840D01*
X186012667Y-127211666D01*
X185977167Y-127073186D01*
X185833681Y-127011983D01*
X185589334Y-127000000D01*
X185312374Y-127017750D01*
X185312374Y-127017750D01*
G37*
X185312374Y-127017750D02*
X185189968Y-127089493D01*
X185166000Y-127211666D01*
X185201501Y-127350146D01*
X185344987Y-127411349D01*
X185589334Y-127423333D01*
X185866294Y-127405583D01*
X185988699Y-127333840D01*
X186012667Y-127211666D01*
X185977167Y-127073186D01*
X185833681Y-127011983D01*
X185589334Y-127000000D01*
X185312374Y-127017750D01*
G36*
X188587454Y-127074835D02*
G01*
X188552667Y-127211666D01*
X188627503Y-127388546D01*
X188764334Y-127423333D01*
X188941214Y-127348497D01*
X188976000Y-127211666D01*
X188901165Y-127034786D01*
X188764334Y-127000000D01*
X188587454Y-127074835D01*
X188587454Y-127074835D01*
G37*
X188587454Y-127074835D02*
X188552667Y-127211666D01*
X188627503Y-127388546D01*
X188764334Y-127423333D01*
X188941214Y-127348497D01*
X188976000Y-127211666D01*
X188901165Y-127034786D01*
X188764334Y-127000000D01*
X188587454Y-127074835D01*
G36*
X184836114Y-127869836D02*
G01*
X184772234Y-127971616D01*
X184746559Y-128200413D01*
X184742667Y-128481666D01*
X184750390Y-128836327D01*
X184784317Y-129027966D01*
X184860583Y-129104992D01*
X184954334Y-129116666D01*
X185072554Y-129093496D01*
X185136434Y-128991716D01*
X185162109Y-128762919D01*
X185166000Y-128481666D01*
X185158277Y-128127006D01*
X185124351Y-127935366D01*
X185048085Y-127858340D01*
X184954334Y-127846666D01*
X184836114Y-127869836D01*
X184836114Y-127869836D01*
G37*
X184836114Y-127869836D02*
X184772234Y-127971616D01*
X184746559Y-128200413D01*
X184742667Y-128481666D01*
X184750390Y-128836327D01*
X184784317Y-129027966D01*
X184860583Y-129104992D01*
X184954334Y-129116666D01*
X185072554Y-129093496D01*
X185136434Y-128991716D01*
X185162109Y-128762919D01*
X185166000Y-128481666D01*
X185158277Y-128127006D01*
X185124351Y-127935366D01*
X185048085Y-127858340D01*
X184954334Y-127846666D01*
X184836114Y-127869836D01*
G36*
X186470787Y-130038168D02*
G01*
X186436000Y-130175000D01*
X186510836Y-130351880D01*
X186647667Y-130386666D01*
X186824547Y-130311831D01*
X186859334Y-130175000D01*
X186784498Y-129998119D01*
X186647667Y-129963333D01*
X186470787Y-130038168D01*
X186470787Y-130038168D01*
G37*
X186470787Y-130038168D02*
X186436000Y-130175000D01*
X186510836Y-130351880D01*
X186647667Y-130386666D01*
X186824547Y-130311831D01*
X186859334Y-130175000D01*
X186784498Y-129998119D01*
X186647667Y-129963333D01*
X186470787Y-130038168D01*
G36*
X186894120Y-133001502D02*
G01*
X186859334Y-133138333D01*
X186934169Y-133315213D01*
X187071000Y-133350000D01*
X187247881Y-133275164D01*
X187282667Y-133138333D01*
X187207832Y-132961453D01*
X187071000Y-132926666D01*
X186894120Y-133001502D01*
X186894120Y-133001502D01*
G37*
X186894120Y-133001502D02*
X186859334Y-133138333D01*
X186934169Y-133315213D01*
X187071000Y-133350000D01*
X187247881Y-133275164D01*
X187282667Y-133138333D01*
X187207832Y-132961453D01*
X187071000Y-132926666D01*
X186894120Y-133001502D01*
G36*
X179385707Y-135061083D02*
G01*
X179263302Y-135132826D01*
X179239334Y-135255000D01*
X179274834Y-135393480D01*
X179418320Y-135454682D01*
X179662667Y-135466666D01*
X179939627Y-135448916D01*
X180062033Y-135377173D01*
X180086000Y-135255000D01*
X180050500Y-135116519D01*
X179907014Y-135055317D01*
X179662667Y-135043333D01*
X179385707Y-135061083D01*
X179385707Y-135061083D01*
G37*
X179385707Y-135061083D02*
X179263302Y-135132826D01*
X179239334Y-135255000D01*
X179274834Y-135393480D01*
X179418320Y-135454682D01*
X179662667Y-135466666D01*
X179939627Y-135448916D01*
X180062033Y-135377173D01*
X180086000Y-135255000D01*
X180050500Y-135116519D01*
X179907014Y-135055317D01*
X179662667Y-135043333D01*
X179385707Y-135061083D01*
G36*
X185869673Y-130817723D02*
G01*
X185678034Y-130851649D01*
X185601008Y-130927915D01*
X185589334Y-131021666D01*
X185624834Y-131160146D01*
X185768320Y-131221349D01*
X186012667Y-131233333D01*
X186289627Y-131251083D01*
X186412033Y-131322826D01*
X186436000Y-131445000D01*
X186510836Y-131621880D01*
X186647667Y-131656666D01*
X186824547Y-131731502D01*
X186859334Y-131868333D01*
X186823834Y-132006813D01*
X186680347Y-132068016D01*
X186436000Y-132080000D01*
X186159040Y-132097750D01*
X186036635Y-132169493D01*
X186012667Y-132291666D01*
X185937832Y-132468546D01*
X185801000Y-132503333D01*
X185624120Y-132578168D01*
X185589334Y-132715000D01*
X185553834Y-132853480D01*
X185410347Y-132914682D01*
X185166000Y-132926666D01*
X184889040Y-132944416D01*
X184766635Y-133016159D01*
X184742667Y-133138333D01*
X184707167Y-133276813D01*
X184563681Y-133338016D01*
X184319334Y-133350000D01*
X184042374Y-133367750D01*
X183919968Y-133439493D01*
X183896000Y-133561666D01*
X183970836Y-133738546D01*
X184107667Y-133773333D01*
X184213129Y-133791009D01*
X184276334Y-133872422D01*
X184307928Y-134060150D01*
X184318555Y-134396769D01*
X184319334Y-134620000D01*
X184319334Y-135466666D01*
X184954334Y-135466666D01*
X185308994Y-135458943D01*
X185500634Y-135425016D01*
X185577660Y-135348751D01*
X185589334Y-135255000D01*
X185612504Y-135136779D01*
X185714284Y-135072899D01*
X185943081Y-135047224D01*
X186224334Y-135043333D01*
X186859334Y-135043333D01*
X186859334Y-134408333D01*
X186854725Y-134196666D01*
X186436000Y-134196666D01*
X186436000Y-134620000D01*
X185166000Y-134620000D01*
X185166000Y-134196666D01*
X185148250Y-133919706D01*
X185076507Y-133797301D01*
X184954334Y-133773333D01*
X184777454Y-133698497D01*
X184742667Y-133561666D01*
X184778167Y-133423186D01*
X184921654Y-133361983D01*
X185166000Y-133350000D01*
X185442961Y-133332249D01*
X185565366Y-133260506D01*
X185589334Y-133138333D01*
X185664169Y-132961453D01*
X185801000Y-132926666D01*
X185939481Y-132962166D01*
X186000683Y-133105653D01*
X186012667Y-133350000D01*
X186030417Y-133626960D01*
X186102160Y-133749365D01*
X186224334Y-133773333D01*
X186362814Y-133808833D01*
X186424017Y-133952319D01*
X186436000Y-134196666D01*
X186854725Y-134196666D01*
X186851611Y-134053672D01*
X186817684Y-133862033D01*
X186741418Y-133785007D01*
X186647667Y-133773333D01*
X186509187Y-133737833D01*
X186447984Y-133594346D01*
X186436000Y-133350000D01*
X186418250Y-133073039D01*
X186346507Y-132950634D01*
X186224334Y-132926666D01*
X186047454Y-132851831D01*
X186012667Y-132715000D01*
X186048167Y-132576519D01*
X186191654Y-132515317D01*
X186436000Y-132503333D01*
X186712961Y-132485583D01*
X186835366Y-132413840D01*
X186859334Y-132291666D01*
X186934169Y-132114786D01*
X187071000Y-132080000D01*
X187247881Y-132154835D01*
X187282667Y-132291666D01*
X187357503Y-132468546D01*
X187494334Y-132503333D01*
X187671214Y-132428497D01*
X187706000Y-132291666D01*
X187631165Y-132114786D01*
X187494334Y-132080000D01*
X187317454Y-132005164D01*
X187282667Y-131868333D01*
X187357503Y-131691453D01*
X187494334Y-131656666D01*
X187671214Y-131581831D01*
X187706000Y-131445000D01*
X187631165Y-131268119D01*
X187494334Y-131233333D01*
X187317454Y-131308168D01*
X187282667Y-131445000D01*
X187207832Y-131621880D01*
X187071000Y-131656666D01*
X186932520Y-131621166D01*
X186871318Y-131477680D01*
X186859334Y-131233333D01*
X186859334Y-130810000D01*
X186224334Y-130810000D01*
X185869673Y-130817723D01*
X185869673Y-130817723D01*
G37*
X185869673Y-130817723D02*
X185678034Y-130851649D01*
X185601008Y-130927915D01*
X185589334Y-131021666D01*
X185624834Y-131160146D01*
X185768320Y-131221349D01*
X186012667Y-131233333D01*
X186289627Y-131251083D01*
X186412033Y-131322826D01*
X186436000Y-131445000D01*
X186510836Y-131621880D01*
X186647667Y-131656666D01*
X186824547Y-131731502D01*
X186859334Y-131868333D01*
X186823834Y-132006813D01*
X186680347Y-132068016D01*
X186436000Y-132080000D01*
X186159040Y-132097750D01*
X186036635Y-132169493D01*
X186012667Y-132291666D01*
X185937832Y-132468546D01*
X185801000Y-132503333D01*
X185624120Y-132578168D01*
X185589334Y-132715000D01*
X185553834Y-132853480D01*
X185410347Y-132914682D01*
X185166000Y-132926666D01*
X184889040Y-132944416D01*
X184766635Y-133016159D01*
X184742667Y-133138333D01*
X184707167Y-133276813D01*
X184563681Y-133338016D01*
X184319334Y-133350000D01*
X184042374Y-133367750D01*
X183919968Y-133439493D01*
X183896000Y-133561666D01*
X183970836Y-133738546D01*
X184107667Y-133773333D01*
X184213129Y-133791009D01*
X184276334Y-133872422D01*
X184307928Y-134060150D01*
X184318555Y-134396769D01*
X184319334Y-134620000D01*
X184319334Y-135466666D01*
X184954334Y-135466666D01*
X185308994Y-135458943D01*
X185500634Y-135425016D01*
X185577660Y-135348751D01*
X185589334Y-135255000D01*
X185612504Y-135136779D01*
X185714284Y-135072899D01*
X185943081Y-135047224D01*
X186224334Y-135043333D01*
X186859334Y-135043333D01*
X186859334Y-134408333D01*
X186854725Y-134196666D01*
X186436000Y-134196666D01*
X186436000Y-134620000D01*
X185166000Y-134620000D01*
X185166000Y-134196666D01*
X185148250Y-133919706D01*
X185076507Y-133797301D01*
X184954334Y-133773333D01*
X184777454Y-133698497D01*
X184742667Y-133561666D01*
X184778167Y-133423186D01*
X184921654Y-133361983D01*
X185166000Y-133350000D01*
X185442961Y-133332249D01*
X185565366Y-133260506D01*
X185589334Y-133138333D01*
X185664169Y-132961453D01*
X185801000Y-132926666D01*
X185939481Y-132962166D01*
X186000683Y-133105653D01*
X186012667Y-133350000D01*
X186030417Y-133626960D01*
X186102160Y-133749365D01*
X186224334Y-133773333D01*
X186362814Y-133808833D01*
X186424017Y-133952319D01*
X186436000Y-134196666D01*
X186854725Y-134196666D01*
X186851611Y-134053672D01*
X186817684Y-133862033D01*
X186741418Y-133785007D01*
X186647667Y-133773333D01*
X186509187Y-133737833D01*
X186447984Y-133594346D01*
X186436000Y-133350000D01*
X186418250Y-133073039D01*
X186346507Y-132950634D01*
X186224334Y-132926666D01*
X186047454Y-132851831D01*
X186012667Y-132715000D01*
X186048167Y-132576519D01*
X186191654Y-132515317D01*
X186436000Y-132503333D01*
X186712961Y-132485583D01*
X186835366Y-132413840D01*
X186859334Y-132291666D01*
X186934169Y-132114786D01*
X187071000Y-132080000D01*
X187247881Y-132154835D01*
X187282667Y-132291666D01*
X187357503Y-132468546D01*
X187494334Y-132503333D01*
X187671214Y-132428497D01*
X187706000Y-132291666D01*
X187631165Y-132114786D01*
X187494334Y-132080000D01*
X187317454Y-132005164D01*
X187282667Y-131868333D01*
X187357503Y-131691453D01*
X187494334Y-131656666D01*
X187671214Y-131581831D01*
X187706000Y-131445000D01*
X187631165Y-131268119D01*
X187494334Y-131233333D01*
X187317454Y-131308168D01*
X187282667Y-131445000D01*
X187207832Y-131621880D01*
X187071000Y-131656666D01*
X186932520Y-131621166D01*
X186871318Y-131477680D01*
X186859334Y-131233333D01*
X186859334Y-130810000D01*
X186224334Y-130810000D01*
X185869673Y-130817723D01*
G36*
X189472520Y-134232166D02*
G01*
X189411318Y-134375653D01*
X189399334Y-134620000D01*
X189417084Y-134896960D01*
X189488827Y-135019365D01*
X189611000Y-135043333D01*
X189787881Y-135118168D01*
X189822667Y-135255000D01*
X189897503Y-135431880D01*
X190034334Y-135466666D01*
X190172814Y-135431166D01*
X190234017Y-135287680D01*
X190246000Y-135043333D01*
X190228250Y-134766373D01*
X190156507Y-134643967D01*
X190034334Y-134620000D01*
X189857454Y-134545164D01*
X189822667Y-134408333D01*
X189747832Y-134231453D01*
X189611000Y-134196666D01*
X189472520Y-134232166D01*
X189472520Y-134232166D01*
G37*
X189472520Y-134232166D02*
X189411318Y-134375653D01*
X189399334Y-134620000D01*
X189417084Y-134896960D01*
X189488827Y-135019365D01*
X189611000Y-135043333D01*
X189787881Y-135118168D01*
X189822667Y-135255000D01*
X189897503Y-135431880D01*
X190034334Y-135466666D01*
X190172814Y-135431166D01*
X190234017Y-135287680D01*
X190246000Y-135043333D01*
X190228250Y-134766373D01*
X190156507Y-134643967D01*
X190034334Y-134620000D01*
X189857454Y-134545164D01*
X189822667Y-134408333D01*
X189747832Y-134231453D01*
X189611000Y-134196666D01*
X189472520Y-134232166D01*
G36*
X186859334Y-120650000D02*
G01*
X186863753Y-121071845D01*
X186884106Y-121324668D01*
X186931038Y-121451044D01*
X187015193Y-121493551D01*
X187071000Y-121496666D01*
X187247881Y-121571502D01*
X187282667Y-121708333D01*
X187207832Y-121885213D01*
X187071000Y-121920000D01*
X186932520Y-121955500D01*
X186871318Y-122098986D01*
X186859334Y-122343333D01*
X186841584Y-122620293D01*
X186769841Y-122742698D01*
X186647667Y-122766666D01*
X186529447Y-122743496D01*
X186465567Y-122641716D01*
X186439892Y-122412919D01*
X186436000Y-122131666D01*
X186428277Y-121777006D01*
X186394351Y-121585366D01*
X186318085Y-121508340D01*
X186224334Y-121496666D01*
X186106114Y-121519836D01*
X186042234Y-121621616D01*
X186016559Y-121850413D01*
X186012667Y-122131666D01*
X186004944Y-122486327D01*
X185971017Y-122677966D01*
X185894752Y-122754992D01*
X185801000Y-122766666D01*
X185624120Y-122691831D01*
X185589334Y-122555000D01*
X185514498Y-122378119D01*
X185377667Y-122343333D01*
X185200787Y-122268497D01*
X185166000Y-122131666D01*
X185240836Y-121954786D01*
X185377667Y-121920000D01*
X185495887Y-121896830D01*
X185559767Y-121795050D01*
X185585442Y-121566253D01*
X185589334Y-121285000D01*
X185597057Y-120930339D01*
X185630984Y-120738699D01*
X185707249Y-120661674D01*
X185801000Y-120650000D01*
X185977881Y-120724835D01*
X186012667Y-120861666D01*
X186087503Y-121038546D01*
X186224334Y-121073333D01*
X186342554Y-121050163D01*
X186406434Y-120948383D01*
X186432109Y-120719586D01*
X186436000Y-120438333D01*
X186436000Y-119803333D01*
X185166000Y-119803333D01*
X185166000Y-120861666D01*
X185163095Y-121343354D01*
X185149272Y-121651711D01*
X185116868Y-121825049D01*
X185058222Y-121901679D01*
X184965670Y-121919913D01*
X184954334Y-121920000D01*
X184777454Y-121994835D01*
X184742667Y-122131666D01*
X184667832Y-122308546D01*
X184531000Y-122343333D01*
X184354120Y-122418168D01*
X184319334Y-122555000D01*
X184244498Y-122731880D01*
X184107667Y-122766666D01*
X183930787Y-122691831D01*
X183896000Y-122555000D01*
X183821165Y-122378119D01*
X183684334Y-122343333D01*
X183507454Y-122268497D01*
X183472667Y-122131666D01*
X183547503Y-121954786D01*
X183684334Y-121920000D01*
X183861214Y-121845164D01*
X183896000Y-121708333D01*
X183970836Y-121531453D01*
X184107667Y-121496666D01*
X184213129Y-121478990D01*
X184276334Y-121397577D01*
X184307928Y-121209849D01*
X184318555Y-120873230D01*
X184319334Y-120650000D01*
X184314915Y-120228154D01*
X184294561Y-119975331D01*
X184247629Y-119848955D01*
X184163475Y-119806448D01*
X184107667Y-119803333D01*
X183930787Y-119878168D01*
X183896000Y-120015000D01*
X183821165Y-120191880D01*
X183684334Y-120226666D01*
X183507454Y-120151831D01*
X183472667Y-120015000D01*
X183437167Y-119876519D01*
X183293681Y-119815317D01*
X183049334Y-119803333D01*
X182772374Y-119821083D01*
X182649968Y-119892826D01*
X182626000Y-120015000D01*
X182700836Y-120191880D01*
X182837667Y-120226666D01*
X183014547Y-120301502D01*
X183049334Y-120438333D01*
X183084834Y-120576813D01*
X183228320Y-120638016D01*
X183472667Y-120650000D01*
X183749627Y-120667750D01*
X183872033Y-120739493D01*
X183896000Y-120861666D01*
X183860500Y-121000146D01*
X183717014Y-121061349D01*
X183472667Y-121073333D01*
X183049334Y-121073333D01*
X183049334Y-121496666D01*
X183031584Y-121773626D01*
X182959841Y-121896032D01*
X182837667Y-121920000D01*
X182699187Y-121955500D01*
X182637984Y-122098986D01*
X182626000Y-122343333D01*
X182643751Y-122620293D01*
X182715494Y-122742698D01*
X182837667Y-122766666D01*
X183014547Y-122691831D01*
X183049334Y-122555000D01*
X183124169Y-122378119D01*
X183261000Y-122343333D01*
X183437881Y-122418168D01*
X183472667Y-122555000D01*
X183547503Y-122731880D01*
X183684334Y-122766666D01*
X183861214Y-122841502D01*
X183896000Y-122978333D01*
X183860500Y-123116813D01*
X183717014Y-123178016D01*
X183472667Y-123190000D01*
X183049334Y-123190000D01*
X183049334Y-123613333D01*
X183031584Y-123890293D01*
X182959841Y-124012698D01*
X182837667Y-124036666D01*
X182699187Y-124001166D01*
X182637984Y-123857680D01*
X182636382Y-123825000D01*
X182202667Y-123825000D01*
X182167167Y-123963480D01*
X182023681Y-124024682D01*
X181779334Y-124036666D01*
X181502374Y-124018916D01*
X181379968Y-123947173D01*
X181356000Y-123825000D01*
X181391501Y-123686519D01*
X181534987Y-123625317D01*
X181779334Y-123613333D01*
X182056294Y-123631083D01*
X182178699Y-123702826D01*
X182202667Y-123825000D01*
X182636382Y-123825000D01*
X182626000Y-123613333D01*
X182626000Y-123190000D01*
X181991000Y-123190000D01*
X181636340Y-123197723D01*
X181444700Y-123231649D01*
X181367675Y-123307915D01*
X181356000Y-123401666D01*
X181281165Y-123578546D01*
X181144334Y-123613333D01*
X180967454Y-123538497D01*
X180932667Y-123401666D01*
X180897167Y-123263186D01*
X180753681Y-123201983D01*
X180509334Y-123190000D01*
X180232374Y-123207750D01*
X180109968Y-123279493D01*
X180086000Y-123401666D01*
X180160836Y-123578546D01*
X180297667Y-123613333D01*
X180415887Y-123636503D01*
X180479767Y-123738283D01*
X180505442Y-123967080D01*
X180509334Y-124248333D01*
X180501611Y-124602993D01*
X180467684Y-124794633D01*
X180391418Y-124871659D01*
X180297667Y-124883333D01*
X180120787Y-124958168D01*
X180086000Y-125095000D01*
X180050500Y-125233480D01*
X179907014Y-125294682D01*
X179662667Y-125306666D01*
X179239334Y-125306666D01*
X179239334Y-125941666D01*
X179247057Y-126296327D01*
X179280984Y-126487966D01*
X179357249Y-126564992D01*
X179451000Y-126576666D01*
X179627881Y-126651502D01*
X179662667Y-126788333D01*
X179587832Y-126965213D01*
X179451000Y-127000000D01*
X179312520Y-127035500D01*
X179251318Y-127178986D01*
X179239334Y-127423333D01*
X179257084Y-127700293D01*
X179328827Y-127822698D01*
X179451000Y-127846666D01*
X179627881Y-127921502D01*
X179662667Y-128058333D01*
X179587832Y-128235213D01*
X179451000Y-128270000D01*
X179274120Y-128344835D01*
X179239334Y-128481666D01*
X179314169Y-128658546D01*
X179451000Y-128693333D01*
X179589481Y-128728833D01*
X179650683Y-128872319D01*
X179662667Y-129116666D01*
X179644917Y-129393626D01*
X179573174Y-129516032D01*
X179451000Y-129540000D01*
X179274120Y-129614835D01*
X179239334Y-129751666D01*
X179314169Y-129928546D01*
X179451000Y-129963333D01*
X179627881Y-130038168D01*
X179662667Y-130175000D01*
X179587832Y-130351880D01*
X179451000Y-130386666D01*
X179379103Y-130394992D01*
X179325644Y-130438151D01*
X179287896Y-130543420D01*
X179263133Y-130738072D01*
X179248627Y-131049383D01*
X179241649Y-131504626D01*
X179239473Y-132131077D01*
X179239334Y-132503333D01*
X179240166Y-133222313D01*
X179244482Y-133756902D01*
X179255009Y-134134375D01*
X179274474Y-134382007D01*
X179305605Y-134527073D01*
X179351130Y-134596847D01*
X179413775Y-134618603D01*
X179451000Y-134620000D01*
X179627881Y-134545164D01*
X179662667Y-134408333D01*
X179737503Y-134231453D01*
X179874334Y-134196666D01*
X180051214Y-134271502D01*
X180086000Y-134408333D01*
X180109170Y-134526553D01*
X180210950Y-134590433D01*
X180439747Y-134616108D01*
X180721000Y-134620000D01*
X181075661Y-134627723D01*
X181267301Y-134661649D01*
X181344326Y-134737915D01*
X181356000Y-134831666D01*
X181281165Y-135008546D01*
X181144334Y-135043333D01*
X180967454Y-135118168D01*
X180932667Y-135255000D01*
X181007503Y-135431880D01*
X181144334Y-135466666D01*
X181321214Y-135391831D01*
X181356000Y-135255000D01*
X181430836Y-135078119D01*
X181567667Y-135043333D01*
X181685887Y-135020163D01*
X181749767Y-134918383D01*
X181775442Y-134689586D01*
X181779334Y-134408333D01*
X181787057Y-134053672D01*
X181820984Y-133862033D01*
X181897249Y-133785007D01*
X181991000Y-133773333D01*
X182129481Y-133808833D01*
X182190683Y-133952319D01*
X182202667Y-134196666D01*
X182220417Y-134473626D01*
X182292160Y-134596032D01*
X182414334Y-134620000D01*
X182552814Y-134655500D01*
X182614017Y-134798986D01*
X182626000Y-135043333D01*
X182626000Y-135466666D01*
X183049334Y-135466666D01*
X183326294Y-135448916D01*
X183448699Y-135377173D01*
X183472667Y-135255000D01*
X183547503Y-135078119D01*
X183684334Y-135043333D01*
X183861214Y-134968497D01*
X183896000Y-134831666D01*
X183472667Y-134831666D01*
X183397832Y-135008546D01*
X183261000Y-135043333D01*
X183084120Y-134968497D01*
X183049334Y-134831666D01*
X183124169Y-134654786D01*
X183261000Y-134620000D01*
X183437881Y-134694835D01*
X183472667Y-134831666D01*
X183896000Y-134831666D01*
X183821165Y-134654786D01*
X183684334Y-134620000D01*
X183566114Y-134596830D01*
X183502234Y-134495050D01*
X183476559Y-134266253D01*
X183472667Y-133985000D01*
X183464944Y-133630339D01*
X183431017Y-133438699D01*
X183354752Y-133361674D01*
X183261000Y-133350000D01*
X183122520Y-133314499D01*
X183061318Y-133171013D01*
X183049334Y-132926666D01*
X183067084Y-132649706D01*
X183138827Y-132527301D01*
X183261000Y-132503333D01*
X183437881Y-132578168D01*
X183472667Y-132715000D01*
X183547503Y-132891880D01*
X183684334Y-132926666D01*
X183861214Y-132851831D01*
X183896000Y-132715000D01*
X183919170Y-132596779D01*
X184020950Y-132532899D01*
X184249747Y-132507224D01*
X184531000Y-132503333D01*
X184885661Y-132495610D01*
X185077301Y-132461683D01*
X185154326Y-132385417D01*
X185166000Y-132291666D01*
X185240836Y-132114786D01*
X185377667Y-132080000D01*
X185554547Y-132005164D01*
X185589334Y-131868333D01*
X184742667Y-131868333D01*
X184719497Y-131986553D01*
X184617717Y-132050433D01*
X184388920Y-132076108D01*
X184107667Y-132080000D01*
X182626000Y-132080000D01*
X182626000Y-133350000D01*
X181356000Y-133350000D01*
X181356000Y-132080000D01*
X182626000Y-132080000D01*
X184107667Y-132080000D01*
X183753007Y-132072276D01*
X183561367Y-132038350D01*
X183484341Y-131962084D01*
X183472667Y-131868333D01*
X183397832Y-131691453D01*
X183261000Y-131656666D01*
X183084120Y-131581831D01*
X183049334Y-131445000D01*
X182626000Y-131445000D01*
X182551165Y-131621880D01*
X182414334Y-131656666D01*
X182237454Y-131581831D01*
X182202667Y-131445000D01*
X182277503Y-131268119D01*
X182414334Y-131233333D01*
X182591214Y-131308168D01*
X182626000Y-131445000D01*
X183049334Y-131445000D01*
X183124169Y-131268119D01*
X183261000Y-131233333D01*
X183437881Y-131308168D01*
X183472667Y-131445000D01*
X183495837Y-131563220D01*
X183597617Y-131627100D01*
X183826414Y-131652775D01*
X184107667Y-131656666D01*
X184462328Y-131664389D01*
X184653967Y-131698316D01*
X184730993Y-131774582D01*
X184742667Y-131868333D01*
X185589334Y-131868333D01*
X185553834Y-131729853D01*
X185410347Y-131668650D01*
X185166000Y-131656666D01*
X184889040Y-131638916D01*
X184766635Y-131567173D01*
X184742667Y-131445000D01*
X184817503Y-131268119D01*
X184954334Y-131233333D01*
X185131214Y-131158497D01*
X185166000Y-131021666D01*
X184742667Y-131021666D01*
X184667832Y-131198546D01*
X184531000Y-131233333D01*
X184354120Y-131158497D01*
X184319334Y-131021666D01*
X184394169Y-130844786D01*
X184531000Y-130810000D01*
X184707881Y-130884835D01*
X184742667Y-131021666D01*
X185166000Y-131021666D01*
X185091165Y-130844786D01*
X184954334Y-130810000D01*
X184777454Y-130735164D01*
X184742667Y-130598333D01*
X184667832Y-130421453D01*
X184531000Y-130386666D01*
X184354120Y-130461502D01*
X184319334Y-130598333D01*
X184244498Y-130775213D01*
X184107667Y-130810000D01*
X183969187Y-130774499D01*
X183907984Y-130631013D01*
X183896000Y-130386666D01*
X183913751Y-130109706D01*
X183985494Y-129987301D01*
X184107667Y-129963333D01*
X184225887Y-129940163D01*
X184289767Y-129838383D01*
X184299498Y-129751666D01*
X183896000Y-129751666D01*
X183872831Y-129869886D01*
X183771051Y-129933766D01*
X183542254Y-129959441D01*
X183261000Y-129963333D01*
X182906340Y-129971056D01*
X182714700Y-130004983D01*
X182637675Y-130081248D01*
X182626000Y-130175000D01*
X182700836Y-130351880D01*
X182837667Y-130386666D01*
X183014547Y-130461502D01*
X183049334Y-130598333D01*
X183031658Y-130703794D01*
X182950244Y-130767000D01*
X182762516Y-130798594D01*
X182425897Y-130809221D01*
X182202667Y-130810000D01*
X181356000Y-130810000D01*
X181356000Y-131233333D01*
X181338250Y-131510293D01*
X181266507Y-131632698D01*
X181144334Y-131656666D01*
X181038872Y-131674342D01*
X180975667Y-131755756D01*
X180944073Y-131943484D01*
X180933446Y-132280103D01*
X180932667Y-132503333D01*
X180928248Y-132925179D01*
X180907895Y-133178001D01*
X180860963Y-133304377D01*
X180776808Y-133346884D01*
X180721000Y-133350000D01*
X180544120Y-133424835D01*
X180509334Y-133561666D01*
X180544834Y-133700146D01*
X180688320Y-133761349D01*
X180932667Y-133773333D01*
X181209627Y-133791083D01*
X181332033Y-133862826D01*
X181356000Y-133985000D01*
X181320500Y-134123480D01*
X181177014Y-134184682D01*
X180932667Y-134196666D01*
X180655707Y-134178916D01*
X180533302Y-134107173D01*
X180509334Y-133985000D01*
X180434498Y-133808119D01*
X180297667Y-133773333D01*
X180120787Y-133698497D01*
X180086000Y-133561666D01*
X180160836Y-133384786D01*
X180297667Y-133350000D01*
X180436147Y-133314499D01*
X180497350Y-133171013D01*
X180509334Y-132926666D01*
X180491584Y-132649706D01*
X180419841Y-132527301D01*
X180297667Y-132503333D01*
X180120787Y-132578168D01*
X180086000Y-132715000D01*
X180011165Y-132891880D01*
X179874334Y-132926666D01*
X179735854Y-132891166D01*
X179674651Y-132747680D01*
X179662667Y-132503333D01*
X179680417Y-132226373D01*
X179752160Y-132103967D01*
X179874334Y-132080000D01*
X180051214Y-132005164D01*
X180086000Y-131868333D01*
X180160836Y-131691453D01*
X180297667Y-131656666D01*
X180474547Y-131581831D01*
X180509334Y-131445000D01*
X180434498Y-131268119D01*
X180297667Y-131233333D01*
X180120787Y-131158497D01*
X180086000Y-131021666D01*
X180011165Y-130844786D01*
X179874334Y-130810000D01*
X179697454Y-130735164D01*
X179662667Y-130598333D01*
X179737503Y-130421453D01*
X179874334Y-130386666D01*
X180051214Y-130311831D01*
X180086000Y-130175000D01*
X180011165Y-129998119D01*
X179874334Y-129963333D01*
X179697454Y-129888497D01*
X179662667Y-129751666D01*
X179737503Y-129574786D01*
X179874334Y-129540000D01*
X179992554Y-129516830D01*
X180056434Y-129415050D01*
X180082109Y-129186253D01*
X180086000Y-128905000D01*
X180093724Y-128550339D01*
X180127650Y-128358699D01*
X180203916Y-128281674D01*
X180297667Y-128270000D01*
X180474547Y-128195164D01*
X180509334Y-128058333D01*
X180434498Y-127881453D01*
X180297667Y-127846666D01*
X180120787Y-127771831D01*
X180086000Y-127635000D01*
X180011165Y-127458119D01*
X179874334Y-127423333D01*
X179697454Y-127348497D01*
X179662667Y-127211666D01*
X179698167Y-127073186D01*
X179841654Y-127011983D01*
X180086000Y-127000000D01*
X180509334Y-127000000D01*
X180509334Y-127423333D01*
X180527084Y-127700293D01*
X180598827Y-127822698D01*
X180721000Y-127846666D01*
X180859481Y-127882166D01*
X180920683Y-128025653D01*
X180932667Y-128270000D01*
X180932667Y-128693333D01*
X183472667Y-128693333D01*
X183472667Y-129116666D01*
X183490417Y-129393626D01*
X183562160Y-129516032D01*
X183684334Y-129540000D01*
X183861214Y-129614835D01*
X183896000Y-129751666D01*
X184299498Y-129751666D01*
X184315442Y-129609586D01*
X184319334Y-129328333D01*
X184319334Y-128693333D01*
X183896000Y-128693333D01*
X183619040Y-128675583D01*
X183496635Y-128603840D01*
X183472667Y-128481666D01*
X183547503Y-128304786D01*
X183684334Y-128270000D01*
X183822814Y-128234499D01*
X183884017Y-128091013D01*
X183896000Y-127846666D01*
X183913751Y-127569706D01*
X183985494Y-127447301D01*
X184107667Y-127423333D01*
X184284547Y-127348497D01*
X184319334Y-127211666D01*
X183896000Y-127211666D01*
X183821165Y-127388546D01*
X183684334Y-127423333D01*
X183507454Y-127498168D01*
X183472667Y-127635000D01*
X183437167Y-127773480D01*
X183293681Y-127834682D01*
X183049334Y-127846666D01*
X182772374Y-127864416D01*
X182649968Y-127936159D01*
X182626000Y-128058333D01*
X182590500Y-128196813D01*
X182447014Y-128258016D01*
X182202667Y-128270000D01*
X181925707Y-128252249D01*
X181803302Y-128180506D01*
X181779334Y-128058333D01*
X181854169Y-127881453D01*
X181991000Y-127846666D01*
X182167881Y-127771831D01*
X182202667Y-127635000D01*
X182238167Y-127496519D01*
X182381654Y-127435317D01*
X182626000Y-127423333D01*
X183049334Y-127423333D01*
X183049334Y-127000000D01*
X183062899Y-126788333D01*
X181356000Y-126788333D01*
X181281165Y-126965213D01*
X181144334Y-127000000D01*
X180967454Y-126925164D01*
X180932667Y-126788333D01*
X180897167Y-126649853D01*
X180753681Y-126588650D01*
X180509334Y-126576666D01*
X180232374Y-126558916D01*
X180109968Y-126487173D01*
X180086000Y-126365000D01*
X180011165Y-126188119D01*
X179874334Y-126153333D01*
X179697454Y-126078497D01*
X179662667Y-125941666D01*
X179737503Y-125764786D01*
X179874334Y-125730000D01*
X180051214Y-125655164D01*
X180086000Y-125518333D01*
X180160836Y-125341453D01*
X180297667Y-125306666D01*
X180474547Y-125381502D01*
X180509334Y-125518333D01*
X180584169Y-125695213D01*
X180721000Y-125730000D01*
X180859481Y-125765500D01*
X180920683Y-125908986D01*
X180932667Y-126153333D01*
X180950417Y-126430293D01*
X181022160Y-126552698D01*
X181144334Y-126576666D01*
X181321214Y-126651502D01*
X181356000Y-126788333D01*
X183062899Y-126788333D01*
X183067084Y-126723039D01*
X183138827Y-126600634D01*
X183261000Y-126576666D01*
X183437881Y-126651502D01*
X183472667Y-126788333D01*
X183547503Y-126965213D01*
X183684334Y-127000000D01*
X183861214Y-127074835D01*
X183896000Y-127211666D01*
X184319334Y-127211666D01*
X184244498Y-127034786D01*
X184107667Y-127000000D01*
X183930787Y-126925164D01*
X183896000Y-126788333D01*
X183910526Y-126691995D01*
X183979642Y-126630324D01*
X184141662Y-126595656D01*
X184434895Y-126580330D01*
X184897654Y-126576683D01*
X184954334Y-126576666D01*
X185436021Y-126573761D01*
X185744378Y-126559938D01*
X185917717Y-126527534D01*
X185994347Y-126468887D01*
X186012581Y-126376336D01*
X186012667Y-126365000D01*
X185937832Y-126188119D01*
X185801000Y-126153333D01*
X185624120Y-126078497D01*
X185589334Y-125941666D01*
X185624834Y-125803186D01*
X185768320Y-125741983D01*
X186012667Y-125730000D01*
X186436000Y-125730000D01*
X186436000Y-126153333D01*
X186453751Y-126430293D01*
X186525494Y-126552698D01*
X186647667Y-126576666D01*
X186824547Y-126651502D01*
X186859334Y-126788333D01*
X186784498Y-126965213D01*
X186647667Y-127000000D01*
X186509187Y-127035500D01*
X186447984Y-127178986D01*
X186436000Y-127423333D01*
X186436000Y-127846666D01*
X185589334Y-127846666D01*
X185589334Y-128693333D01*
X185584915Y-129115179D01*
X185564561Y-129368001D01*
X185517629Y-129494377D01*
X185433475Y-129536884D01*
X185377667Y-129540000D01*
X185239187Y-129575500D01*
X185177984Y-129718986D01*
X185166000Y-129963333D01*
X185166000Y-130386666D01*
X186012667Y-130386666D01*
X186012667Y-129116666D01*
X186436000Y-129116666D01*
X186712961Y-129134416D01*
X186835366Y-129206159D01*
X186859334Y-129328333D01*
X186894834Y-129466813D01*
X187038320Y-129528016D01*
X187282667Y-129540000D01*
X187559627Y-129557750D01*
X187682033Y-129629493D01*
X187706000Y-129751666D01*
X187631165Y-129928546D01*
X187494334Y-129963333D01*
X187355854Y-129998833D01*
X187294651Y-130142319D01*
X187282667Y-130386666D01*
X187300417Y-130663626D01*
X187372160Y-130786032D01*
X187494334Y-130810000D01*
X187671214Y-130735164D01*
X187706000Y-130598333D01*
X187780836Y-130421453D01*
X187917667Y-130386666D01*
X188094547Y-130461502D01*
X188129334Y-130598333D01*
X188204169Y-130775213D01*
X188341000Y-130810000D01*
X188517881Y-130884835D01*
X188552667Y-131021666D01*
X188477832Y-131198546D01*
X188341000Y-131233333D01*
X188202520Y-131268833D01*
X188141318Y-131412319D01*
X188129334Y-131656666D01*
X188147084Y-131933626D01*
X188218827Y-132056032D01*
X188341000Y-132080000D01*
X188517881Y-132154835D01*
X188552667Y-132291666D01*
X188627503Y-132468546D01*
X188764334Y-132503333D01*
X188941214Y-132428497D01*
X188976000Y-132291666D01*
X188901165Y-132114786D01*
X188764334Y-132080000D01*
X188625854Y-132044499D01*
X188564651Y-131901013D01*
X188552667Y-131656666D01*
X188570417Y-131379706D01*
X188642160Y-131257301D01*
X188764334Y-131233333D01*
X188941214Y-131308168D01*
X188976000Y-131445000D01*
X189011501Y-131583480D01*
X189154987Y-131644682D01*
X189399334Y-131656666D01*
X189822667Y-131656666D01*
X189822667Y-130810000D01*
X189187667Y-130810000D01*
X188833007Y-130802276D01*
X188641367Y-130768350D01*
X188564341Y-130692084D01*
X188552667Y-130598333D01*
X188588167Y-130459853D01*
X188731654Y-130398650D01*
X188976000Y-130386666D01*
X189252961Y-130368916D01*
X189375366Y-130297173D01*
X189399334Y-130175000D01*
X188552667Y-130175000D01*
X188477832Y-130351880D01*
X188341000Y-130386666D01*
X188164120Y-130311831D01*
X188129334Y-130175000D01*
X188204169Y-129998119D01*
X188341000Y-129963333D01*
X188517881Y-130038168D01*
X188552667Y-130175000D01*
X189399334Y-130175000D01*
X189434834Y-130036519D01*
X189578320Y-129975317D01*
X189822667Y-129963333D01*
X190099627Y-129945583D01*
X190222033Y-129873840D01*
X190246000Y-129751666D01*
X190210500Y-129613186D01*
X190067014Y-129551983D01*
X189822667Y-129540000D01*
X189545707Y-129522249D01*
X189423302Y-129450506D01*
X189399334Y-129328333D01*
X189324498Y-129151453D01*
X189187667Y-129116666D01*
X189010787Y-129041831D01*
X188976000Y-128905000D01*
X189050836Y-128728119D01*
X189187667Y-128693333D01*
X189326147Y-128657833D01*
X189387350Y-128514346D01*
X189399334Y-128270000D01*
X189399334Y-127846666D01*
X188764334Y-127846666D01*
X188409673Y-127854389D01*
X188218034Y-127888316D01*
X188141008Y-127964582D01*
X188129334Y-128058333D01*
X188204169Y-128235213D01*
X188341000Y-128270000D01*
X188459221Y-128293169D01*
X188523101Y-128394949D01*
X188548776Y-128623746D01*
X188552667Y-128905000D01*
X188552667Y-129540000D01*
X188129334Y-129540000D01*
X187852374Y-129522249D01*
X187729968Y-129450506D01*
X187706000Y-129328333D01*
X187670500Y-129189853D01*
X187527014Y-129128650D01*
X187282667Y-129116666D01*
X186859334Y-129116666D01*
X186859334Y-128481666D01*
X186436000Y-128481666D01*
X186361165Y-128658546D01*
X186224334Y-128693333D01*
X186047454Y-128618497D01*
X186012667Y-128481666D01*
X186087503Y-128304786D01*
X186224334Y-128270000D01*
X186401214Y-128344835D01*
X186436000Y-128481666D01*
X186859334Y-128481666D01*
X186859334Y-128270000D01*
X187282667Y-128270000D01*
X187559627Y-128252249D01*
X187682033Y-128180506D01*
X187706000Y-128058333D01*
X187670500Y-127919853D01*
X187527014Y-127858650D01*
X187282667Y-127846666D01*
X186859334Y-127846666D01*
X186859334Y-127423333D01*
X186877084Y-127146373D01*
X186948827Y-127023967D01*
X187071000Y-127000000D01*
X187247881Y-127074835D01*
X187282667Y-127211666D01*
X187357503Y-127388546D01*
X187494334Y-127423333D01*
X187671214Y-127348497D01*
X187706000Y-127211666D01*
X187631165Y-127034786D01*
X187494334Y-127000000D01*
X187317454Y-126925164D01*
X187282667Y-126788333D01*
X187318167Y-126649853D01*
X187461654Y-126588650D01*
X187706000Y-126576666D01*
X187982961Y-126558916D01*
X188105366Y-126487173D01*
X188129334Y-126365000D01*
X188054498Y-126188119D01*
X187917667Y-126153333D01*
X187740787Y-126078497D01*
X187706000Y-125941666D01*
X187780836Y-125764786D01*
X187917667Y-125730000D01*
X188094547Y-125655164D01*
X188129334Y-125518333D01*
X188054498Y-125341453D01*
X187917667Y-125306666D01*
X187740787Y-125381502D01*
X187706000Y-125518333D01*
X187631165Y-125695213D01*
X187494334Y-125730000D01*
X187317454Y-125804835D01*
X187282667Y-125941666D01*
X187207832Y-126118546D01*
X187071000Y-126153333D01*
X186894120Y-126078497D01*
X186859334Y-125941666D01*
X186784498Y-125764786D01*
X186647667Y-125730000D01*
X186529447Y-125706830D01*
X186465567Y-125605050D01*
X186439892Y-125376253D01*
X186436000Y-125095000D01*
X186012667Y-125095000D01*
X185937832Y-125271880D01*
X185801000Y-125306666D01*
X185624120Y-125381502D01*
X185589334Y-125518333D01*
X185553834Y-125656813D01*
X185410347Y-125718016D01*
X185166000Y-125730000D01*
X184742667Y-125730000D01*
X184742667Y-125306666D01*
X184760417Y-125029706D01*
X184832160Y-124907301D01*
X184954334Y-124883333D01*
X185131214Y-124958168D01*
X185166000Y-125095000D01*
X185240836Y-125271880D01*
X185377667Y-125306666D01*
X185554547Y-125231831D01*
X185589334Y-125095000D01*
X185664169Y-124918119D01*
X185801000Y-124883333D01*
X185977881Y-124958168D01*
X186012667Y-125095000D01*
X186436000Y-125095000D01*
X186436000Y-124460000D01*
X185589334Y-124460000D01*
X185167488Y-124464419D01*
X184914666Y-124484772D01*
X184788290Y-124531704D01*
X184745783Y-124615859D01*
X184742667Y-124671666D01*
X184667832Y-124848546D01*
X184531000Y-124883333D01*
X184354120Y-124808497D01*
X184319334Y-124671666D01*
X184244498Y-124494786D01*
X184107667Y-124460000D01*
X183969187Y-124495500D01*
X183907984Y-124638986D01*
X183896000Y-124883333D01*
X183913751Y-125160293D01*
X183985494Y-125282698D01*
X184107667Y-125306666D01*
X184246147Y-125342166D01*
X184307350Y-125485653D01*
X184319334Y-125730000D01*
X184319334Y-126153333D01*
X183684334Y-126153333D01*
X183329673Y-126161056D01*
X183138034Y-126194983D01*
X183061008Y-126271248D01*
X183049334Y-126365000D01*
X183013834Y-126503480D01*
X182870347Y-126564682D01*
X182626000Y-126576666D01*
X182349040Y-126558916D01*
X182226635Y-126487173D01*
X182202667Y-126365000D01*
X182127832Y-126188119D01*
X181991000Y-126153333D01*
X181814120Y-126228168D01*
X181779334Y-126365000D01*
X181704498Y-126541880D01*
X181567667Y-126576666D01*
X181429187Y-126541166D01*
X181367984Y-126397680D01*
X181356000Y-126153333D01*
X181356000Y-125730000D01*
X181779334Y-125730000D01*
X182056294Y-125712249D01*
X182178699Y-125640506D01*
X182202667Y-125518333D01*
X182277503Y-125341453D01*
X182414334Y-125306666D01*
X182591214Y-125381502D01*
X182626000Y-125518333D01*
X182661501Y-125656813D01*
X182804987Y-125718016D01*
X183049334Y-125730000D01*
X183326294Y-125712249D01*
X183448699Y-125640506D01*
X183472667Y-125518333D01*
X183437167Y-125379853D01*
X183293681Y-125318650D01*
X183049334Y-125306666D01*
X182772374Y-125288916D01*
X182649968Y-125217173D01*
X182626000Y-125095000D01*
X182590500Y-124956519D01*
X182447014Y-124895317D01*
X182202667Y-124883333D01*
X181925707Y-124901083D01*
X181803302Y-124972826D01*
X181779334Y-125095000D01*
X181704498Y-125271880D01*
X181567667Y-125306666D01*
X181390787Y-125231831D01*
X181356000Y-125095000D01*
X181281165Y-124918119D01*
X181144334Y-124883333D01*
X181005854Y-124847833D01*
X180944651Y-124704346D01*
X180932667Y-124460000D01*
X180950417Y-124183039D01*
X181022160Y-124060634D01*
X181144334Y-124036666D01*
X181321214Y-124111502D01*
X181356000Y-124248333D01*
X181391501Y-124386813D01*
X181534987Y-124448016D01*
X181779334Y-124460000D01*
X182056294Y-124442249D01*
X182178699Y-124370506D01*
X182202667Y-124248333D01*
X182277503Y-124071453D01*
X182414334Y-124036666D01*
X182591214Y-124111502D01*
X182626000Y-124248333D01*
X182700836Y-124425213D01*
X182837667Y-124460000D01*
X183014547Y-124534835D01*
X183049334Y-124671666D01*
X183124169Y-124848546D01*
X183261000Y-124883333D01*
X183437881Y-124808497D01*
X183472667Y-124671666D01*
X183397832Y-124494786D01*
X183261000Y-124460000D01*
X183084120Y-124385164D01*
X183049334Y-124248333D01*
X183124169Y-124071453D01*
X183261000Y-124036666D01*
X183437881Y-123961831D01*
X183472667Y-123825000D01*
X183547503Y-123648119D01*
X183684334Y-123613333D01*
X183861214Y-123538497D01*
X183896000Y-123401666D01*
X183970836Y-123224786D01*
X184107667Y-123190000D01*
X184246147Y-123225500D01*
X184307350Y-123368986D01*
X184319334Y-123613333D01*
X184337084Y-123890293D01*
X184408827Y-124012698D01*
X184531000Y-124036666D01*
X184636462Y-124018990D01*
X184699668Y-123937577D01*
X184731262Y-123749849D01*
X184741888Y-123413230D01*
X184742667Y-123190000D01*
X184747086Y-122768154D01*
X184767440Y-122515331D01*
X184814372Y-122388955D01*
X184898526Y-122346448D01*
X184954334Y-122343333D01*
X185092814Y-122378833D01*
X185154017Y-122522319D01*
X185166000Y-122766666D01*
X185183751Y-123043626D01*
X185255494Y-123166032D01*
X185377667Y-123190000D01*
X185516147Y-123225500D01*
X185577350Y-123368986D01*
X185589334Y-123613333D01*
X185589334Y-124036666D01*
X186859334Y-124036666D01*
X186859334Y-123613333D01*
X186872899Y-123401666D01*
X186436000Y-123401666D01*
X186361165Y-123578546D01*
X186224334Y-123613333D01*
X186047454Y-123538497D01*
X186012667Y-123401666D01*
X186087503Y-123224786D01*
X186224334Y-123190000D01*
X186401214Y-123264835D01*
X186436000Y-123401666D01*
X186872899Y-123401666D01*
X186877084Y-123336373D01*
X186948827Y-123213967D01*
X187071000Y-123190000D01*
X187176462Y-123207676D01*
X187239668Y-123289089D01*
X187271262Y-123476817D01*
X187281888Y-123813436D01*
X187282667Y-124036666D01*
X187287086Y-124458512D01*
X187307440Y-124711334D01*
X187354372Y-124837710D01*
X187438526Y-124880217D01*
X187494334Y-124883333D01*
X187632814Y-124847833D01*
X187694017Y-124704346D01*
X187706000Y-124460000D01*
X187706000Y-124036666D01*
X188552667Y-124036666D01*
X188552667Y-125306666D01*
X188976000Y-125306666D01*
X189252961Y-125288916D01*
X189375366Y-125217173D01*
X189399334Y-125095000D01*
X189474169Y-124918119D01*
X189611000Y-124883333D01*
X189716462Y-124865657D01*
X189779668Y-124784243D01*
X189798614Y-124671666D01*
X189399334Y-124671666D01*
X189324498Y-124848546D01*
X189187667Y-124883333D01*
X189010787Y-124808497D01*
X188976000Y-124671666D01*
X189050836Y-124494786D01*
X189187667Y-124460000D01*
X189364547Y-124534835D01*
X189399334Y-124671666D01*
X189798614Y-124671666D01*
X189811262Y-124596515D01*
X189821888Y-124259896D01*
X189822667Y-124036666D01*
X189827086Y-123614820D01*
X189847440Y-123361998D01*
X189894372Y-123235622D01*
X189978526Y-123193115D01*
X190034334Y-123190000D01*
X190211214Y-123264835D01*
X190246000Y-123401666D01*
X190320836Y-123578546D01*
X190457667Y-123613333D01*
X190634547Y-123688168D01*
X190669334Y-123825000D01*
X190594498Y-124001880D01*
X190457667Y-124036666D01*
X190280787Y-124111502D01*
X190246000Y-124248333D01*
X190320836Y-124425213D01*
X190457667Y-124460000D01*
X190634547Y-124534835D01*
X190669334Y-124671666D01*
X190744169Y-124848546D01*
X190881000Y-124883333D01*
X191019481Y-124918833D01*
X191080683Y-125062319D01*
X191092667Y-125306666D01*
X191074917Y-125583626D01*
X191003174Y-125706032D01*
X190881000Y-125730000D01*
X190704120Y-125804835D01*
X190669334Y-125941666D01*
X190633834Y-126080146D01*
X190490347Y-126141349D01*
X190246000Y-126153333D01*
X189969040Y-126171083D01*
X189846635Y-126242826D01*
X189822667Y-126365000D01*
X189747832Y-126541880D01*
X189611000Y-126576666D01*
X189434120Y-126651502D01*
X189399334Y-126788333D01*
X189474169Y-126965213D01*
X189611000Y-127000000D01*
X189787881Y-126925164D01*
X189822667Y-126788333D01*
X189840343Y-126682871D01*
X189921757Y-126619666D01*
X190109485Y-126588072D01*
X190446104Y-126577445D01*
X190669334Y-126576666D01*
X191516000Y-126576666D01*
X191516000Y-127211666D01*
X191508277Y-127566327D01*
X191474351Y-127757966D01*
X191398085Y-127834992D01*
X191304334Y-127846666D01*
X191165854Y-127882166D01*
X191104651Y-128025653D01*
X191092667Y-128270000D01*
X191074917Y-128546960D01*
X191003174Y-128669365D01*
X190881000Y-128693333D01*
X190775539Y-128675657D01*
X190712333Y-128594243D01*
X190680739Y-128406515D01*
X190670113Y-128069896D01*
X190669334Y-127846666D01*
X190664915Y-127424820D01*
X190644561Y-127171998D01*
X190597629Y-127045622D01*
X190513475Y-127003115D01*
X190457667Y-127000000D01*
X190339447Y-127023169D01*
X190275567Y-127124949D01*
X190249892Y-127353746D01*
X190246000Y-127635000D01*
X190238277Y-127989660D01*
X190204351Y-128181300D01*
X190128085Y-128258325D01*
X190034334Y-128270000D01*
X189857454Y-128344835D01*
X189822667Y-128481666D01*
X189897503Y-128658546D01*
X190034334Y-128693333D01*
X190211214Y-128768168D01*
X190246000Y-128905000D01*
X190269170Y-129023220D01*
X190370950Y-129087100D01*
X190599747Y-129112775D01*
X190881000Y-129116666D01*
X191516000Y-129116666D01*
X191516000Y-129963333D01*
X190669334Y-129963333D01*
X190669334Y-130386666D01*
X190687084Y-130663626D01*
X190758827Y-130786032D01*
X190881000Y-130810000D01*
X191057881Y-130884835D01*
X191092667Y-131021666D01*
X191057167Y-131160146D01*
X190913681Y-131221349D01*
X190669334Y-131233333D01*
X190392374Y-131251083D01*
X190269968Y-131322826D01*
X190246000Y-131445000D01*
X190281501Y-131583480D01*
X190424987Y-131644682D01*
X190669334Y-131656666D01*
X190946294Y-131674416D01*
X191068699Y-131746159D01*
X191092667Y-131868333D01*
X191017832Y-132045213D01*
X190881000Y-132080000D01*
X190742520Y-132115500D01*
X190681318Y-132258986D01*
X190669334Y-132503333D01*
X190669334Y-132926666D01*
X189822667Y-132926666D01*
X189822667Y-132503333D01*
X189804917Y-132226373D01*
X189733174Y-132103967D01*
X189611000Y-132080000D01*
X189472520Y-132115500D01*
X189411318Y-132258986D01*
X189399334Y-132503333D01*
X189381584Y-132780293D01*
X189309841Y-132902698D01*
X189187667Y-132926666D01*
X189010787Y-133001502D01*
X188976000Y-133138333D01*
X188901165Y-133315213D01*
X188764334Y-133350000D01*
X188587454Y-133275164D01*
X188552667Y-133138333D01*
X188477832Y-132961453D01*
X188341000Y-132926666D01*
X188202520Y-132962166D01*
X188141318Y-133105653D01*
X188129334Y-133350000D01*
X188129334Y-133773333D01*
X187282667Y-133773333D01*
X187282667Y-134408333D01*
X187290390Y-134762993D01*
X187324317Y-134954633D01*
X187400583Y-135031659D01*
X187494334Y-135043333D01*
X187671214Y-135118168D01*
X187706000Y-135255000D01*
X187780836Y-135431880D01*
X187917667Y-135466666D01*
X188056147Y-135431166D01*
X188117350Y-135287680D01*
X188129334Y-135043333D01*
X188147084Y-134766373D01*
X188218827Y-134643967D01*
X188341000Y-134620000D01*
X188479481Y-134655500D01*
X188540683Y-134798986D01*
X188552667Y-135043333D01*
X188570417Y-135320293D01*
X188642160Y-135442698D01*
X188764334Y-135466666D01*
X188860671Y-135452141D01*
X188922343Y-135383024D01*
X188957010Y-135221005D01*
X188972336Y-134927772D01*
X188975983Y-134465013D01*
X188976000Y-134408333D01*
X188978553Y-133985000D01*
X188552667Y-133985000D01*
X188477832Y-134161880D01*
X188341000Y-134196666D01*
X188164120Y-134121831D01*
X188129334Y-133985000D01*
X188204169Y-133808119D01*
X188341000Y-133773333D01*
X188517881Y-133848168D01*
X188552667Y-133985000D01*
X188978553Y-133985000D01*
X188978906Y-133926645D01*
X188992729Y-133618288D01*
X189025133Y-133444950D01*
X189083779Y-133368320D01*
X189176331Y-133350086D01*
X189187667Y-133350000D01*
X189364547Y-133275164D01*
X189399334Y-133138333D01*
X189474169Y-132961453D01*
X189611000Y-132926666D01*
X189749481Y-132962166D01*
X189810683Y-133105653D01*
X189822667Y-133350000D01*
X189840417Y-133626960D01*
X189912160Y-133749365D01*
X190034334Y-133773333D01*
X190211214Y-133848168D01*
X190246000Y-133985000D01*
X190320836Y-134161880D01*
X190457667Y-134196666D01*
X190575887Y-134219836D01*
X190639767Y-134321616D01*
X190665442Y-134550413D01*
X190669334Y-134831666D01*
X190677057Y-135186327D01*
X190710984Y-135377966D01*
X190787249Y-135454992D01*
X190881000Y-135466666D01*
X191057881Y-135391831D01*
X191092667Y-135255000D01*
X191167503Y-135078119D01*
X191304334Y-135043333D01*
X191481214Y-134968497D01*
X191516000Y-134831666D01*
X191441165Y-134654786D01*
X191304334Y-134620000D01*
X191127454Y-134545164D01*
X191092667Y-134408333D01*
X191167503Y-134231453D01*
X191304334Y-134196666D01*
X191481214Y-134121831D01*
X191516000Y-133985000D01*
X191092667Y-133985000D01*
X191017832Y-134161880D01*
X190881000Y-134196666D01*
X190704120Y-134121831D01*
X190669334Y-133985000D01*
X190594498Y-133808119D01*
X190457667Y-133773333D01*
X190280787Y-133698497D01*
X190246000Y-133561666D01*
X190320836Y-133384786D01*
X190457667Y-133350000D01*
X190634547Y-133424835D01*
X190669334Y-133561666D01*
X190744169Y-133738546D01*
X190881000Y-133773333D01*
X191057881Y-133848168D01*
X191092667Y-133985000D01*
X191516000Y-133985000D01*
X191441165Y-133808119D01*
X191304334Y-133773333D01*
X191127454Y-133698497D01*
X191092667Y-133561666D01*
X191167503Y-133384786D01*
X191304334Y-133350000D01*
X191393684Y-133337539D01*
X191453605Y-133276774D01*
X191489942Y-133132628D01*
X191508541Y-132870025D01*
X191515248Y-132453888D01*
X191516000Y-132080000D01*
X191518077Y-131543897D01*
X191528205Y-131184373D01*
X191552229Y-130966352D01*
X191595996Y-130854757D01*
X191665352Y-130814513D01*
X191727667Y-130810000D01*
X191904547Y-130884835D01*
X191939334Y-131021666D01*
X192014169Y-131198546D01*
X192151000Y-131233333D01*
X192327881Y-131308168D01*
X192362667Y-131445000D01*
X192287832Y-131621880D01*
X192151000Y-131656666D01*
X191974120Y-131731502D01*
X191939334Y-131868333D01*
X192014169Y-132045213D01*
X192151000Y-132080000D01*
X192327881Y-132005164D01*
X192362667Y-131868333D01*
X192437503Y-131691453D01*
X192574334Y-131656666D01*
X192751214Y-131731502D01*
X192786000Y-131868333D01*
X192809170Y-131986553D01*
X192910950Y-132050433D01*
X193139747Y-132076108D01*
X193421000Y-132080000D01*
X193775661Y-132072276D01*
X193967301Y-132038350D01*
X194044326Y-131962084D01*
X194056000Y-131868333D01*
X193981165Y-131691453D01*
X193844334Y-131656666D01*
X193667454Y-131581831D01*
X193632667Y-131445000D01*
X193668167Y-131306519D01*
X193811654Y-131245317D01*
X194056000Y-131233333D01*
X194332961Y-131251083D01*
X194455366Y-131322826D01*
X194479334Y-131445000D01*
X194554169Y-131621880D01*
X194691000Y-131656666D01*
X194867881Y-131581831D01*
X194902667Y-131445000D01*
X194827832Y-131268119D01*
X194691000Y-131233333D01*
X194514120Y-131158497D01*
X194479334Y-131021666D01*
X194554169Y-130844786D01*
X194691000Y-130810000D01*
X194829481Y-130774499D01*
X194890683Y-130631013D01*
X194902667Y-130386666D01*
X194884917Y-130109706D01*
X194813174Y-129987301D01*
X194691000Y-129963333D01*
X194552520Y-129998833D01*
X194491318Y-130142319D01*
X194479334Y-130386666D01*
X194479334Y-130810000D01*
X194056000Y-130810000D01*
X193779040Y-130827750D01*
X193656635Y-130899493D01*
X193632667Y-131021666D01*
X193557832Y-131198546D01*
X193421000Y-131233333D01*
X193282520Y-131197833D01*
X193221318Y-131054346D01*
X193209334Y-130810000D01*
X193209334Y-130386666D01*
X192786000Y-130386666D01*
X192786000Y-130810000D01*
X192362667Y-130810000D01*
X192085707Y-130792249D01*
X191963302Y-130720506D01*
X191939334Y-130598333D01*
X191516000Y-130598333D01*
X191441165Y-130775213D01*
X191304334Y-130810000D01*
X191127454Y-130735164D01*
X191092667Y-130598333D01*
X191167503Y-130421453D01*
X191304334Y-130386666D01*
X191481214Y-130461502D01*
X191516000Y-130598333D01*
X191939334Y-130598333D01*
X192014169Y-130421453D01*
X192151000Y-130386666D01*
X192327881Y-130311831D01*
X192362667Y-130175000D01*
X192287832Y-129998119D01*
X192151000Y-129963333D01*
X191974120Y-129888497D01*
X191939334Y-129751666D01*
X192014169Y-129574786D01*
X192151000Y-129540000D01*
X192327881Y-129614835D01*
X192362667Y-129751666D01*
X192437503Y-129928546D01*
X192574334Y-129963333D01*
X192712814Y-129998833D01*
X192774017Y-130142319D01*
X192786000Y-130386666D01*
X193209334Y-130386666D01*
X194056000Y-130386666D01*
X194056000Y-129540000D01*
X194479334Y-129540000D01*
X194756294Y-129522249D01*
X194878699Y-129450506D01*
X194902667Y-129328333D01*
X194056000Y-129328333D01*
X193981165Y-129505213D01*
X193844334Y-129540000D01*
X193667454Y-129614835D01*
X193632667Y-129751666D01*
X193557832Y-129928546D01*
X193421000Y-129963333D01*
X193244120Y-129888497D01*
X193209334Y-129751666D01*
X193134498Y-129574786D01*
X192997667Y-129540000D01*
X192820787Y-129465164D01*
X192786000Y-129328333D01*
X192860836Y-129151453D01*
X192997667Y-129116666D01*
X193174547Y-129041831D01*
X193209334Y-128905000D01*
X192362667Y-128905000D01*
X192327167Y-129043480D01*
X192183681Y-129104682D01*
X191939334Y-129116666D01*
X191662374Y-129098916D01*
X191539968Y-129027173D01*
X191516000Y-128905000D01*
X191551501Y-128766519D01*
X191694987Y-128705317D01*
X191939334Y-128693333D01*
X192216294Y-128711083D01*
X192338699Y-128782826D01*
X192362667Y-128905000D01*
X193209334Y-128905000D01*
X193284169Y-128728119D01*
X193421000Y-128693333D01*
X193597881Y-128768168D01*
X193632667Y-128905000D01*
X193707503Y-129081880D01*
X193844334Y-129116666D01*
X194021214Y-129191502D01*
X194056000Y-129328333D01*
X194902667Y-129328333D01*
X194867167Y-129189853D01*
X194723681Y-129128650D01*
X194479334Y-129116666D01*
X194202374Y-129098916D01*
X194079968Y-129027173D01*
X194056000Y-128905000D01*
X193981165Y-128728119D01*
X193844334Y-128693333D01*
X193705854Y-128657833D01*
X193644651Y-128514346D01*
X193632667Y-128270000D01*
X193646232Y-128058333D01*
X192786000Y-128058333D01*
X192750500Y-128196813D01*
X192607014Y-128258016D01*
X192362667Y-128270000D01*
X192085707Y-128252249D01*
X191963302Y-128180506D01*
X191939334Y-128058333D01*
X191974834Y-127919853D01*
X192118320Y-127858650D01*
X192362667Y-127846666D01*
X192639627Y-127864416D01*
X192762033Y-127936159D01*
X192786000Y-128058333D01*
X193646232Y-128058333D01*
X193650417Y-127993039D01*
X193722160Y-127870634D01*
X193844334Y-127846666D01*
X194021214Y-127921502D01*
X194056000Y-128058333D01*
X194130836Y-128235213D01*
X194267667Y-128270000D01*
X194444547Y-128344835D01*
X194479334Y-128481666D01*
X194554169Y-128658546D01*
X194691000Y-128693333D01*
X194867881Y-128618497D01*
X194902667Y-128481666D01*
X194827832Y-128304786D01*
X194691000Y-128270000D01*
X194514120Y-128195164D01*
X194479334Y-128058333D01*
X194554169Y-127881453D01*
X194691000Y-127846666D01*
X194829481Y-127811166D01*
X194890683Y-127667680D01*
X194902667Y-127423333D01*
X194479334Y-127423333D01*
X194461584Y-127700293D01*
X194389841Y-127822698D01*
X194267667Y-127846666D01*
X194129187Y-127811166D01*
X194067984Y-127667680D01*
X194056000Y-127423333D01*
X194069566Y-127211666D01*
X192362667Y-127211666D01*
X192287832Y-127388546D01*
X192151000Y-127423333D01*
X191974120Y-127348497D01*
X191939334Y-127211666D01*
X192014169Y-127034786D01*
X192151000Y-127000000D01*
X192327881Y-127074835D01*
X192362667Y-127211666D01*
X194069566Y-127211666D01*
X194073751Y-127146373D01*
X194145494Y-127023967D01*
X194267667Y-127000000D01*
X194406147Y-127035500D01*
X194467350Y-127178986D01*
X194479334Y-127423333D01*
X194902667Y-127423333D01*
X194884917Y-127146373D01*
X194813174Y-127023967D01*
X194691000Y-127000000D01*
X194514120Y-126925164D01*
X194479334Y-126788333D01*
X194554169Y-126611453D01*
X194691000Y-126576666D01*
X194809221Y-126553496D01*
X194873101Y-126451716D01*
X194898776Y-126222919D01*
X194902667Y-125941666D01*
X194894944Y-125587006D01*
X194882787Y-125518333D01*
X194479334Y-125518333D01*
X194404498Y-125695213D01*
X194267667Y-125730000D01*
X194129187Y-125765500D01*
X194067984Y-125908986D01*
X194056000Y-126153333D01*
X194038250Y-126430293D01*
X193966507Y-126552698D01*
X193844334Y-126576666D01*
X193667454Y-126651502D01*
X193632667Y-126788333D01*
X193597167Y-126926813D01*
X193453681Y-126988016D01*
X193209334Y-127000000D01*
X192786000Y-127000000D01*
X192786000Y-126365000D01*
X192362667Y-126365000D01*
X192327167Y-126503480D01*
X192183681Y-126564682D01*
X191939334Y-126576666D01*
X191662374Y-126558916D01*
X191539968Y-126487173D01*
X191516000Y-126365000D01*
X191551501Y-126226519D01*
X191694987Y-126165317D01*
X191939334Y-126153333D01*
X192216294Y-126171083D01*
X192338699Y-126242826D01*
X192362667Y-126365000D01*
X192786000Y-126365000D01*
X192786000Y-125730000D01*
X192362667Y-125730000D01*
X192085707Y-125712249D01*
X191963302Y-125640506D01*
X191939334Y-125518333D01*
X191864498Y-125341453D01*
X191727667Y-125306666D01*
X191550787Y-125231831D01*
X191516000Y-125095000D01*
X191590836Y-124918119D01*
X191727667Y-124883333D01*
X191904547Y-124808497D01*
X191939334Y-124671666D01*
X191974834Y-124533186D01*
X192118320Y-124471983D01*
X192362667Y-124460000D01*
X192639627Y-124477750D01*
X192762033Y-124549493D01*
X192786000Y-124671666D01*
X192860836Y-124848546D01*
X192997667Y-124883333D01*
X193174547Y-124958168D01*
X193209334Y-125095000D01*
X193134498Y-125271880D01*
X192997667Y-125306666D01*
X192820787Y-125381502D01*
X192786000Y-125518333D01*
X192809170Y-125636553D01*
X192910950Y-125700433D01*
X193139747Y-125726108D01*
X193421000Y-125730000D01*
X193775661Y-125722276D01*
X193967301Y-125688350D01*
X194044326Y-125612084D01*
X194056000Y-125518333D01*
X194130836Y-125341453D01*
X194267667Y-125306666D01*
X194444547Y-125381502D01*
X194479334Y-125518333D01*
X194882787Y-125518333D01*
X194861017Y-125395366D01*
X194784752Y-125318340D01*
X194691000Y-125306666D01*
X194514120Y-125231831D01*
X194479334Y-125095000D01*
X194404498Y-124918119D01*
X194267667Y-124883333D01*
X194090787Y-124958168D01*
X194056000Y-125095000D01*
X193981165Y-125271880D01*
X193844334Y-125306666D01*
X193705854Y-125271166D01*
X193644651Y-125127680D01*
X193632667Y-124883333D01*
X193632667Y-124460000D01*
X193209334Y-124460000D01*
X192932374Y-124442249D01*
X192809968Y-124370506D01*
X192786000Y-124248333D01*
X191516000Y-124248333D01*
X191480500Y-124386813D01*
X191337014Y-124448016D01*
X191092667Y-124460000D01*
X190815707Y-124442249D01*
X190693302Y-124370506D01*
X190669334Y-124248333D01*
X190704834Y-124109853D01*
X190848320Y-124048650D01*
X191092667Y-124036666D01*
X191369627Y-124054416D01*
X191492033Y-124126159D01*
X191516000Y-124248333D01*
X192786000Y-124248333D01*
X192762831Y-124130113D01*
X192661051Y-124066233D01*
X192432254Y-124040558D01*
X192151000Y-124036666D01*
X191796340Y-124028943D01*
X191604700Y-123995016D01*
X191527675Y-123918751D01*
X191516000Y-123825000D01*
X191539170Y-123706779D01*
X191640950Y-123642899D01*
X191869747Y-123617224D01*
X192151000Y-123613333D01*
X192505661Y-123605610D01*
X192697301Y-123571683D01*
X192774326Y-123495417D01*
X192786000Y-123401666D01*
X192762831Y-123283446D01*
X192661051Y-123219566D01*
X192432254Y-123193891D01*
X192151000Y-123190000D01*
X191516000Y-123190000D01*
X191516000Y-122766666D01*
X191092667Y-122766666D01*
X191092667Y-123190000D01*
X190669334Y-123190000D01*
X190392374Y-123172249D01*
X190269968Y-123100506D01*
X190246000Y-122978333D01*
X189822667Y-122978333D01*
X189747832Y-123155213D01*
X189611000Y-123190000D01*
X189434120Y-123264835D01*
X189399334Y-123401666D01*
X189324498Y-123578546D01*
X189187667Y-123613333D01*
X189010787Y-123538497D01*
X188976000Y-123401666D01*
X188940500Y-123263186D01*
X188797014Y-123201983D01*
X188552667Y-123190000D01*
X188275707Y-123207750D01*
X188153302Y-123279493D01*
X188129334Y-123401666D01*
X188054498Y-123578546D01*
X187917667Y-123613333D01*
X187740787Y-123538497D01*
X187706000Y-123401666D01*
X187631165Y-123224786D01*
X187494334Y-123190000D01*
X187355854Y-123154499D01*
X187294651Y-123011013D01*
X187282667Y-122766666D01*
X187300417Y-122489706D01*
X187372160Y-122367301D01*
X187494334Y-122343333D01*
X187671214Y-122268497D01*
X187706000Y-122131666D01*
X187741501Y-121993186D01*
X187884987Y-121931983D01*
X188129334Y-121920000D01*
X188552667Y-121920000D01*
X188552667Y-122343333D01*
X188570417Y-122620293D01*
X188642160Y-122742698D01*
X188764334Y-122766666D01*
X188941214Y-122691831D01*
X188976000Y-122555000D01*
X189050836Y-122378119D01*
X189187667Y-122343333D01*
X189364547Y-122418168D01*
X189399334Y-122555000D01*
X189474169Y-122731880D01*
X189611000Y-122766666D01*
X189787881Y-122841502D01*
X189822667Y-122978333D01*
X190246000Y-122978333D01*
X190320836Y-122801453D01*
X190457667Y-122766666D01*
X190634547Y-122691831D01*
X190669334Y-122555000D01*
X190744169Y-122378119D01*
X190881000Y-122343333D01*
X191019481Y-122378833D01*
X191080683Y-122522319D01*
X191092667Y-122766666D01*
X191516000Y-122766666D01*
X191516000Y-121920000D01*
X191092667Y-121920000D01*
X190815707Y-121902249D01*
X190693302Y-121830506D01*
X190669334Y-121708333D01*
X190704834Y-121569853D01*
X190848320Y-121508650D01*
X191092667Y-121496666D01*
X191516000Y-121496666D01*
X191516000Y-121285000D01*
X190669334Y-121285000D01*
X190633834Y-121423480D01*
X190490347Y-121484682D01*
X190246000Y-121496666D01*
X189822667Y-121496666D01*
X189822667Y-121073333D01*
X189840417Y-120796373D01*
X189912160Y-120673967D01*
X190034334Y-120650000D01*
X190211214Y-120724835D01*
X190246000Y-120861666D01*
X190320836Y-121038546D01*
X190457667Y-121073333D01*
X190634547Y-121148168D01*
X190669334Y-121285000D01*
X191516000Y-121285000D01*
X191516000Y-121073333D01*
X191498250Y-120796373D01*
X191426507Y-120673967D01*
X191304334Y-120650000D01*
X191127454Y-120724835D01*
X191092667Y-120861666D01*
X191017832Y-121038546D01*
X190881000Y-121073333D01*
X190742520Y-121037833D01*
X190681318Y-120894346D01*
X190669334Y-120650000D01*
X190669334Y-120226666D01*
X191092667Y-120226666D01*
X191369627Y-120208916D01*
X191492033Y-120137173D01*
X191516000Y-120015000D01*
X191498324Y-119909538D01*
X191416911Y-119846332D01*
X191229183Y-119814738D01*
X190892564Y-119804112D01*
X190669334Y-119803333D01*
X190247488Y-119807752D01*
X189994666Y-119828105D01*
X189868290Y-119875037D01*
X189825783Y-119959192D01*
X189822667Y-120015000D01*
X189747832Y-120191880D01*
X189611000Y-120226666D01*
X189434120Y-120151831D01*
X189399334Y-120015000D01*
X189324498Y-119838119D01*
X189187667Y-119803333D01*
X189069447Y-119826503D01*
X189005567Y-119928283D01*
X188979892Y-120157080D01*
X188976000Y-120438333D01*
X188983724Y-120792993D01*
X189017650Y-120984633D01*
X189093916Y-121061659D01*
X189187667Y-121073333D01*
X189364547Y-121148168D01*
X189399334Y-121285000D01*
X189474169Y-121461880D01*
X189611000Y-121496666D01*
X189787881Y-121571502D01*
X189822667Y-121708333D01*
X189897503Y-121885213D01*
X190034334Y-121920000D01*
X190172814Y-121955500D01*
X190234017Y-122098986D01*
X190246000Y-122343333D01*
X190228250Y-122620293D01*
X190156507Y-122742698D01*
X190034334Y-122766666D01*
X189857454Y-122691831D01*
X189822667Y-122555000D01*
X189747832Y-122378119D01*
X189611000Y-122343333D01*
X189434120Y-122268497D01*
X189399334Y-122131666D01*
X189324498Y-121954786D01*
X189187667Y-121920000D01*
X189010787Y-121845164D01*
X188976000Y-121708333D01*
X188940500Y-121569853D01*
X188797014Y-121508650D01*
X188552667Y-121496666D01*
X188275707Y-121478916D01*
X188153302Y-121407173D01*
X188129334Y-121285000D01*
X187706000Y-121285000D01*
X187631165Y-121461880D01*
X187494334Y-121496666D01*
X187317454Y-121421831D01*
X187282667Y-121285000D01*
X187357503Y-121108119D01*
X187494334Y-121073333D01*
X187671214Y-121148168D01*
X187706000Y-121285000D01*
X188129334Y-121285000D01*
X188204169Y-121108119D01*
X188341000Y-121073333D01*
X188517881Y-120998497D01*
X188552667Y-120861666D01*
X188477832Y-120684786D01*
X188341000Y-120650000D01*
X188202520Y-120614499D01*
X188141318Y-120471013D01*
X188139716Y-120438333D01*
X187706000Y-120438333D01*
X187631165Y-120615213D01*
X187494334Y-120650000D01*
X187317454Y-120575164D01*
X187282667Y-120438333D01*
X187357503Y-120261453D01*
X187494334Y-120226666D01*
X187671214Y-120301502D01*
X187706000Y-120438333D01*
X188139716Y-120438333D01*
X188129334Y-120226666D01*
X188129334Y-119803333D01*
X186859334Y-119803333D01*
X186859334Y-120650000D01*
X186859334Y-120650000D01*
G37*
X186859334Y-120650000D02*
X186863753Y-121071845D01*
X186884106Y-121324668D01*
X186931038Y-121451044D01*
X187015193Y-121493551D01*
X187071000Y-121496666D01*
X187247881Y-121571502D01*
X187282667Y-121708333D01*
X187207832Y-121885213D01*
X187071000Y-121920000D01*
X186932520Y-121955500D01*
X186871318Y-122098986D01*
X186859334Y-122343333D01*
X186841584Y-122620293D01*
X186769841Y-122742698D01*
X186647667Y-122766666D01*
X186529447Y-122743496D01*
X186465567Y-122641716D01*
X186439892Y-122412919D01*
X186436000Y-122131666D01*
X186428277Y-121777006D01*
X186394351Y-121585366D01*
X186318085Y-121508340D01*
X186224334Y-121496666D01*
X186106114Y-121519836D01*
X186042234Y-121621616D01*
X186016559Y-121850413D01*
X186012667Y-122131666D01*
X186004944Y-122486327D01*
X185971017Y-122677966D01*
X185894752Y-122754992D01*
X185801000Y-122766666D01*
X185624120Y-122691831D01*
X185589334Y-122555000D01*
X185514498Y-122378119D01*
X185377667Y-122343333D01*
X185200787Y-122268497D01*
X185166000Y-122131666D01*
X185240836Y-121954786D01*
X185377667Y-121920000D01*
X185495887Y-121896830D01*
X185559767Y-121795050D01*
X185585442Y-121566253D01*
X185589334Y-121285000D01*
X185597057Y-120930339D01*
X185630984Y-120738699D01*
X185707249Y-120661674D01*
X185801000Y-120650000D01*
X185977881Y-120724835D01*
X186012667Y-120861666D01*
X186087503Y-121038546D01*
X186224334Y-121073333D01*
X186342554Y-121050163D01*
X186406434Y-120948383D01*
X186432109Y-120719586D01*
X186436000Y-120438333D01*
X186436000Y-119803333D01*
X185166000Y-119803333D01*
X185166000Y-120861666D01*
X185163095Y-121343354D01*
X185149272Y-121651711D01*
X185116868Y-121825049D01*
X185058222Y-121901679D01*
X184965670Y-121919913D01*
X184954334Y-121920000D01*
X184777454Y-121994835D01*
X184742667Y-122131666D01*
X184667832Y-122308546D01*
X184531000Y-122343333D01*
X184354120Y-122418168D01*
X184319334Y-122555000D01*
X184244498Y-122731880D01*
X184107667Y-122766666D01*
X183930787Y-122691831D01*
X183896000Y-122555000D01*
X183821165Y-122378119D01*
X183684334Y-122343333D01*
X183507454Y-122268497D01*
X183472667Y-122131666D01*
X183547503Y-121954786D01*
X183684334Y-121920000D01*
X183861214Y-121845164D01*
X183896000Y-121708333D01*
X183970836Y-121531453D01*
X184107667Y-121496666D01*
X184213129Y-121478990D01*
X184276334Y-121397577D01*
X184307928Y-121209849D01*
X184318555Y-120873230D01*
X184319334Y-120650000D01*
X184314915Y-120228154D01*
X184294561Y-119975331D01*
X184247629Y-119848955D01*
X184163475Y-119806448D01*
X184107667Y-119803333D01*
X183930787Y-119878168D01*
X183896000Y-120015000D01*
X183821165Y-120191880D01*
X183684334Y-120226666D01*
X183507454Y-120151831D01*
X183472667Y-120015000D01*
X183437167Y-119876519D01*
X183293681Y-119815317D01*
X183049334Y-119803333D01*
X182772374Y-119821083D01*
X182649968Y-119892826D01*
X182626000Y-120015000D01*
X182700836Y-120191880D01*
X182837667Y-120226666D01*
X183014547Y-120301502D01*
X183049334Y-120438333D01*
X183084834Y-120576813D01*
X183228320Y-120638016D01*
X183472667Y-120650000D01*
X183749627Y-120667750D01*
X183872033Y-120739493D01*
X183896000Y-120861666D01*
X183860500Y-121000146D01*
X183717014Y-121061349D01*
X183472667Y-121073333D01*
X183049334Y-121073333D01*
X183049334Y-121496666D01*
X183031584Y-121773626D01*
X182959841Y-121896032D01*
X182837667Y-121920000D01*
X182699187Y-121955500D01*
X182637984Y-122098986D01*
X182626000Y-122343333D01*
X182643751Y-122620293D01*
X182715494Y-122742698D01*
X182837667Y-122766666D01*
X183014547Y-122691831D01*
X183049334Y-122555000D01*
X183124169Y-122378119D01*
X183261000Y-122343333D01*
X183437881Y-122418168D01*
X183472667Y-122555000D01*
X183547503Y-122731880D01*
X183684334Y-122766666D01*
X183861214Y-122841502D01*
X183896000Y-122978333D01*
X183860500Y-123116813D01*
X183717014Y-123178016D01*
X183472667Y-123190000D01*
X183049334Y-123190000D01*
X183049334Y-123613333D01*
X183031584Y-123890293D01*
X182959841Y-124012698D01*
X182837667Y-124036666D01*
X182699187Y-124001166D01*
X182637984Y-123857680D01*
X182636382Y-123825000D01*
X182202667Y-123825000D01*
X182167167Y-123963480D01*
X182023681Y-124024682D01*
X181779334Y-124036666D01*
X181502374Y-124018916D01*
X181379968Y-123947173D01*
X181356000Y-123825000D01*
X181391501Y-123686519D01*
X181534987Y-123625317D01*
X181779334Y-123613333D01*
X182056294Y-123631083D01*
X182178699Y-123702826D01*
X182202667Y-123825000D01*
X182636382Y-123825000D01*
X182626000Y-123613333D01*
X182626000Y-123190000D01*
X181991000Y-123190000D01*
X181636340Y-123197723D01*
X181444700Y-123231649D01*
X181367675Y-123307915D01*
X181356000Y-123401666D01*
X181281165Y-123578546D01*
X181144334Y-123613333D01*
X180967454Y-123538497D01*
X180932667Y-123401666D01*
X180897167Y-123263186D01*
X180753681Y-123201983D01*
X180509334Y-123190000D01*
X180232374Y-123207750D01*
X180109968Y-123279493D01*
X180086000Y-123401666D01*
X180160836Y-123578546D01*
X180297667Y-123613333D01*
X180415887Y-123636503D01*
X180479767Y-123738283D01*
X180505442Y-123967080D01*
X180509334Y-124248333D01*
X180501611Y-124602993D01*
X180467684Y-124794633D01*
X180391418Y-124871659D01*
X180297667Y-124883333D01*
X180120787Y-124958168D01*
X180086000Y-125095000D01*
X180050500Y-125233480D01*
X179907014Y-125294682D01*
X179662667Y-125306666D01*
X179239334Y-125306666D01*
X179239334Y-125941666D01*
X179247057Y-126296327D01*
X179280984Y-126487966D01*
X179357249Y-126564992D01*
X179451000Y-126576666D01*
X179627881Y-126651502D01*
X179662667Y-126788333D01*
X179587832Y-126965213D01*
X179451000Y-127000000D01*
X179312520Y-127035500D01*
X179251318Y-127178986D01*
X179239334Y-127423333D01*
X179257084Y-127700293D01*
X179328827Y-127822698D01*
X179451000Y-127846666D01*
X179627881Y-127921502D01*
X179662667Y-128058333D01*
X179587832Y-128235213D01*
X179451000Y-128270000D01*
X179274120Y-128344835D01*
X179239334Y-128481666D01*
X179314169Y-128658546D01*
X179451000Y-128693333D01*
X179589481Y-128728833D01*
X179650683Y-128872319D01*
X179662667Y-129116666D01*
X179644917Y-129393626D01*
X179573174Y-129516032D01*
X179451000Y-129540000D01*
X179274120Y-129614835D01*
X179239334Y-129751666D01*
X179314169Y-129928546D01*
X179451000Y-129963333D01*
X179627881Y-130038168D01*
X179662667Y-130175000D01*
X179587832Y-130351880D01*
X179451000Y-130386666D01*
X179379103Y-130394992D01*
X179325644Y-130438151D01*
X179287896Y-130543420D01*
X179263133Y-130738072D01*
X179248627Y-131049383D01*
X179241649Y-131504626D01*
X179239473Y-132131077D01*
X179239334Y-132503333D01*
X179240166Y-133222313D01*
X179244482Y-133756902D01*
X179255009Y-134134375D01*
X179274474Y-134382007D01*
X179305605Y-134527073D01*
X179351130Y-134596847D01*
X179413775Y-134618603D01*
X179451000Y-134620000D01*
X179627881Y-134545164D01*
X179662667Y-134408333D01*
X179737503Y-134231453D01*
X179874334Y-134196666D01*
X180051214Y-134271502D01*
X180086000Y-134408333D01*
X180109170Y-134526553D01*
X180210950Y-134590433D01*
X180439747Y-134616108D01*
X180721000Y-134620000D01*
X181075661Y-134627723D01*
X181267301Y-134661649D01*
X181344326Y-134737915D01*
X181356000Y-134831666D01*
X181281165Y-135008546D01*
X181144334Y-135043333D01*
X180967454Y-135118168D01*
X180932667Y-135255000D01*
X181007503Y-135431880D01*
X181144334Y-135466666D01*
X181321214Y-135391831D01*
X181356000Y-135255000D01*
X181430836Y-135078119D01*
X181567667Y-135043333D01*
X181685887Y-135020163D01*
X181749767Y-134918383D01*
X181775442Y-134689586D01*
X181779334Y-134408333D01*
X181787057Y-134053672D01*
X181820984Y-133862033D01*
X181897249Y-133785007D01*
X181991000Y-133773333D01*
X182129481Y-133808833D01*
X182190683Y-133952319D01*
X182202667Y-134196666D01*
X182220417Y-134473626D01*
X182292160Y-134596032D01*
X182414334Y-134620000D01*
X182552814Y-134655500D01*
X182614017Y-134798986D01*
X182626000Y-135043333D01*
X182626000Y-135466666D01*
X183049334Y-135466666D01*
X183326294Y-135448916D01*
X183448699Y-135377173D01*
X183472667Y-135255000D01*
X183547503Y-135078119D01*
X183684334Y-135043333D01*
X183861214Y-134968497D01*
X183896000Y-134831666D01*
X183472667Y-134831666D01*
X183397832Y-135008546D01*
X183261000Y-135043333D01*
X183084120Y-134968497D01*
X183049334Y-134831666D01*
X183124169Y-134654786D01*
X183261000Y-134620000D01*
X183437881Y-134694835D01*
X183472667Y-134831666D01*
X183896000Y-134831666D01*
X183821165Y-134654786D01*
X183684334Y-134620000D01*
X183566114Y-134596830D01*
X183502234Y-134495050D01*
X183476559Y-134266253D01*
X183472667Y-133985000D01*
X183464944Y-133630339D01*
X183431017Y-133438699D01*
X183354752Y-133361674D01*
X183261000Y-133350000D01*
X183122520Y-133314499D01*
X183061318Y-133171013D01*
X183049334Y-132926666D01*
X183067084Y-132649706D01*
X183138827Y-132527301D01*
X183261000Y-132503333D01*
X183437881Y-132578168D01*
X183472667Y-132715000D01*
X183547503Y-132891880D01*
X183684334Y-132926666D01*
X183861214Y-132851831D01*
X183896000Y-132715000D01*
X183919170Y-132596779D01*
X184020950Y-132532899D01*
X184249747Y-132507224D01*
X184531000Y-132503333D01*
X184885661Y-132495610D01*
X185077301Y-132461683D01*
X185154326Y-132385417D01*
X185166000Y-132291666D01*
X185240836Y-132114786D01*
X185377667Y-132080000D01*
X185554547Y-132005164D01*
X185589334Y-131868333D01*
X184742667Y-131868333D01*
X184719497Y-131986553D01*
X184617717Y-132050433D01*
X184388920Y-132076108D01*
X184107667Y-132080000D01*
X182626000Y-132080000D01*
X182626000Y-133350000D01*
X181356000Y-133350000D01*
X181356000Y-132080000D01*
X182626000Y-132080000D01*
X184107667Y-132080000D01*
X183753007Y-132072276D01*
X183561367Y-132038350D01*
X183484341Y-131962084D01*
X183472667Y-131868333D01*
X183397832Y-131691453D01*
X183261000Y-131656666D01*
X183084120Y-131581831D01*
X183049334Y-131445000D01*
X182626000Y-131445000D01*
X182551165Y-131621880D01*
X182414334Y-131656666D01*
X182237454Y-131581831D01*
X182202667Y-131445000D01*
X182277503Y-131268119D01*
X182414334Y-131233333D01*
X182591214Y-131308168D01*
X182626000Y-131445000D01*
X183049334Y-131445000D01*
X183124169Y-131268119D01*
X183261000Y-131233333D01*
X183437881Y-131308168D01*
X183472667Y-131445000D01*
X183495837Y-131563220D01*
X183597617Y-131627100D01*
X183826414Y-131652775D01*
X184107667Y-131656666D01*
X184462328Y-131664389D01*
X184653967Y-131698316D01*
X184730993Y-131774582D01*
X184742667Y-131868333D01*
X185589334Y-131868333D01*
X185553834Y-131729853D01*
X185410347Y-131668650D01*
X185166000Y-131656666D01*
X184889040Y-131638916D01*
X184766635Y-131567173D01*
X184742667Y-131445000D01*
X184817503Y-131268119D01*
X184954334Y-131233333D01*
X185131214Y-131158497D01*
X185166000Y-131021666D01*
X184742667Y-131021666D01*
X184667832Y-131198546D01*
X184531000Y-131233333D01*
X184354120Y-131158497D01*
X184319334Y-131021666D01*
X184394169Y-130844786D01*
X184531000Y-130810000D01*
X184707881Y-130884835D01*
X184742667Y-131021666D01*
X185166000Y-131021666D01*
X185091165Y-130844786D01*
X184954334Y-130810000D01*
X184777454Y-130735164D01*
X184742667Y-130598333D01*
X184667832Y-130421453D01*
X184531000Y-130386666D01*
X184354120Y-130461502D01*
X184319334Y-130598333D01*
X184244498Y-130775213D01*
X184107667Y-130810000D01*
X183969187Y-130774499D01*
X183907984Y-130631013D01*
X183896000Y-130386666D01*
X183913751Y-130109706D01*
X183985494Y-129987301D01*
X184107667Y-129963333D01*
X184225887Y-129940163D01*
X184289767Y-129838383D01*
X184299498Y-129751666D01*
X183896000Y-129751666D01*
X183872831Y-129869886D01*
X183771051Y-129933766D01*
X183542254Y-129959441D01*
X183261000Y-129963333D01*
X182906340Y-129971056D01*
X182714700Y-130004983D01*
X182637675Y-130081248D01*
X182626000Y-130175000D01*
X182700836Y-130351880D01*
X182837667Y-130386666D01*
X183014547Y-130461502D01*
X183049334Y-130598333D01*
X183031658Y-130703794D01*
X182950244Y-130767000D01*
X182762516Y-130798594D01*
X182425897Y-130809221D01*
X182202667Y-130810000D01*
X181356000Y-130810000D01*
X181356000Y-131233333D01*
X181338250Y-131510293D01*
X181266507Y-131632698D01*
X181144334Y-131656666D01*
X181038872Y-131674342D01*
X180975667Y-131755756D01*
X180944073Y-131943484D01*
X180933446Y-132280103D01*
X180932667Y-132503333D01*
X180928248Y-132925179D01*
X180907895Y-133178001D01*
X180860963Y-133304377D01*
X180776808Y-133346884D01*
X180721000Y-133350000D01*
X180544120Y-133424835D01*
X180509334Y-133561666D01*
X180544834Y-133700146D01*
X180688320Y-133761349D01*
X180932667Y-133773333D01*
X181209627Y-133791083D01*
X181332033Y-133862826D01*
X181356000Y-133985000D01*
X181320500Y-134123480D01*
X181177014Y-134184682D01*
X180932667Y-134196666D01*
X180655707Y-134178916D01*
X180533302Y-134107173D01*
X180509334Y-133985000D01*
X180434498Y-133808119D01*
X180297667Y-133773333D01*
X180120787Y-133698497D01*
X180086000Y-133561666D01*
X180160836Y-133384786D01*
X180297667Y-133350000D01*
X180436147Y-133314499D01*
X180497350Y-133171013D01*
X180509334Y-132926666D01*
X180491584Y-132649706D01*
X180419841Y-132527301D01*
X180297667Y-132503333D01*
X180120787Y-132578168D01*
X180086000Y-132715000D01*
X180011165Y-132891880D01*
X179874334Y-132926666D01*
X179735854Y-132891166D01*
X179674651Y-132747680D01*
X179662667Y-132503333D01*
X179680417Y-132226373D01*
X179752160Y-132103967D01*
X179874334Y-132080000D01*
X180051214Y-132005164D01*
X180086000Y-131868333D01*
X180160836Y-131691453D01*
X180297667Y-131656666D01*
X180474547Y-131581831D01*
X180509334Y-131445000D01*
X180434498Y-131268119D01*
X180297667Y-131233333D01*
X180120787Y-131158497D01*
X180086000Y-131021666D01*
X180011165Y-130844786D01*
X179874334Y-130810000D01*
X179697454Y-130735164D01*
X179662667Y-130598333D01*
X179737503Y-130421453D01*
X179874334Y-130386666D01*
X180051214Y-130311831D01*
X180086000Y-130175000D01*
X180011165Y-129998119D01*
X179874334Y-129963333D01*
X179697454Y-129888497D01*
X179662667Y-129751666D01*
X179737503Y-129574786D01*
X179874334Y-129540000D01*
X179992554Y-129516830D01*
X180056434Y-129415050D01*
X180082109Y-129186253D01*
X180086000Y-128905000D01*
X180093724Y-128550339D01*
X180127650Y-128358699D01*
X180203916Y-128281674D01*
X180297667Y-128270000D01*
X180474547Y-128195164D01*
X180509334Y-128058333D01*
X180434498Y-127881453D01*
X180297667Y-127846666D01*
X180120787Y-127771831D01*
X180086000Y-127635000D01*
X180011165Y-127458119D01*
X179874334Y-127423333D01*
X179697454Y-127348497D01*
X179662667Y-127211666D01*
X179698167Y-127073186D01*
X179841654Y-127011983D01*
X180086000Y-127000000D01*
X180509334Y-127000000D01*
X180509334Y-127423333D01*
X180527084Y-127700293D01*
X180598827Y-127822698D01*
X180721000Y-127846666D01*
X180859481Y-127882166D01*
X180920683Y-128025653D01*
X180932667Y-128270000D01*
X180932667Y-128693333D01*
X183472667Y-128693333D01*
X183472667Y-129116666D01*
X183490417Y-129393626D01*
X183562160Y-129516032D01*
X183684334Y-129540000D01*
X183861214Y-129614835D01*
X183896000Y-129751666D01*
X184299498Y-129751666D01*
X184315442Y-129609586D01*
X184319334Y-129328333D01*
X184319334Y-128693333D01*
X183896000Y-128693333D01*
X183619040Y-128675583D01*
X183496635Y-128603840D01*
X183472667Y-128481666D01*
X183547503Y-128304786D01*
X183684334Y-128270000D01*
X183822814Y-128234499D01*
X183884017Y-128091013D01*
X183896000Y-127846666D01*
X183913751Y-127569706D01*
X183985494Y-127447301D01*
X184107667Y-127423333D01*
X184284547Y-127348497D01*
X184319334Y-127211666D01*
X183896000Y-127211666D01*
X183821165Y-127388546D01*
X183684334Y-127423333D01*
X183507454Y-127498168D01*
X183472667Y-127635000D01*
X183437167Y-127773480D01*
X183293681Y-127834682D01*
X183049334Y-127846666D01*
X182772374Y-127864416D01*
X182649968Y-127936159D01*
X182626000Y-128058333D01*
X182590500Y-128196813D01*
X182447014Y-128258016D01*
X182202667Y-128270000D01*
X181925707Y-128252249D01*
X181803302Y-128180506D01*
X181779334Y-128058333D01*
X181854169Y-127881453D01*
X181991000Y-127846666D01*
X182167881Y-127771831D01*
X182202667Y-127635000D01*
X182238167Y-127496519D01*
X182381654Y-127435317D01*
X182626000Y-127423333D01*
X183049334Y-127423333D01*
X183049334Y-127000000D01*
X183062899Y-126788333D01*
X181356000Y-126788333D01*
X181281165Y-126965213D01*
X181144334Y-127000000D01*
X180967454Y-126925164D01*
X180932667Y-126788333D01*
X180897167Y-126649853D01*
X180753681Y-126588650D01*
X180509334Y-126576666D01*
X180232374Y-126558916D01*
X180109968Y-126487173D01*
X180086000Y-126365000D01*
X180011165Y-126188119D01*
X179874334Y-126153333D01*
X179697454Y-126078497D01*
X179662667Y-125941666D01*
X179737503Y-125764786D01*
X179874334Y-125730000D01*
X180051214Y-125655164D01*
X180086000Y-125518333D01*
X180160836Y-125341453D01*
X180297667Y-125306666D01*
X180474547Y-125381502D01*
X180509334Y-125518333D01*
X180584169Y-125695213D01*
X180721000Y-125730000D01*
X180859481Y-125765500D01*
X180920683Y-125908986D01*
X180932667Y-126153333D01*
X180950417Y-126430293D01*
X181022160Y-126552698D01*
X181144334Y-126576666D01*
X181321214Y-126651502D01*
X181356000Y-126788333D01*
X183062899Y-126788333D01*
X183067084Y-126723039D01*
X183138827Y-126600634D01*
X183261000Y-126576666D01*
X183437881Y-126651502D01*
X183472667Y-126788333D01*
X183547503Y-126965213D01*
X183684334Y-127000000D01*
X183861214Y-127074835D01*
X183896000Y-127211666D01*
X184319334Y-127211666D01*
X184244498Y-127034786D01*
X184107667Y-127000000D01*
X183930787Y-126925164D01*
X183896000Y-126788333D01*
X183910526Y-126691995D01*
X183979642Y-126630324D01*
X184141662Y-126595656D01*
X184434895Y-126580330D01*
X184897654Y-126576683D01*
X184954334Y-126576666D01*
X185436021Y-126573761D01*
X185744378Y-126559938D01*
X185917717Y-126527534D01*
X185994347Y-126468887D01*
X186012581Y-126376336D01*
X186012667Y-126365000D01*
X185937832Y-126188119D01*
X185801000Y-126153333D01*
X185624120Y-126078497D01*
X185589334Y-125941666D01*
X185624834Y-125803186D01*
X185768320Y-125741983D01*
X186012667Y-125730000D01*
X186436000Y-125730000D01*
X186436000Y-126153333D01*
X186453751Y-126430293D01*
X186525494Y-126552698D01*
X186647667Y-126576666D01*
X186824547Y-126651502D01*
X186859334Y-126788333D01*
X186784498Y-126965213D01*
X186647667Y-127000000D01*
X186509187Y-127035500D01*
X186447984Y-127178986D01*
X186436000Y-127423333D01*
X186436000Y-127846666D01*
X185589334Y-127846666D01*
X185589334Y-128693333D01*
X185584915Y-129115179D01*
X185564561Y-129368001D01*
X185517629Y-129494377D01*
X185433475Y-129536884D01*
X185377667Y-129540000D01*
X185239187Y-129575500D01*
X185177984Y-129718986D01*
X185166000Y-129963333D01*
X185166000Y-130386666D01*
X186012667Y-130386666D01*
X186012667Y-129116666D01*
X186436000Y-129116666D01*
X186712961Y-129134416D01*
X186835366Y-129206159D01*
X186859334Y-129328333D01*
X186894834Y-129466813D01*
X187038320Y-129528016D01*
X187282667Y-129540000D01*
X187559627Y-129557750D01*
X187682033Y-129629493D01*
X187706000Y-129751666D01*
X187631165Y-129928546D01*
X187494334Y-129963333D01*
X187355854Y-129998833D01*
X187294651Y-130142319D01*
X187282667Y-130386666D01*
X187300417Y-130663626D01*
X187372160Y-130786032D01*
X187494334Y-130810000D01*
X187671214Y-130735164D01*
X187706000Y-130598333D01*
X187780836Y-130421453D01*
X187917667Y-130386666D01*
X188094547Y-130461502D01*
X188129334Y-130598333D01*
X188204169Y-130775213D01*
X188341000Y-130810000D01*
X188517881Y-130884835D01*
X188552667Y-131021666D01*
X188477832Y-131198546D01*
X188341000Y-131233333D01*
X188202520Y-131268833D01*
X188141318Y-131412319D01*
X188129334Y-131656666D01*
X188147084Y-131933626D01*
X188218827Y-132056032D01*
X188341000Y-132080000D01*
X188517881Y-132154835D01*
X188552667Y-132291666D01*
X188627503Y-132468546D01*
X188764334Y-132503333D01*
X188941214Y-132428497D01*
X188976000Y-132291666D01*
X188901165Y-132114786D01*
X188764334Y-132080000D01*
X188625854Y-132044499D01*
X188564651Y-131901013D01*
X188552667Y-131656666D01*
X188570417Y-131379706D01*
X188642160Y-131257301D01*
X188764334Y-131233333D01*
X188941214Y-131308168D01*
X188976000Y-131445000D01*
X189011501Y-131583480D01*
X189154987Y-131644682D01*
X189399334Y-131656666D01*
X189822667Y-131656666D01*
X189822667Y-130810000D01*
X189187667Y-130810000D01*
X188833007Y-130802276D01*
X188641367Y-130768350D01*
X188564341Y-130692084D01*
X188552667Y-130598333D01*
X188588167Y-130459853D01*
X188731654Y-130398650D01*
X188976000Y-130386666D01*
X189252961Y-130368916D01*
X189375366Y-130297173D01*
X189399334Y-130175000D01*
X188552667Y-130175000D01*
X188477832Y-130351880D01*
X188341000Y-130386666D01*
X188164120Y-130311831D01*
X188129334Y-130175000D01*
X188204169Y-129998119D01*
X188341000Y-129963333D01*
X188517881Y-130038168D01*
X188552667Y-130175000D01*
X189399334Y-130175000D01*
X189434834Y-130036519D01*
X189578320Y-129975317D01*
X189822667Y-129963333D01*
X190099627Y-129945583D01*
X190222033Y-129873840D01*
X190246000Y-129751666D01*
X190210500Y-129613186D01*
X190067014Y-129551983D01*
X189822667Y-129540000D01*
X189545707Y-129522249D01*
X189423302Y-129450506D01*
X189399334Y-129328333D01*
X189324498Y-129151453D01*
X189187667Y-129116666D01*
X189010787Y-129041831D01*
X188976000Y-128905000D01*
X189050836Y-128728119D01*
X189187667Y-128693333D01*
X189326147Y-128657833D01*
X189387350Y-128514346D01*
X189399334Y-128270000D01*
X189399334Y-127846666D01*
X188764334Y-127846666D01*
X188409673Y-127854389D01*
X188218034Y-127888316D01*
X188141008Y-127964582D01*
X188129334Y-128058333D01*
X188204169Y-128235213D01*
X188341000Y-128270000D01*
X188459221Y-128293169D01*
X188523101Y-128394949D01*
X188548776Y-128623746D01*
X188552667Y-128905000D01*
X188552667Y-129540000D01*
X188129334Y-129540000D01*
X187852374Y-129522249D01*
X187729968Y-129450506D01*
X187706000Y-129328333D01*
X187670500Y-129189853D01*
X187527014Y-129128650D01*
X187282667Y-129116666D01*
X186859334Y-129116666D01*
X186859334Y-128481666D01*
X186436000Y-128481666D01*
X186361165Y-128658546D01*
X186224334Y-128693333D01*
X186047454Y-128618497D01*
X186012667Y-128481666D01*
X186087503Y-128304786D01*
X186224334Y-128270000D01*
X186401214Y-128344835D01*
X186436000Y-128481666D01*
X186859334Y-128481666D01*
X186859334Y-128270000D01*
X187282667Y-128270000D01*
X187559627Y-128252249D01*
X187682033Y-128180506D01*
X187706000Y-128058333D01*
X187670500Y-127919853D01*
X187527014Y-127858650D01*
X187282667Y-127846666D01*
X186859334Y-127846666D01*
X186859334Y-127423333D01*
X186877084Y-127146373D01*
X186948827Y-127023967D01*
X187071000Y-127000000D01*
X187247881Y-127074835D01*
X187282667Y-127211666D01*
X187357503Y-127388546D01*
X187494334Y-127423333D01*
X187671214Y-127348497D01*
X187706000Y-127211666D01*
X187631165Y-127034786D01*
X187494334Y-127000000D01*
X187317454Y-126925164D01*
X187282667Y-126788333D01*
X187318167Y-126649853D01*
X187461654Y-126588650D01*
X187706000Y-126576666D01*
X187982961Y-126558916D01*
X188105366Y-126487173D01*
X188129334Y-126365000D01*
X188054498Y-126188119D01*
X187917667Y-126153333D01*
X187740787Y-126078497D01*
X187706000Y-125941666D01*
X187780836Y-125764786D01*
X187917667Y-125730000D01*
X188094547Y-125655164D01*
X188129334Y-125518333D01*
X188054498Y-125341453D01*
X187917667Y-125306666D01*
X187740787Y-125381502D01*
X187706000Y-125518333D01*
X187631165Y-125695213D01*
X187494334Y-125730000D01*
X187317454Y-125804835D01*
X187282667Y-125941666D01*
X187207832Y-126118546D01*
X187071000Y-126153333D01*
X186894120Y-126078497D01*
X186859334Y-125941666D01*
X186784498Y-125764786D01*
X186647667Y-125730000D01*
X186529447Y-125706830D01*
X186465567Y-125605050D01*
X186439892Y-125376253D01*
X186436000Y-125095000D01*
X186012667Y-125095000D01*
X185937832Y-125271880D01*
X185801000Y-125306666D01*
X185624120Y-125381502D01*
X185589334Y-125518333D01*
X185553834Y-125656813D01*
X185410347Y-125718016D01*
X185166000Y-125730000D01*
X184742667Y-125730000D01*
X184742667Y-125306666D01*
X184760417Y-125029706D01*
X184832160Y-124907301D01*
X184954334Y-124883333D01*
X185131214Y-124958168D01*
X185166000Y-125095000D01*
X185240836Y-125271880D01*
X185377667Y-125306666D01*
X185554547Y-125231831D01*
X185589334Y-125095000D01*
X185664169Y-124918119D01*
X185801000Y-124883333D01*
X185977881Y-124958168D01*
X186012667Y-125095000D01*
X186436000Y-125095000D01*
X186436000Y-124460000D01*
X185589334Y-124460000D01*
X185167488Y-124464419D01*
X184914666Y-124484772D01*
X184788290Y-124531704D01*
X184745783Y-124615859D01*
X184742667Y-124671666D01*
X184667832Y-124848546D01*
X184531000Y-124883333D01*
X184354120Y-124808497D01*
X184319334Y-124671666D01*
X184244498Y-124494786D01*
X184107667Y-124460000D01*
X183969187Y-124495500D01*
X183907984Y-124638986D01*
X183896000Y-124883333D01*
X183913751Y-125160293D01*
X183985494Y-125282698D01*
X184107667Y-125306666D01*
X184246147Y-125342166D01*
X184307350Y-125485653D01*
X184319334Y-125730000D01*
X184319334Y-126153333D01*
X183684334Y-126153333D01*
X183329673Y-126161056D01*
X183138034Y-126194983D01*
X183061008Y-126271248D01*
X183049334Y-126365000D01*
X183013834Y-126503480D01*
X182870347Y-126564682D01*
X182626000Y-126576666D01*
X182349040Y-126558916D01*
X182226635Y-126487173D01*
X182202667Y-126365000D01*
X182127832Y-126188119D01*
X181991000Y-126153333D01*
X181814120Y-126228168D01*
X181779334Y-126365000D01*
X181704498Y-126541880D01*
X181567667Y-126576666D01*
X181429187Y-126541166D01*
X181367984Y-126397680D01*
X181356000Y-126153333D01*
X181356000Y-125730000D01*
X181779334Y-125730000D01*
X182056294Y-125712249D01*
X182178699Y-125640506D01*
X182202667Y-125518333D01*
X182277503Y-125341453D01*
X182414334Y-125306666D01*
X182591214Y-125381502D01*
X182626000Y-125518333D01*
X182661501Y-125656813D01*
X182804987Y-125718016D01*
X183049334Y-125730000D01*
X183326294Y-125712249D01*
X183448699Y-125640506D01*
X183472667Y-125518333D01*
X183437167Y-125379853D01*
X183293681Y-125318650D01*
X183049334Y-125306666D01*
X182772374Y-125288916D01*
X182649968Y-125217173D01*
X182626000Y-125095000D01*
X182590500Y-124956519D01*
X182447014Y-124895317D01*
X182202667Y-124883333D01*
X181925707Y-124901083D01*
X181803302Y-124972826D01*
X181779334Y-125095000D01*
X181704498Y-125271880D01*
X181567667Y-125306666D01*
X181390787Y-125231831D01*
X181356000Y-125095000D01*
X181281165Y-124918119D01*
X181144334Y-124883333D01*
X181005854Y-124847833D01*
X180944651Y-124704346D01*
X180932667Y-124460000D01*
X180950417Y-124183039D01*
X181022160Y-124060634D01*
X181144334Y-124036666D01*
X181321214Y-124111502D01*
X181356000Y-124248333D01*
X181391501Y-124386813D01*
X181534987Y-124448016D01*
X181779334Y-124460000D01*
X182056294Y-124442249D01*
X182178699Y-124370506D01*
X182202667Y-124248333D01*
X182277503Y-124071453D01*
X182414334Y-124036666D01*
X182591214Y-124111502D01*
X182626000Y-124248333D01*
X182700836Y-124425213D01*
X182837667Y-124460000D01*
X183014547Y-124534835D01*
X183049334Y-124671666D01*
X183124169Y-124848546D01*
X183261000Y-124883333D01*
X183437881Y-124808497D01*
X183472667Y-124671666D01*
X183397832Y-124494786D01*
X183261000Y-124460000D01*
X183084120Y-124385164D01*
X183049334Y-124248333D01*
X183124169Y-124071453D01*
X183261000Y-124036666D01*
X183437881Y-123961831D01*
X183472667Y-123825000D01*
X183547503Y-123648119D01*
X183684334Y-123613333D01*
X183861214Y-123538497D01*
X183896000Y-123401666D01*
X183970836Y-123224786D01*
X184107667Y-123190000D01*
X184246147Y-123225500D01*
X184307350Y-123368986D01*
X184319334Y-123613333D01*
X184337084Y-123890293D01*
X184408827Y-124012698D01*
X184531000Y-124036666D01*
X184636462Y-124018990D01*
X184699668Y-123937577D01*
X184731262Y-123749849D01*
X184741888Y-123413230D01*
X184742667Y-123190000D01*
X184747086Y-122768154D01*
X184767440Y-122515331D01*
X184814372Y-122388955D01*
X184898526Y-122346448D01*
X184954334Y-122343333D01*
X185092814Y-122378833D01*
X185154017Y-122522319D01*
X185166000Y-122766666D01*
X185183751Y-123043626D01*
X185255494Y-123166032D01*
X185377667Y-123190000D01*
X185516147Y-123225500D01*
X185577350Y-123368986D01*
X185589334Y-123613333D01*
X185589334Y-124036666D01*
X186859334Y-124036666D01*
X186859334Y-123613333D01*
X186872899Y-123401666D01*
X186436000Y-123401666D01*
X186361165Y-123578546D01*
X186224334Y-123613333D01*
X186047454Y-123538497D01*
X186012667Y-123401666D01*
X186087503Y-123224786D01*
X186224334Y-123190000D01*
X186401214Y-123264835D01*
X186436000Y-123401666D01*
X186872899Y-123401666D01*
X186877084Y-123336373D01*
X186948827Y-123213967D01*
X187071000Y-123190000D01*
X187176462Y-123207676D01*
X187239668Y-123289089D01*
X187271262Y-123476817D01*
X187281888Y-123813436D01*
X187282667Y-124036666D01*
X187287086Y-124458512D01*
X187307440Y-124711334D01*
X187354372Y-124837710D01*
X187438526Y-124880217D01*
X187494334Y-124883333D01*
X187632814Y-124847833D01*
X187694017Y-124704346D01*
X187706000Y-124460000D01*
X187706000Y-124036666D01*
X188552667Y-124036666D01*
X188552667Y-125306666D01*
X188976000Y-125306666D01*
X189252961Y-125288916D01*
X189375366Y-125217173D01*
X189399334Y-125095000D01*
X189474169Y-124918119D01*
X189611000Y-124883333D01*
X189716462Y-124865657D01*
X189779668Y-124784243D01*
X189798614Y-124671666D01*
X189399334Y-124671666D01*
X189324498Y-124848546D01*
X189187667Y-124883333D01*
X189010787Y-124808497D01*
X188976000Y-124671666D01*
X189050836Y-124494786D01*
X189187667Y-124460000D01*
X189364547Y-124534835D01*
X189399334Y-124671666D01*
X189798614Y-124671666D01*
X189811262Y-124596515D01*
X189821888Y-124259896D01*
X189822667Y-124036666D01*
X189827086Y-123614820D01*
X189847440Y-123361998D01*
X189894372Y-123235622D01*
X189978526Y-123193115D01*
X190034334Y-123190000D01*
X190211214Y-123264835D01*
X190246000Y-123401666D01*
X190320836Y-123578546D01*
X190457667Y-123613333D01*
X190634547Y-123688168D01*
X190669334Y-123825000D01*
X190594498Y-124001880D01*
X190457667Y-124036666D01*
X190280787Y-124111502D01*
X190246000Y-124248333D01*
X190320836Y-124425213D01*
X190457667Y-124460000D01*
X190634547Y-124534835D01*
X190669334Y-124671666D01*
X190744169Y-124848546D01*
X190881000Y-124883333D01*
X191019481Y-124918833D01*
X191080683Y-125062319D01*
X191092667Y-125306666D01*
X191074917Y-125583626D01*
X191003174Y-125706032D01*
X190881000Y-125730000D01*
X190704120Y-125804835D01*
X190669334Y-125941666D01*
X190633834Y-126080146D01*
X190490347Y-126141349D01*
X190246000Y-126153333D01*
X189969040Y-126171083D01*
X189846635Y-126242826D01*
X189822667Y-126365000D01*
X189747832Y-126541880D01*
X189611000Y-126576666D01*
X189434120Y-126651502D01*
X189399334Y-126788333D01*
X189474169Y-126965213D01*
X189611000Y-127000000D01*
X189787881Y-126925164D01*
X189822667Y-126788333D01*
X189840343Y-126682871D01*
X189921757Y-126619666D01*
X190109485Y-126588072D01*
X190446104Y-126577445D01*
X190669334Y-126576666D01*
X191516000Y-126576666D01*
X191516000Y-127211666D01*
X191508277Y-127566327D01*
X191474351Y-127757966D01*
X191398085Y-127834992D01*
X191304334Y-127846666D01*
X191165854Y-127882166D01*
X191104651Y-128025653D01*
X191092667Y-128270000D01*
X191074917Y-128546960D01*
X191003174Y-128669365D01*
X190881000Y-128693333D01*
X190775539Y-128675657D01*
X190712333Y-128594243D01*
X190680739Y-128406515D01*
X190670113Y-128069896D01*
X190669334Y-127846666D01*
X190664915Y-127424820D01*
X190644561Y-127171998D01*
X190597629Y-127045622D01*
X190513475Y-127003115D01*
X190457667Y-127000000D01*
X190339447Y-127023169D01*
X190275567Y-127124949D01*
X190249892Y-127353746D01*
X190246000Y-127635000D01*
X190238277Y-127989660D01*
X190204351Y-128181300D01*
X190128085Y-128258325D01*
X190034334Y-128270000D01*
X189857454Y-128344835D01*
X189822667Y-128481666D01*
X189897503Y-128658546D01*
X190034334Y-128693333D01*
X190211214Y-128768168D01*
X190246000Y-128905000D01*
X190269170Y-129023220D01*
X190370950Y-129087100D01*
X190599747Y-129112775D01*
X190881000Y-129116666D01*
X191516000Y-129116666D01*
X191516000Y-129963333D01*
X190669334Y-129963333D01*
X190669334Y-130386666D01*
X190687084Y-130663626D01*
X190758827Y-130786032D01*
X190881000Y-130810000D01*
X191057881Y-130884835D01*
X191092667Y-131021666D01*
X191057167Y-131160146D01*
X190913681Y-131221349D01*
X190669334Y-131233333D01*
X190392374Y-131251083D01*
X190269968Y-131322826D01*
X190246000Y-131445000D01*
X190281501Y-131583480D01*
X190424987Y-131644682D01*
X190669334Y-131656666D01*
X190946294Y-131674416D01*
X191068699Y-131746159D01*
X191092667Y-131868333D01*
X191017832Y-132045213D01*
X190881000Y-132080000D01*
X190742520Y-132115500D01*
X190681318Y-132258986D01*
X190669334Y-132503333D01*
X190669334Y-132926666D01*
X189822667Y-132926666D01*
X189822667Y-132503333D01*
X189804917Y-132226373D01*
X189733174Y-132103967D01*
X189611000Y-132080000D01*
X189472520Y-132115500D01*
X189411318Y-132258986D01*
X189399334Y-132503333D01*
X189381584Y-132780293D01*
X189309841Y-132902698D01*
X189187667Y-132926666D01*
X189010787Y-133001502D01*
X188976000Y-133138333D01*
X188901165Y-133315213D01*
X188764334Y-133350000D01*
X188587454Y-133275164D01*
X188552667Y-133138333D01*
X188477832Y-132961453D01*
X188341000Y-132926666D01*
X188202520Y-132962166D01*
X188141318Y-133105653D01*
X188129334Y-133350000D01*
X188129334Y-133773333D01*
X187282667Y-133773333D01*
X187282667Y-134408333D01*
X187290390Y-134762993D01*
X187324317Y-134954633D01*
X187400583Y-135031659D01*
X187494334Y-135043333D01*
X187671214Y-135118168D01*
X187706000Y-135255000D01*
X187780836Y-135431880D01*
X187917667Y-135466666D01*
X188056147Y-135431166D01*
X188117350Y-135287680D01*
X188129334Y-135043333D01*
X188147084Y-134766373D01*
X188218827Y-134643967D01*
X188341000Y-134620000D01*
X188479481Y-134655500D01*
X188540683Y-134798986D01*
X188552667Y-135043333D01*
X188570417Y-135320293D01*
X188642160Y-135442698D01*
X188764334Y-135466666D01*
X188860671Y-135452141D01*
X188922343Y-135383024D01*
X188957010Y-135221005D01*
X188972336Y-134927772D01*
X188975983Y-134465013D01*
X188976000Y-134408333D01*
X188978553Y-133985000D01*
X188552667Y-133985000D01*
X188477832Y-134161880D01*
X188341000Y-134196666D01*
X188164120Y-134121831D01*
X188129334Y-133985000D01*
X188204169Y-133808119D01*
X188341000Y-133773333D01*
X188517881Y-133848168D01*
X188552667Y-133985000D01*
X188978553Y-133985000D01*
X188978906Y-133926645D01*
X188992729Y-133618288D01*
X189025133Y-133444950D01*
X189083779Y-133368320D01*
X189176331Y-133350086D01*
X189187667Y-133350000D01*
X189364547Y-133275164D01*
X189399334Y-133138333D01*
X189474169Y-132961453D01*
X189611000Y-132926666D01*
X189749481Y-132962166D01*
X189810683Y-133105653D01*
X189822667Y-133350000D01*
X189840417Y-133626960D01*
X189912160Y-133749365D01*
X190034334Y-133773333D01*
X190211214Y-133848168D01*
X190246000Y-133985000D01*
X190320836Y-134161880D01*
X190457667Y-134196666D01*
X190575887Y-134219836D01*
X190639767Y-134321616D01*
X190665442Y-134550413D01*
X190669334Y-134831666D01*
X190677057Y-135186327D01*
X190710984Y-135377966D01*
X190787249Y-135454992D01*
X190881000Y-135466666D01*
X191057881Y-135391831D01*
X191092667Y-135255000D01*
X191167503Y-135078119D01*
X191304334Y-135043333D01*
X191481214Y-134968497D01*
X191516000Y-134831666D01*
X191441165Y-134654786D01*
X191304334Y-134620000D01*
X191127454Y-134545164D01*
X191092667Y-134408333D01*
X191167503Y-134231453D01*
X191304334Y-134196666D01*
X191481214Y-134121831D01*
X191516000Y-133985000D01*
X191092667Y-133985000D01*
X191017832Y-134161880D01*
X190881000Y-134196666D01*
X190704120Y-134121831D01*
X190669334Y-133985000D01*
X190594498Y-133808119D01*
X190457667Y-133773333D01*
X190280787Y-133698497D01*
X190246000Y-133561666D01*
X190320836Y-133384786D01*
X190457667Y-133350000D01*
X190634547Y-133424835D01*
X190669334Y-133561666D01*
X190744169Y-133738546D01*
X190881000Y-133773333D01*
X191057881Y-133848168D01*
X191092667Y-133985000D01*
X191516000Y-133985000D01*
X191441165Y-133808119D01*
X191304334Y-133773333D01*
X191127454Y-133698497D01*
X191092667Y-133561666D01*
X191167503Y-133384786D01*
X191304334Y-133350000D01*
X191393684Y-133337539D01*
X191453605Y-133276774D01*
X191489942Y-133132628D01*
X191508541Y-132870025D01*
X191515248Y-132453888D01*
X191516000Y-132080000D01*
X191518077Y-131543897D01*
X191528205Y-131184373D01*
X191552229Y-130966352D01*
X191595996Y-130854757D01*
X191665352Y-130814513D01*
X191727667Y-130810000D01*
X191904547Y-130884835D01*
X191939334Y-131021666D01*
X192014169Y-131198546D01*
X192151000Y-131233333D01*
X192327881Y-131308168D01*
X192362667Y-131445000D01*
X192287832Y-131621880D01*
X192151000Y-131656666D01*
X191974120Y-131731502D01*
X191939334Y-131868333D01*
X192014169Y-132045213D01*
X192151000Y-132080000D01*
X192327881Y-132005164D01*
X192362667Y-131868333D01*
X192437503Y-131691453D01*
X192574334Y-131656666D01*
X192751214Y-131731502D01*
X192786000Y-131868333D01*
X192809170Y-131986553D01*
X192910950Y-132050433D01*
X193139747Y-132076108D01*
X193421000Y-132080000D01*
X193775661Y-132072276D01*
X193967301Y-132038350D01*
X194044326Y-131962084D01*
X194056000Y-131868333D01*
X193981165Y-131691453D01*
X193844334Y-131656666D01*
X193667454Y-131581831D01*
X193632667Y-131445000D01*
X193668167Y-131306519D01*
X193811654Y-131245317D01*
X194056000Y-131233333D01*
X194332961Y-131251083D01*
X194455366Y-131322826D01*
X194479334Y-131445000D01*
X194554169Y-131621880D01*
X194691000Y-131656666D01*
X194867881Y-131581831D01*
X194902667Y-131445000D01*
X194827832Y-131268119D01*
X194691000Y-131233333D01*
X194514120Y-131158497D01*
X194479334Y-131021666D01*
X194554169Y-130844786D01*
X194691000Y-130810000D01*
X194829481Y-130774499D01*
X194890683Y-130631013D01*
X194902667Y-130386666D01*
X194884917Y-130109706D01*
X194813174Y-129987301D01*
X194691000Y-129963333D01*
X194552520Y-129998833D01*
X194491318Y-130142319D01*
X194479334Y-130386666D01*
X194479334Y-130810000D01*
X194056000Y-130810000D01*
X193779040Y-130827750D01*
X193656635Y-130899493D01*
X193632667Y-131021666D01*
X193557832Y-131198546D01*
X193421000Y-131233333D01*
X193282520Y-131197833D01*
X193221318Y-131054346D01*
X193209334Y-130810000D01*
X193209334Y-130386666D01*
X192786000Y-130386666D01*
X192786000Y-130810000D01*
X192362667Y-130810000D01*
X192085707Y-130792249D01*
X191963302Y-130720506D01*
X191939334Y-130598333D01*
X191516000Y-130598333D01*
X191441165Y-130775213D01*
X191304334Y-130810000D01*
X191127454Y-130735164D01*
X191092667Y-130598333D01*
X191167503Y-130421453D01*
X191304334Y-130386666D01*
X191481214Y-130461502D01*
X191516000Y-130598333D01*
X191939334Y-130598333D01*
X192014169Y-130421453D01*
X192151000Y-130386666D01*
X192327881Y-130311831D01*
X192362667Y-130175000D01*
X192287832Y-129998119D01*
X192151000Y-129963333D01*
X191974120Y-129888497D01*
X191939334Y-129751666D01*
X192014169Y-129574786D01*
X192151000Y-129540000D01*
X192327881Y-129614835D01*
X192362667Y-129751666D01*
X192437503Y-129928546D01*
X192574334Y-129963333D01*
X192712814Y-129998833D01*
X192774017Y-130142319D01*
X192786000Y-130386666D01*
X193209334Y-130386666D01*
X194056000Y-130386666D01*
X194056000Y-129540000D01*
X194479334Y-129540000D01*
X194756294Y-129522249D01*
X194878699Y-129450506D01*
X194902667Y-129328333D01*
X194056000Y-129328333D01*
X193981165Y-129505213D01*
X193844334Y-129540000D01*
X193667454Y-129614835D01*
X193632667Y-129751666D01*
X193557832Y-129928546D01*
X193421000Y-129963333D01*
X193244120Y-129888497D01*
X193209334Y-129751666D01*
X193134498Y-129574786D01*
X192997667Y-129540000D01*
X192820787Y-129465164D01*
X192786000Y-129328333D01*
X192860836Y-129151453D01*
X192997667Y-129116666D01*
X193174547Y-129041831D01*
X193209334Y-128905000D01*
X192362667Y-128905000D01*
X192327167Y-129043480D01*
X192183681Y-129104682D01*
X191939334Y-129116666D01*
X191662374Y-129098916D01*
X191539968Y-129027173D01*
X191516000Y-128905000D01*
X191551501Y-128766519D01*
X191694987Y-128705317D01*
X191939334Y-128693333D01*
X192216294Y-128711083D01*
X192338699Y-128782826D01*
X192362667Y-128905000D01*
X193209334Y-128905000D01*
X193284169Y-128728119D01*
X193421000Y-128693333D01*
X193597881Y-128768168D01*
X193632667Y-128905000D01*
X193707503Y-129081880D01*
X193844334Y-129116666D01*
X194021214Y-129191502D01*
X194056000Y-129328333D01*
X194902667Y-129328333D01*
X194867167Y-129189853D01*
X194723681Y-129128650D01*
X194479334Y-129116666D01*
X194202374Y-129098916D01*
X194079968Y-129027173D01*
X194056000Y-128905000D01*
X193981165Y-128728119D01*
X193844334Y-128693333D01*
X193705854Y-128657833D01*
X193644651Y-128514346D01*
X193632667Y-128270000D01*
X193646232Y-128058333D01*
X192786000Y-128058333D01*
X192750500Y-128196813D01*
X192607014Y-128258016D01*
X192362667Y-128270000D01*
X192085707Y-128252249D01*
X191963302Y-128180506D01*
X191939334Y-128058333D01*
X191974834Y-127919853D01*
X192118320Y-127858650D01*
X192362667Y-127846666D01*
X192639627Y-127864416D01*
X192762033Y-127936159D01*
X192786000Y-128058333D01*
X193646232Y-128058333D01*
X193650417Y-127993039D01*
X193722160Y-127870634D01*
X193844334Y-127846666D01*
X194021214Y-127921502D01*
X194056000Y-128058333D01*
X194130836Y-128235213D01*
X194267667Y-128270000D01*
X194444547Y-128344835D01*
X194479334Y-128481666D01*
X194554169Y-128658546D01*
X194691000Y-128693333D01*
X194867881Y-128618497D01*
X194902667Y-128481666D01*
X194827832Y-128304786D01*
X194691000Y-128270000D01*
X194514120Y-128195164D01*
X194479334Y-128058333D01*
X194554169Y-127881453D01*
X194691000Y-127846666D01*
X194829481Y-127811166D01*
X194890683Y-127667680D01*
X194902667Y-127423333D01*
X194479334Y-127423333D01*
X194461584Y-127700293D01*
X194389841Y-127822698D01*
X194267667Y-127846666D01*
X194129187Y-127811166D01*
X194067984Y-127667680D01*
X194056000Y-127423333D01*
X194069566Y-127211666D01*
X192362667Y-127211666D01*
X192287832Y-127388546D01*
X192151000Y-127423333D01*
X191974120Y-127348497D01*
X191939334Y-127211666D01*
X192014169Y-127034786D01*
X192151000Y-127000000D01*
X192327881Y-127074835D01*
X192362667Y-127211666D01*
X194069566Y-127211666D01*
X194073751Y-127146373D01*
X194145494Y-127023967D01*
X194267667Y-127000000D01*
X194406147Y-127035500D01*
X194467350Y-127178986D01*
X194479334Y-127423333D01*
X194902667Y-127423333D01*
X194884917Y-127146373D01*
X194813174Y-127023967D01*
X194691000Y-127000000D01*
X194514120Y-126925164D01*
X194479334Y-126788333D01*
X194554169Y-126611453D01*
X194691000Y-126576666D01*
X194809221Y-126553496D01*
X194873101Y-126451716D01*
X194898776Y-126222919D01*
X194902667Y-125941666D01*
X194894944Y-125587006D01*
X194882787Y-125518333D01*
X194479334Y-125518333D01*
X194404498Y-125695213D01*
X194267667Y-125730000D01*
X194129187Y-125765500D01*
X194067984Y-125908986D01*
X194056000Y-126153333D01*
X194038250Y-126430293D01*
X193966507Y-126552698D01*
X193844334Y-126576666D01*
X193667454Y-126651502D01*
X193632667Y-126788333D01*
X193597167Y-126926813D01*
X193453681Y-126988016D01*
X193209334Y-127000000D01*
X192786000Y-127000000D01*
X192786000Y-126365000D01*
X192362667Y-126365000D01*
X192327167Y-126503480D01*
X192183681Y-126564682D01*
X191939334Y-126576666D01*
X191662374Y-126558916D01*
X191539968Y-126487173D01*
X191516000Y-126365000D01*
X191551501Y-126226519D01*
X191694987Y-126165317D01*
X191939334Y-126153333D01*
X192216294Y-126171083D01*
X192338699Y-126242826D01*
X192362667Y-126365000D01*
X192786000Y-126365000D01*
X192786000Y-125730000D01*
X192362667Y-125730000D01*
X192085707Y-125712249D01*
X191963302Y-125640506D01*
X191939334Y-125518333D01*
X191864498Y-125341453D01*
X191727667Y-125306666D01*
X191550787Y-125231831D01*
X191516000Y-125095000D01*
X191590836Y-124918119D01*
X191727667Y-124883333D01*
X191904547Y-124808497D01*
X191939334Y-124671666D01*
X191974834Y-124533186D01*
X192118320Y-124471983D01*
X192362667Y-124460000D01*
X192639627Y-124477750D01*
X192762033Y-124549493D01*
X192786000Y-124671666D01*
X192860836Y-124848546D01*
X192997667Y-124883333D01*
X193174547Y-124958168D01*
X193209334Y-125095000D01*
X193134498Y-125271880D01*
X192997667Y-125306666D01*
X192820787Y-125381502D01*
X192786000Y-125518333D01*
X192809170Y-125636553D01*
X192910950Y-125700433D01*
X193139747Y-125726108D01*
X193421000Y-125730000D01*
X193775661Y-125722276D01*
X193967301Y-125688350D01*
X194044326Y-125612084D01*
X194056000Y-125518333D01*
X194130836Y-125341453D01*
X194267667Y-125306666D01*
X194444547Y-125381502D01*
X194479334Y-125518333D01*
X194882787Y-125518333D01*
X194861017Y-125395366D01*
X194784752Y-125318340D01*
X194691000Y-125306666D01*
X194514120Y-125231831D01*
X194479334Y-125095000D01*
X194404498Y-124918119D01*
X194267667Y-124883333D01*
X194090787Y-124958168D01*
X194056000Y-125095000D01*
X193981165Y-125271880D01*
X193844334Y-125306666D01*
X193705854Y-125271166D01*
X193644651Y-125127680D01*
X193632667Y-124883333D01*
X193632667Y-124460000D01*
X193209334Y-124460000D01*
X192932374Y-124442249D01*
X192809968Y-124370506D01*
X192786000Y-124248333D01*
X191516000Y-124248333D01*
X191480500Y-124386813D01*
X191337014Y-124448016D01*
X191092667Y-124460000D01*
X190815707Y-124442249D01*
X190693302Y-124370506D01*
X190669334Y-124248333D01*
X190704834Y-124109853D01*
X190848320Y-124048650D01*
X191092667Y-124036666D01*
X191369627Y-124054416D01*
X191492033Y-124126159D01*
X191516000Y-124248333D01*
X192786000Y-124248333D01*
X192762831Y-124130113D01*
X192661051Y-124066233D01*
X192432254Y-124040558D01*
X192151000Y-124036666D01*
X191796340Y-124028943D01*
X191604700Y-123995016D01*
X191527675Y-123918751D01*
X191516000Y-123825000D01*
X191539170Y-123706779D01*
X191640950Y-123642899D01*
X191869747Y-123617224D01*
X192151000Y-123613333D01*
X192505661Y-123605610D01*
X192697301Y-123571683D01*
X192774326Y-123495417D01*
X192786000Y-123401666D01*
X192762831Y-123283446D01*
X192661051Y-123219566D01*
X192432254Y-123193891D01*
X192151000Y-123190000D01*
X191516000Y-123190000D01*
X191516000Y-122766666D01*
X191092667Y-122766666D01*
X191092667Y-123190000D01*
X190669334Y-123190000D01*
X190392374Y-123172249D01*
X190269968Y-123100506D01*
X190246000Y-122978333D01*
X189822667Y-122978333D01*
X189747832Y-123155213D01*
X189611000Y-123190000D01*
X189434120Y-123264835D01*
X189399334Y-123401666D01*
X189324498Y-123578546D01*
X189187667Y-123613333D01*
X189010787Y-123538497D01*
X188976000Y-123401666D01*
X188940500Y-123263186D01*
X188797014Y-123201983D01*
X188552667Y-123190000D01*
X188275707Y-123207750D01*
X188153302Y-123279493D01*
X188129334Y-123401666D01*
X188054498Y-123578546D01*
X187917667Y-123613333D01*
X187740787Y-123538497D01*
X187706000Y-123401666D01*
X187631165Y-123224786D01*
X187494334Y-123190000D01*
X187355854Y-123154499D01*
X187294651Y-123011013D01*
X187282667Y-122766666D01*
X187300417Y-122489706D01*
X187372160Y-122367301D01*
X187494334Y-122343333D01*
X187671214Y-122268497D01*
X187706000Y-122131666D01*
X187741501Y-121993186D01*
X187884987Y-121931983D01*
X188129334Y-121920000D01*
X188552667Y-121920000D01*
X188552667Y-122343333D01*
X188570417Y-122620293D01*
X188642160Y-122742698D01*
X188764334Y-122766666D01*
X188941214Y-122691831D01*
X188976000Y-122555000D01*
X189050836Y-122378119D01*
X189187667Y-122343333D01*
X189364547Y-122418168D01*
X189399334Y-122555000D01*
X189474169Y-122731880D01*
X189611000Y-122766666D01*
X189787881Y-122841502D01*
X189822667Y-122978333D01*
X190246000Y-122978333D01*
X190320836Y-122801453D01*
X190457667Y-122766666D01*
X190634547Y-122691831D01*
X190669334Y-122555000D01*
X190744169Y-122378119D01*
X190881000Y-122343333D01*
X191019481Y-122378833D01*
X191080683Y-122522319D01*
X191092667Y-122766666D01*
X191516000Y-122766666D01*
X191516000Y-121920000D01*
X191092667Y-121920000D01*
X190815707Y-121902249D01*
X190693302Y-121830506D01*
X190669334Y-121708333D01*
X190704834Y-121569853D01*
X190848320Y-121508650D01*
X191092667Y-121496666D01*
X191516000Y-121496666D01*
X191516000Y-121285000D01*
X190669334Y-121285000D01*
X190633834Y-121423480D01*
X190490347Y-121484682D01*
X190246000Y-121496666D01*
X189822667Y-121496666D01*
X189822667Y-121073333D01*
X189840417Y-120796373D01*
X189912160Y-120673967D01*
X190034334Y-120650000D01*
X190211214Y-120724835D01*
X190246000Y-120861666D01*
X190320836Y-121038546D01*
X190457667Y-121073333D01*
X190634547Y-121148168D01*
X190669334Y-121285000D01*
X191516000Y-121285000D01*
X191516000Y-121073333D01*
X191498250Y-120796373D01*
X191426507Y-120673967D01*
X191304334Y-120650000D01*
X191127454Y-120724835D01*
X191092667Y-120861666D01*
X191017832Y-121038546D01*
X190881000Y-121073333D01*
X190742520Y-121037833D01*
X190681318Y-120894346D01*
X190669334Y-120650000D01*
X190669334Y-120226666D01*
X191092667Y-120226666D01*
X191369627Y-120208916D01*
X191492033Y-120137173D01*
X191516000Y-120015000D01*
X191498324Y-119909538D01*
X191416911Y-119846332D01*
X191229183Y-119814738D01*
X190892564Y-119804112D01*
X190669334Y-119803333D01*
X190247488Y-119807752D01*
X189994666Y-119828105D01*
X189868290Y-119875037D01*
X189825783Y-119959192D01*
X189822667Y-120015000D01*
X189747832Y-120191880D01*
X189611000Y-120226666D01*
X189434120Y-120151831D01*
X189399334Y-120015000D01*
X189324498Y-119838119D01*
X189187667Y-119803333D01*
X189069447Y-119826503D01*
X189005567Y-119928283D01*
X188979892Y-120157080D01*
X188976000Y-120438333D01*
X188983724Y-120792993D01*
X189017650Y-120984633D01*
X189093916Y-121061659D01*
X189187667Y-121073333D01*
X189364547Y-121148168D01*
X189399334Y-121285000D01*
X189474169Y-121461880D01*
X189611000Y-121496666D01*
X189787881Y-121571502D01*
X189822667Y-121708333D01*
X189897503Y-121885213D01*
X190034334Y-121920000D01*
X190172814Y-121955500D01*
X190234017Y-122098986D01*
X190246000Y-122343333D01*
X190228250Y-122620293D01*
X190156507Y-122742698D01*
X190034334Y-122766666D01*
X189857454Y-122691831D01*
X189822667Y-122555000D01*
X189747832Y-122378119D01*
X189611000Y-122343333D01*
X189434120Y-122268497D01*
X189399334Y-122131666D01*
X189324498Y-121954786D01*
X189187667Y-121920000D01*
X189010787Y-121845164D01*
X188976000Y-121708333D01*
X188940500Y-121569853D01*
X188797014Y-121508650D01*
X188552667Y-121496666D01*
X188275707Y-121478916D01*
X188153302Y-121407173D01*
X188129334Y-121285000D01*
X187706000Y-121285000D01*
X187631165Y-121461880D01*
X187494334Y-121496666D01*
X187317454Y-121421831D01*
X187282667Y-121285000D01*
X187357503Y-121108119D01*
X187494334Y-121073333D01*
X187671214Y-121148168D01*
X187706000Y-121285000D01*
X188129334Y-121285000D01*
X188204169Y-121108119D01*
X188341000Y-121073333D01*
X188517881Y-120998497D01*
X188552667Y-120861666D01*
X188477832Y-120684786D01*
X188341000Y-120650000D01*
X188202520Y-120614499D01*
X188141318Y-120471013D01*
X188139716Y-120438333D01*
X187706000Y-120438333D01*
X187631165Y-120615213D01*
X187494334Y-120650000D01*
X187317454Y-120575164D01*
X187282667Y-120438333D01*
X187357503Y-120261453D01*
X187494334Y-120226666D01*
X187671214Y-120301502D01*
X187706000Y-120438333D01*
X188139716Y-120438333D01*
X188129334Y-120226666D01*
X188129334Y-119803333D01*
X186859334Y-119803333D01*
X186859334Y-120650000D01*
G36*
X191939334Y-135466666D02*
G01*
X194902667Y-135466666D01*
X194902667Y-132926666D01*
X194479334Y-132926666D01*
X194479334Y-135043333D01*
X192362667Y-135043333D01*
X192362667Y-132926666D01*
X194479334Y-132926666D01*
X194902667Y-132926666D01*
X194902667Y-132503333D01*
X191939334Y-132503333D01*
X191939334Y-135466666D01*
X191939334Y-135466666D01*
G37*
X191939334Y-135466666D02*
X194902667Y-135466666D01*
X194902667Y-132926666D01*
X194479334Y-132926666D01*
X194479334Y-135043333D01*
X192362667Y-135043333D01*
X192362667Y-132926666D01*
X194479334Y-132926666D01*
X194902667Y-132926666D01*
X194902667Y-132503333D01*
X191939334Y-132503333D01*
X191939334Y-135466666D01*
M02*
