M48
; DRILL file {KiCad (5.1.2-1)-1} date Monday, December 30, 2019 at 12:49:20 PM
; FORMAT={3:3/ absolute / metric / suppress leading zeros}
; #@! TF.CreationDate,2019-12-30T12:49:20-08:00
; #@! TF.GenerationSoftware,Kicad,Pcbnew,(5.1.2-1)-1
FMAT,2
METRIC,TZ
T1C0.400
T2C0.700
T3C0.800
T4C0.900
T5C1.000
T6C3.200
%
G90
G05
T1
X132080Y-121096
X133829Y-123683
X139350Y-124195
X140261Y-81232
X141122Y-106739
X145247Y-85404
X145561Y-114796
X149864Y-115320
X151117Y-88053
X152490Y-81915
X154764Y-100965
X158727Y-91366
X160628Y-98866
X161437Y-94716
X172544Y-97231
X175317Y-114303
X175609Y-115320
X177831Y-116433
T2
X131445Y-65913
X131445Y-70993
T3
X141645Y-98425
X144145Y-98425
X108585Y-77470
X108585Y-85090
X148590Y-80645
X148590Y-83185
X148590Y-85725
X148590Y-88265
X148590Y-90805
X148590Y-93345
X148590Y-95885
X148590Y-98425
X148590Y-100965
X148590Y-103505
X148590Y-106045
X148590Y-108585
X148590Y-111125
X148590Y-113665
X163830Y-80645
X163830Y-83185
X163830Y-85725
X163830Y-88265
X163830Y-90805
X163830Y-93345
X163830Y-95885
X163830Y-98425
X163830Y-100965
X163830Y-103505
X163830Y-106045
X163830Y-108585
X163830Y-111125
X163830Y-113665
X141645Y-75565
X144145Y-75565
X170180Y-80645
X170180Y-83185
X170180Y-85725
X170180Y-88265
X170180Y-90805
X170180Y-93345
X170180Y-95885
X170180Y-98425
X170180Y-100965
X170180Y-103505
X170180Y-106045
X170180Y-108585
X170180Y-111125
X170180Y-113665
X177800Y-80645
X177800Y-83185
X177800Y-85725
X177800Y-88265
X177800Y-90805
X177800Y-93345
X177800Y-95885
X177800Y-98425
X177800Y-100965
X177800Y-103505
X177800Y-106045
X177800Y-108585
X177800Y-111125
X177800Y-113665
X108585Y-95250
X108585Y-102870
X112395Y-72390
X112395Y-74930
X112395Y-77470
X112395Y-80010
X112395Y-82550
X112395Y-85090
X112395Y-87630
X112395Y-90170
X112395Y-92710
X112395Y-95250
X112395Y-97790
X112395Y-100330
X112395Y-102870
X112395Y-105410
X112395Y-107950
X112395Y-110490
X112395Y-113030
X112395Y-115570
X112395Y-118110
X112395Y-120650
X127635Y-72390
X127635Y-74930
X127635Y-77470
X127635Y-80010
X127635Y-82550
X127635Y-85090
X127635Y-87630
X127635Y-90170
X127635Y-92710
X127635Y-95250
X127635Y-97790
X127635Y-100330
X127635Y-102870
X127635Y-105410
X127635Y-107950
X127635Y-110490
X127635Y-113030
X127635Y-115570
X127635Y-118110
X127635Y-120650
X117475Y-125730
X117475Y-128230
X152400Y-66040
X152400Y-68540
X189865Y-111125
X189865Y-113665
X189865Y-116205
X189865Y-118745
X197485Y-111125
X197485Y-113665
X197485Y-116205
X197485Y-118745
X108585Y-88900
X108585Y-91400
X135509Y-70866
X138009Y-70866
X156845Y-66040
X156845Y-73660
X159385Y-66040
X159385Y-73660
X161925Y-66040
X161925Y-73660
X164465Y-66040
X164465Y-73660
X167005Y-66040
X167005Y-73660
X169545Y-66040
X169545Y-73660
X172085Y-66040
X172085Y-73660
X136525Y-79375
X136525Y-81915
X136525Y-84455
X136525Y-86995
X136525Y-89535
X136525Y-92075
X136525Y-94615
X144145Y-79375
X144145Y-81915
X144145Y-84455
X144145Y-86995
X144145Y-89535
X144145Y-92075
X144145Y-94615
X131445Y-79375
X131445Y-86995
X149860Y-76835
X157480Y-76835
X182285Y-107315
X184785Y-107315
X123230Y-67310
X125730Y-67310
X136525Y-102235
X136525Y-104775
X136525Y-107315
X136525Y-109855
X136525Y-112395
X136525Y-114935
X136525Y-117475
X136525Y-120015
X144145Y-102235
X144145Y-104775
X144145Y-107315
X144145Y-109855
X144145Y-112395
X144145Y-114935
X144145Y-117475
X144145Y-120015
X174665Y-76835
X177165Y-76835
X135509Y-65913
X138009Y-65913
X189865Y-107315
X192365Y-107315
X161330Y-76835
X163830Y-76835
X182245Y-75565
X182245Y-78105
X182245Y-80645
X182245Y-83185
X182245Y-85725
X182245Y-88265
X182245Y-90805
X182245Y-93345
X182245Y-95885
X182245Y-98425
X182245Y-100965
X182245Y-103505
X197485Y-75565
X197485Y-78105
X197485Y-80645
X197485Y-83185
X197485Y-85725
X197485Y-88265
X197485Y-90805
X197485Y-93345
X197485Y-95885
X197485Y-98425
X197485Y-100965
X197485Y-103505
T4
X131445Y-75565
X139065Y-75565
T5
X179070Y-69215
X181610Y-69215
X184150Y-69215
X186690Y-69215
X189230Y-69215
X191770Y-69215
X129540Y-125730
X129540Y-128270
X132080Y-125730
X132080Y-128270
X134620Y-125730
X134620Y-128270
X137160Y-125730
X137160Y-128270
X139700Y-125730
X139700Y-128270
X142240Y-125730
X142240Y-128270
X144780Y-125730
X144780Y-128270
X147320Y-125730
X147320Y-128270
X149860Y-125730
X149860Y-128270
X152400Y-125730
X152400Y-128270
X154940Y-125730
X154940Y-128270
X157480Y-125730
X157480Y-128270
X160020Y-125730
X160020Y-128270
X162560Y-125730
X162560Y-128270
X165100Y-125730
X165100Y-128270
X167640Y-125730
X167640Y-128270
X170180Y-125730
X170180Y-128270
X172720Y-125730
X172720Y-128270
X175260Y-125730
X175260Y-128270
X177800Y-125730
X177800Y-128270
X146685Y-66040
X146685Y-68580
T6
X198175Y-132795
X109775Y-132795
X109775Y-67230
X198175Y-67230
T0
M30
