G04 #@! TF.GenerationSoftware,KiCad,Pcbnew,(5.1.2-1)-1*
G04 #@! TF.CreationDate,2019-11-16T12:56:51-08:00*
G04 #@! TF.ProjectId,sbc6802,73626336-3830-4322-9e6b-696361645f70,1.0*
G04 #@! TF.SameCoordinates,Original*
G04 #@! TF.FileFunction,Legend,Top*
G04 #@! TF.FilePolarity,Positive*
%FSLAX46Y46*%
G04 Gerber Fmt 4.6, Leading zero omitted, Abs format (unit mm)*
G04 Created by KiCad (PCBNEW (5.1.2-1)-1) date 2019-11-16 12:56:51*
%MOMM*%
%LPD*%
G04 APERTURE LIST*
%ADD10C,0.150000*%
%ADD11C,0.120000*%
G04 APERTURE END LIST*
D10*
X179470000Y-71780476D02*
X179508095Y-71704285D01*
X179508095Y-71590000D01*
X179470000Y-71475714D01*
X179393809Y-71399523D01*
X179317619Y-71361428D01*
X179165238Y-71323333D01*
X179050952Y-71323333D01*
X178898571Y-71361428D01*
X178822380Y-71399523D01*
X178746190Y-71475714D01*
X178708095Y-71590000D01*
X178708095Y-71666190D01*
X178746190Y-71780476D01*
X178784285Y-71818571D01*
X179050952Y-71818571D01*
X179050952Y-71666190D01*
X178708095Y-72161428D02*
X179508095Y-72161428D01*
X178708095Y-72618571D01*
X179508095Y-72618571D01*
X178708095Y-72999523D02*
X179508095Y-72999523D01*
X179508095Y-73190000D01*
X179470000Y-73304285D01*
X179393809Y-73380476D01*
X179317619Y-73418571D01*
X179165238Y-73456666D01*
X179050952Y-73456666D01*
X178898571Y-73418571D01*
X178822380Y-73380476D01*
X178746190Y-73304285D01*
X178708095Y-73190000D01*
X178708095Y-72999523D01*
X182381000Y-71304285D02*
X182381000Y-72104285D01*
X181248095Y-71951904D02*
X181629047Y-71685238D01*
X181248095Y-71494761D02*
X182048095Y-71494761D01*
X182048095Y-71799523D01*
X182010000Y-71875714D01*
X181971904Y-71913809D01*
X181895714Y-71951904D01*
X181781428Y-71951904D01*
X181705238Y-71913809D01*
X181667142Y-71875714D01*
X181629047Y-71799523D01*
X181629047Y-71494761D01*
X182381000Y-72104285D02*
X182381000Y-72713809D01*
X182048095Y-72180476D02*
X182048095Y-72637619D01*
X181248095Y-72409047D02*
X182048095Y-72409047D01*
X182381000Y-72713809D02*
X182381000Y-73475714D01*
X181286190Y-72866190D02*
X181248095Y-72980476D01*
X181248095Y-73170952D01*
X181286190Y-73247142D01*
X181324285Y-73285238D01*
X181400476Y-73323333D01*
X181476666Y-73323333D01*
X181552857Y-73285238D01*
X181590952Y-73247142D01*
X181629047Y-73170952D01*
X181667142Y-73018571D01*
X181705238Y-72942380D01*
X181743333Y-72904285D01*
X181819523Y-72866190D01*
X181895714Y-72866190D01*
X181971904Y-72904285D01*
X182010000Y-72942380D01*
X182048095Y-73018571D01*
X182048095Y-73209047D01*
X182010000Y-73323333D01*
X183788095Y-71761428D02*
X184588095Y-71761428D01*
X183788095Y-72218571D01*
X184588095Y-72218571D01*
X183864285Y-73056666D02*
X183826190Y-73018571D01*
X183788095Y-72904285D01*
X183788095Y-72828095D01*
X183826190Y-72713809D01*
X183902380Y-72637619D01*
X183978571Y-72599523D01*
X184130952Y-72561428D01*
X184245238Y-72561428D01*
X184397619Y-72599523D01*
X184473809Y-72637619D01*
X184550000Y-72713809D01*
X184588095Y-72828095D01*
X184588095Y-72904285D01*
X184550000Y-73018571D01*
X184511904Y-73056666D01*
X186328095Y-71856666D02*
X186709047Y-71590000D01*
X186328095Y-71399523D02*
X187128095Y-71399523D01*
X187128095Y-71704285D01*
X187090000Y-71780476D01*
X187051904Y-71818571D01*
X186975714Y-71856666D01*
X186861428Y-71856666D01*
X186785238Y-71818571D01*
X186747142Y-71780476D01*
X186709047Y-71704285D01*
X186709047Y-71399523D01*
X187128095Y-72123333D02*
X186328095Y-72656666D01*
X187128095Y-72656666D02*
X186328095Y-72123333D01*
X186328095Y-72961428D02*
X187128095Y-72961428D01*
X187128095Y-73151904D01*
X187090000Y-73266190D01*
X187013809Y-73342380D01*
X186937619Y-73380476D01*
X186785238Y-73418571D01*
X186670952Y-73418571D01*
X186518571Y-73380476D01*
X186442380Y-73342380D01*
X186366190Y-73266190D01*
X186328095Y-73151904D01*
X186328095Y-72961428D01*
X189668095Y-71380476D02*
X189668095Y-71837619D01*
X188868095Y-71609047D02*
X189668095Y-71609047D01*
X189668095Y-72028095D02*
X188868095Y-72561428D01*
X189668095Y-72561428D02*
X188868095Y-72028095D01*
X188868095Y-72866190D02*
X189668095Y-72866190D01*
X189668095Y-73056666D01*
X189630000Y-73170952D01*
X189553809Y-73247142D01*
X189477619Y-73285238D01*
X189325238Y-73323333D01*
X189210952Y-73323333D01*
X189058571Y-73285238D01*
X188982380Y-73247142D01*
X188906190Y-73170952D01*
X188868095Y-73056666D01*
X188868095Y-72866190D01*
X192541000Y-71304285D02*
X192541000Y-72104285D01*
X191484285Y-71951904D02*
X191446190Y-71913809D01*
X191408095Y-71799523D01*
X191408095Y-71723333D01*
X191446190Y-71609047D01*
X191522380Y-71532857D01*
X191598571Y-71494761D01*
X191750952Y-71456666D01*
X191865238Y-71456666D01*
X192017619Y-71494761D01*
X192093809Y-71532857D01*
X192170000Y-71609047D01*
X192208095Y-71723333D01*
X192208095Y-71799523D01*
X192170000Y-71913809D01*
X192131904Y-71951904D01*
X192541000Y-72104285D02*
X192541000Y-72713809D01*
X192208095Y-72180476D02*
X192208095Y-72637619D01*
X191408095Y-72409047D02*
X192208095Y-72409047D01*
X192541000Y-72713809D02*
X192541000Y-73475714D01*
X191446190Y-72866190D02*
X191408095Y-72980476D01*
X191408095Y-73170952D01*
X191446190Y-73247142D01*
X191484285Y-73285238D01*
X191560476Y-73323333D01*
X191636666Y-73323333D01*
X191712857Y-73285238D01*
X191750952Y-73247142D01*
X191789047Y-73170952D01*
X191827142Y-73018571D01*
X191865238Y-72942380D01*
X191903333Y-72904285D01*
X191979523Y-72866190D01*
X192055714Y-72866190D01*
X192131904Y-72904285D01*
X192170000Y-72942380D01*
X192208095Y-73018571D01*
X192208095Y-73209047D01*
X192170000Y-73323333D01*
X183834285Y-126329285D02*
X183572380Y-126329285D01*
X183572380Y-124757857D01*
X183834285Y-124757857D01*
X184200952Y-125910238D02*
X184358095Y-125962619D01*
X184620000Y-125962619D01*
X184724761Y-125910238D01*
X184777142Y-125857857D01*
X184829523Y-125753095D01*
X184829523Y-125648333D01*
X184777142Y-125543571D01*
X184724761Y-125491190D01*
X184620000Y-125438809D01*
X184410476Y-125386428D01*
X184305714Y-125334047D01*
X184253333Y-125281666D01*
X184200952Y-125176904D01*
X184200952Y-125072142D01*
X184253333Y-124967380D01*
X184305714Y-124915000D01*
X184410476Y-124862619D01*
X184672380Y-124862619D01*
X184829523Y-124915000D01*
X185667619Y-125386428D02*
X185824761Y-125438809D01*
X185877142Y-125491190D01*
X185929523Y-125595952D01*
X185929523Y-125753095D01*
X185877142Y-125857857D01*
X185824761Y-125910238D01*
X185720000Y-125962619D01*
X185300952Y-125962619D01*
X185300952Y-124862619D01*
X185667619Y-124862619D01*
X185772380Y-124915000D01*
X185824761Y-124967380D01*
X185877142Y-125072142D01*
X185877142Y-125176904D01*
X185824761Y-125281666D01*
X185772380Y-125334047D01*
X185667619Y-125386428D01*
X185300952Y-125386428D01*
X187029523Y-125857857D02*
X186977142Y-125910238D01*
X186820000Y-125962619D01*
X186715238Y-125962619D01*
X186558095Y-125910238D01*
X186453333Y-125805476D01*
X186400952Y-125700714D01*
X186348571Y-125491190D01*
X186348571Y-125334047D01*
X186400952Y-125124523D01*
X186453333Y-125019761D01*
X186558095Y-124915000D01*
X186715238Y-124862619D01*
X186820000Y-124862619D01*
X186977142Y-124915000D01*
X187029523Y-124967380D01*
X187972380Y-124862619D02*
X187762857Y-124862619D01*
X187658095Y-124915000D01*
X187605714Y-124967380D01*
X187500952Y-125124523D01*
X187448571Y-125334047D01*
X187448571Y-125753095D01*
X187500952Y-125857857D01*
X187553333Y-125910238D01*
X187658095Y-125962619D01*
X187867619Y-125962619D01*
X187972380Y-125910238D01*
X188024761Y-125857857D01*
X188077142Y-125753095D01*
X188077142Y-125491190D01*
X188024761Y-125386428D01*
X187972380Y-125334047D01*
X187867619Y-125281666D01*
X187658095Y-125281666D01*
X187553333Y-125334047D01*
X187500952Y-125386428D01*
X187448571Y-125491190D01*
X188705714Y-125334047D02*
X188600952Y-125281666D01*
X188548571Y-125229285D01*
X188496190Y-125124523D01*
X188496190Y-125072142D01*
X188548571Y-124967380D01*
X188600952Y-124915000D01*
X188705714Y-124862619D01*
X188915238Y-124862619D01*
X189020000Y-124915000D01*
X189072380Y-124967380D01*
X189124761Y-125072142D01*
X189124761Y-125124523D01*
X189072380Y-125229285D01*
X189020000Y-125281666D01*
X188915238Y-125334047D01*
X188705714Y-125334047D01*
X188600952Y-125386428D01*
X188548571Y-125438809D01*
X188496190Y-125543571D01*
X188496190Y-125753095D01*
X188548571Y-125857857D01*
X188600952Y-125910238D01*
X188705714Y-125962619D01*
X188915238Y-125962619D01*
X189020000Y-125910238D01*
X189072380Y-125857857D01*
X189124761Y-125753095D01*
X189124761Y-125543571D01*
X189072380Y-125438809D01*
X189020000Y-125386428D01*
X188915238Y-125334047D01*
X189805714Y-124862619D02*
X189910476Y-124862619D01*
X190015238Y-124915000D01*
X190067619Y-124967380D01*
X190120000Y-125072142D01*
X190172380Y-125281666D01*
X190172380Y-125543571D01*
X190120000Y-125753095D01*
X190067619Y-125857857D01*
X190015238Y-125910238D01*
X189910476Y-125962619D01*
X189805714Y-125962619D01*
X189700952Y-125910238D01*
X189648571Y-125857857D01*
X189596190Y-125753095D01*
X189543809Y-125543571D01*
X189543809Y-125281666D01*
X189596190Y-125072142D01*
X189648571Y-124967380D01*
X189700952Y-124915000D01*
X189805714Y-124862619D01*
X190591428Y-124967380D02*
X190643809Y-124915000D01*
X190748571Y-124862619D01*
X191010476Y-124862619D01*
X191115238Y-124915000D01*
X191167619Y-124967380D01*
X191220000Y-125072142D01*
X191220000Y-125176904D01*
X191167619Y-125334047D01*
X190539047Y-125962619D01*
X191220000Y-125962619D01*
X192529523Y-125229285D02*
X192529523Y-126329285D01*
X192529523Y-125281666D02*
X192634285Y-125229285D01*
X192843809Y-125229285D01*
X192948571Y-125281666D01*
X193000952Y-125334047D01*
X193053333Y-125438809D01*
X193053333Y-125753095D01*
X193000952Y-125857857D01*
X192948571Y-125910238D01*
X192843809Y-125962619D01*
X192634285Y-125962619D01*
X192529523Y-125910238D01*
X193681904Y-125962619D02*
X193577142Y-125910238D01*
X193524761Y-125805476D01*
X193524761Y-124862619D01*
X194572380Y-125229285D02*
X194572380Y-125962619D01*
X194100952Y-125229285D02*
X194100952Y-125805476D01*
X194153333Y-125910238D01*
X194258095Y-125962619D01*
X194415238Y-125962619D01*
X194520000Y-125910238D01*
X194572380Y-125857857D01*
X195043809Y-125910238D02*
X195148571Y-125962619D01*
X195358095Y-125962619D01*
X195462857Y-125910238D01*
X195515238Y-125805476D01*
X195515238Y-125753095D01*
X195462857Y-125648333D01*
X195358095Y-125595952D01*
X195200952Y-125595952D01*
X195096190Y-125543571D01*
X195043809Y-125438809D01*
X195043809Y-125386428D01*
X195096190Y-125281666D01*
X195200952Y-125229285D01*
X195358095Y-125229285D01*
X195462857Y-125281666D01*
X197191428Y-125386428D02*
X197348571Y-125438809D01*
X197400952Y-125491190D01*
X197453333Y-125595952D01*
X197453333Y-125753095D01*
X197400952Y-125857857D01*
X197348571Y-125910238D01*
X197243809Y-125962619D01*
X196824761Y-125962619D01*
X196824761Y-124862619D01*
X197191428Y-124862619D01*
X197296190Y-124915000D01*
X197348571Y-124967380D01*
X197400952Y-125072142D01*
X197400952Y-125176904D01*
X197348571Y-125281666D01*
X197296190Y-125334047D01*
X197191428Y-125386428D01*
X196824761Y-125386428D01*
X198396190Y-125229285D02*
X198396190Y-125962619D01*
X197924761Y-125229285D02*
X197924761Y-125805476D01*
X197977142Y-125910238D01*
X198081904Y-125962619D01*
X198239047Y-125962619D01*
X198343809Y-125910238D01*
X198396190Y-125857857D01*
X198867619Y-125910238D02*
X198972380Y-125962619D01*
X199181904Y-125962619D01*
X199286666Y-125910238D01*
X199339047Y-125805476D01*
X199339047Y-125753095D01*
X199286666Y-125648333D01*
X199181904Y-125595952D01*
X199024761Y-125595952D01*
X198920000Y-125543571D01*
X198867619Y-125438809D01*
X198867619Y-125386428D01*
X198920000Y-125281666D01*
X199024761Y-125229285D01*
X199181904Y-125229285D01*
X199286666Y-125281666D01*
X199705714Y-126329285D02*
X199967619Y-126329285D01*
X199967619Y-124757857D01*
X199705714Y-124757857D01*
X185405714Y-126767380D02*
X185458095Y-126715000D01*
X185562857Y-126662619D01*
X185824761Y-126662619D01*
X185929523Y-126715000D01*
X185981904Y-126767380D01*
X186034285Y-126872142D01*
X186034285Y-126976904D01*
X185981904Y-127134047D01*
X185353333Y-127762619D01*
X186034285Y-127762619D01*
X186715238Y-126662619D02*
X186820000Y-126662619D01*
X186924761Y-126715000D01*
X186977142Y-126767380D01*
X187029523Y-126872142D01*
X187081904Y-127081666D01*
X187081904Y-127343571D01*
X187029523Y-127553095D01*
X186977142Y-127657857D01*
X186924761Y-127710238D01*
X186820000Y-127762619D01*
X186715238Y-127762619D01*
X186610476Y-127710238D01*
X186558095Y-127657857D01*
X186505714Y-127553095D01*
X186453333Y-127343571D01*
X186453333Y-127081666D01*
X186505714Y-126872142D01*
X186558095Y-126767380D01*
X186610476Y-126715000D01*
X186715238Y-126662619D01*
X188129523Y-127762619D02*
X187500952Y-127762619D01*
X187815238Y-127762619D02*
X187815238Y-126662619D01*
X187710476Y-126819761D01*
X187605714Y-126924523D01*
X187500952Y-126976904D01*
X188653333Y-127762619D02*
X188862857Y-127762619D01*
X188967619Y-127710238D01*
X189020000Y-127657857D01*
X189124761Y-127500714D01*
X189177142Y-127291190D01*
X189177142Y-126872142D01*
X189124761Y-126767380D01*
X189072380Y-126715000D01*
X188967619Y-126662619D01*
X188758095Y-126662619D01*
X188653333Y-126715000D01*
X188600952Y-126767380D01*
X188548571Y-126872142D01*
X188548571Y-127134047D01*
X188600952Y-127238809D01*
X188653333Y-127291190D01*
X188758095Y-127343571D01*
X188967619Y-127343571D01*
X189072380Y-127291190D01*
X189124761Y-127238809D01*
X189177142Y-127134047D01*
X191115238Y-127762619D02*
X190748571Y-127238809D01*
X190486666Y-127762619D02*
X190486666Y-126662619D01*
X190905714Y-126662619D01*
X191010476Y-126715000D01*
X191062857Y-126767380D01*
X191115238Y-126872142D01*
X191115238Y-127029285D01*
X191062857Y-127134047D01*
X191010476Y-127186428D01*
X190905714Y-127238809D01*
X190486666Y-127238809D01*
X191481904Y-127029285D02*
X191743809Y-127762619D01*
X192005714Y-127029285D02*
X191743809Y-127762619D01*
X191639047Y-128024523D01*
X191586666Y-128076904D01*
X191481904Y-128129285D01*
X192896190Y-127029285D02*
X192896190Y-127762619D01*
X192424761Y-127029285D02*
X192424761Y-127605476D01*
X192477142Y-127710238D01*
X192581904Y-127762619D01*
X192739047Y-127762619D01*
X192843809Y-127710238D01*
X192896190Y-127657857D01*
X193367619Y-127710238D02*
X193524761Y-127762619D01*
X193786666Y-127762619D01*
X193891428Y-127710238D01*
X193943809Y-127657857D01*
X193996190Y-127553095D01*
X193996190Y-127448333D01*
X193943809Y-127343571D01*
X193891428Y-127291190D01*
X193786666Y-127238809D01*
X193577142Y-127186428D01*
X193472380Y-127134047D01*
X193420000Y-127081666D01*
X193367619Y-126976904D01*
X193367619Y-126872142D01*
X193420000Y-126767380D01*
X193472380Y-126715000D01*
X193577142Y-126662619D01*
X193839047Y-126662619D01*
X193996190Y-126715000D01*
X194310476Y-127029285D02*
X194729523Y-127029285D01*
X194467619Y-126662619D02*
X194467619Y-127605476D01*
X194520000Y-127710238D01*
X194624761Y-127762619D01*
X194729523Y-127762619D01*
X195567619Y-127029285D02*
X195567619Y-127762619D01*
X195096190Y-127029285D02*
X195096190Y-127605476D01*
X195148571Y-127710238D01*
X195253333Y-127762619D01*
X195410476Y-127762619D01*
X195515238Y-127710238D01*
X195567619Y-127657857D01*
X196562857Y-127762619D02*
X196562857Y-126662619D01*
X196562857Y-127710238D02*
X196458095Y-127762619D01*
X196248571Y-127762619D01*
X196143809Y-127710238D01*
X196091428Y-127657857D01*
X196039047Y-127553095D01*
X196039047Y-127238809D01*
X196091428Y-127134047D01*
X196143809Y-127081666D01*
X196248571Y-127029285D01*
X196458095Y-127029285D01*
X196562857Y-127081666D01*
X197086666Y-127762619D02*
X197086666Y-127029285D01*
X197086666Y-126662619D02*
X197034285Y-126715000D01*
X197086666Y-126767380D01*
X197139047Y-126715000D01*
X197086666Y-126662619D01*
X197086666Y-126767380D01*
X197767619Y-127762619D02*
X197662857Y-127710238D01*
X197610476Y-127657857D01*
X197558095Y-127553095D01*
X197558095Y-127238809D01*
X197610476Y-127134047D01*
X197662857Y-127081666D01*
X197767619Y-127029285D01*
X197924761Y-127029285D01*
X198029523Y-127081666D01*
X198081904Y-127134047D01*
X198134285Y-127238809D01*
X198134285Y-127553095D01*
X198081904Y-127657857D01*
X198029523Y-127710238D01*
X197924761Y-127762619D01*
X197767619Y-127762619D01*
D11*
X104775000Y-62230000D02*
X104775000Y-63500000D01*
X203105000Y-62230000D02*
X104775000Y-62230000D01*
X203105000Y-137795000D02*
X203105000Y-62230000D01*
X104775000Y-137795000D02*
X203105000Y-137795000D01*
X104775000Y-62865000D02*
X104775000Y-137795000D01*
X137375000Y-74780000D02*
X137375000Y-72540000D01*
X137375000Y-72540000D02*
X133135000Y-72540000D01*
X133135000Y-72540000D02*
X133135000Y-74780000D01*
X133135000Y-74780000D02*
X137375000Y-74780000D01*
X138025000Y-73660000D02*
X137375000Y-73660000D01*
X132485000Y-73660000D02*
X133135000Y-73660000D01*
X136655000Y-74780000D02*
X136655000Y-72540000D01*
X136535000Y-74780000D02*
X136535000Y-72540000D01*
X136775000Y-74780000D02*
X136775000Y-72540000D01*
X126792288Y-68870000D02*
X126792288Y-68420000D01*
X127017288Y-68645000D02*
X126567288Y-68645000D01*
X126599740Y-66250000D02*
G75*
G03X126599741Y-68370000I-2119740J-1060000D01*
G01*
X139835000Y-67470000D02*
X139835000Y-68095000D01*
X139835000Y-65255000D02*
X139835000Y-65880000D01*
X135795000Y-67470000D02*
X135795000Y-68095000D01*
X135795000Y-65255000D02*
X135795000Y-65880000D01*
X135795000Y-68095000D02*
X139835000Y-68095000D01*
X135795000Y-65255000D02*
X139835000Y-65255000D01*
X145355000Y-69910000D02*
X148015000Y-69910000D01*
X145355000Y-67310000D02*
X145355000Y-69910000D01*
X148015000Y-67310000D02*
X148015000Y-69910000D01*
X145355000Y-67310000D02*
X148015000Y-67310000D01*
X145355000Y-66040000D02*
X145355000Y-64710000D01*
X145355000Y-64710000D02*
X146685000Y-64710000D01*
X132815000Y-78010000D02*
X132485000Y-78010000D01*
X132815000Y-84550000D02*
X132815000Y-78010000D01*
X132485000Y-84550000D02*
X132815000Y-84550000D01*
X130075000Y-78010000D02*
X130405000Y-78010000D01*
X130075000Y-84550000D02*
X130075000Y-78010000D01*
X130405000Y-84550000D02*
X130075000Y-84550000D01*
X107545000Y-102330000D02*
X107215000Y-102330000D01*
X107215000Y-102330000D02*
X107215000Y-95790000D01*
X107215000Y-95790000D02*
X107545000Y-95790000D01*
X109625000Y-102330000D02*
X109955000Y-102330000D01*
X109955000Y-102330000D02*
X109955000Y-95790000D01*
X109955000Y-95790000D02*
X109625000Y-95790000D01*
X150400000Y-75795000D02*
X150400000Y-75465000D01*
X150400000Y-75465000D02*
X156940000Y-75465000D01*
X156940000Y-75465000D02*
X156940000Y-75795000D01*
X150400000Y-77875000D02*
X150400000Y-78205000D01*
X150400000Y-78205000D02*
X156940000Y-78205000D01*
X156940000Y-78205000D02*
X156940000Y-77875000D01*
X107215000Y-84550000D02*
X107545000Y-84550000D01*
X107215000Y-78010000D02*
X107215000Y-84550000D01*
X107545000Y-78010000D02*
X107215000Y-78010000D01*
X109955000Y-84550000D02*
X109625000Y-84550000D01*
X109955000Y-78010000D02*
X109955000Y-84550000D01*
X109625000Y-78010000D02*
X109955000Y-78010000D01*
X128210000Y-124400000D02*
X128210000Y-129600000D01*
X176530000Y-124400000D02*
X128210000Y-124400000D01*
X179130000Y-129600000D02*
X128210000Y-129600000D01*
X176530000Y-124400000D02*
X176530000Y-127000000D01*
X176530000Y-127000000D02*
X179130000Y-127000000D01*
X179130000Y-127000000D02*
X179130000Y-129600000D01*
X177800000Y-124400000D02*
X179130000Y-124400000D01*
X179130000Y-124400000D02*
X179130000Y-125730000D01*
X121015000Y-71060000D02*
G75*
G02X119015000Y-71060000I-1000000J0D01*
G01*
X119015000Y-71060000D02*
X113555000Y-71060000D01*
X113555000Y-71060000D02*
X113555000Y-121980000D01*
X113555000Y-121980000D02*
X126475000Y-121980000D01*
X126475000Y-121980000D02*
X126475000Y-71060000D01*
X126475000Y-71060000D02*
X121015000Y-71060000D01*
X155515000Y-67200000D02*
X155515000Y-68850000D01*
X173415000Y-67200000D02*
X155515000Y-67200000D01*
X173415000Y-72500000D02*
X173415000Y-67200000D01*
X155515000Y-72500000D02*
X173415000Y-72500000D01*
X155515000Y-70850000D02*
X155515000Y-72500000D01*
X155515000Y-68850000D02*
G75*
G02X155515000Y-70850000I0J-1000000D01*
G01*
X141335000Y-78045000D02*
G75*
G02X139335000Y-78045000I-1000000J0D01*
G01*
X139335000Y-78045000D02*
X137685000Y-78045000D01*
X137685000Y-78045000D02*
X137685000Y-95945000D01*
X137685000Y-95945000D02*
X142985000Y-95945000D01*
X142985000Y-95945000D02*
X142985000Y-78045000D01*
X142985000Y-78045000D02*
X141335000Y-78045000D01*
X141335000Y-100905000D02*
G75*
G02X139335000Y-100905000I-1000000J0D01*
G01*
X139335000Y-100905000D02*
X137685000Y-100905000D01*
X137685000Y-100905000D02*
X137685000Y-121345000D01*
X137685000Y-121345000D02*
X142985000Y-121345000D01*
X142985000Y-121345000D02*
X142985000Y-100905000D01*
X142985000Y-100905000D02*
X141335000Y-100905000D01*
X157210000Y-79315000D02*
G75*
G02X155210000Y-79315000I-1000000J0D01*
G01*
X155210000Y-79315000D02*
X149750000Y-79315000D01*
X149750000Y-79315000D02*
X149750000Y-114995000D01*
X149750000Y-114995000D02*
X162670000Y-114995000D01*
X162670000Y-114995000D02*
X162670000Y-79315000D01*
X162670000Y-79315000D02*
X157210000Y-79315000D01*
X174990000Y-79315000D02*
G75*
G02X172990000Y-79315000I-1000000J0D01*
G01*
X172990000Y-79315000D02*
X171340000Y-79315000D01*
X171340000Y-79315000D02*
X171340000Y-114995000D01*
X171340000Y-114995000D02*
X176640000Y-114995000D01*
X176640000Y-114995000D02*
X176640000Y-79315000D01*
X176640000Y-79315000D02*
X174990000Y-79315000D01*
X195945000Y-109795000D02*
G75*
G02X193945000Y-109795000I-1000000J0D01*
G01*
X193945000Y-109795000D02*
X192295000Y-109795000D01*
X192295000Y-109795000D02*
X192295000Y-120075000D01*
X192295000Y-120075000D02*
X197595000Y-120075000D01*
X197595000Y-120075000D02*
X197595000Y-109795000D01*
X197595000Y-109795000D02*
X195945000Y-109795000D01*
X192135000Y-74235000D02*
G75*
G02X190135000Y-74235000I-1000000J0D01*
G01*
X190135000Y-74235000D02*
X184675000Y-74235000D01*
X184675000Y-74235000D02*
X184675000Y-104835000D01*
X184675000Y-104835000D02*
X197595000Y-104835000D01*
X197595000Y-104835000D02*
X197595000Y-74235000D01*
X197595000Y-74235000D02*
X192135000Y-74235000D01*
X132365000Y-66660000D02*
X132365000Y-70500000D01*
X130525000Y-66660000D02*
X130525000Y-70500000D01*
X190365000Y-105895000D02*
X194405000Y-105895000D01*
X190365000Y-108735000D02*
X194405000Y-108735000D01*
X190365000Y-105895000D02*
X190365000Y-106520000D01*
X190365000Y-108110000D02*
X190365000Y-108735000D01*
X194405000Y-105895000D02*
X194405000Y-106520000D01*
X194405000Y-108110000D02*
X194405000Y-108735000D01*
X173895000Y-76040000D02*
X173895000Y-75415000D01*
X173895000Y-78255000D02*
X173895000Y-77630000D01*
X177935000Y-76040000D02*
X177935000Y-75415000D01*
X177935000Y-78255000D02*
X177935000Y-77630000D01*
X177935000Y-75415000D02*
X173895000Y-75415000D01*
X177935000Y-78255000D02*
X173895000Y-78255000D01*
X186785000Y-108110000D02*
X186785000Y-108735000D01*
X186785000Y-105895000D02*
X186785000Y-106520000D01*
X182745000Y-108110000D02*
X182745000Y-108735000D01*
X182745000Y-105895000D02*
X182745000Y-106520000D01*
X182745000Y-108735000D02*
X186785000Y-108735000D01*
X182745000Y-105895000D02*
X186785000Y-105895000D01*
X135795000Y-68430000D02*
X139835000Y-68430000D01*
X135795000Y-71270000D02*
X139835000Y-71270000D01*
X135795000Y-68430000D02*
X135795000Y-69055000D01*
X135795000Y-70645000D02*
X135795000Y-71270000D01*
X139835000Y-68430000D02*
X139835000Y-69055000D01*
X139835000Y-70645000D02*
X139835000Y-71270000D01*
X109380000Y-88130000D02*
X110005000Y-88130000D01*
X107165000Y-88130000D02*
X107790000Y-88130000D01*
X109380000Y-92170000D02*
X110005000Y-92170000D01*
X107165000Y-92170000D02*
X107790000Y-92170000D01*
X110005000Y-92170000D02*
X110005000Y-88130000D01*
X107165000Y-92170000D02*
X107165000Y-88130000D01*
X153820000Y-65270000D02*
X153820000Y-69310000D01*
X150980000Y-65270000D02*
X150980000Y-69310000D01*
X153820000Y-65270000D02*
X153195000Y-65270000D01*
X151605000Y-65270000D02*
X150980000Y-65270000D01*
X153820000Y-69310000D02*
X153195000Y-69310000D01*
X151605000Y-69310000D02*
X150980000Y-69310000D01*
X120860000Y-124860260D02*
G75*
G03X122980000Y-124860259I1060000J-2119740D01*
G01*
X123255000Y-124442712D02*
X123255000Y-124892712D01*
X123480000Y-124667712D02*
X123030000Y-124667712D01*
X140875000Y-74770000D02*
X140875000Y-74145000D01*
X140875000Y-76985000D02*
X140875000Y-76360000D01*
X144915000Y-74770000D02*
X144915000Y-74145000D01*
X144915000Y-76985000D02*
X144915000Y-76360000D01*
X144915000Y-74145000D02*
X140875000Y-74145000D01*
X144915000Y-76985000D02*
X140875000Y-76985000D01*
X144915000Y-99845000D02*
X140875000Y-99845000D01*
X144915000Y-97005000D02*
X140875000Y-97005000D01*
X144915000Y-99845000D02*
X144915000Y-99220000D01*
X144915000Y-97630000D02*
X144915000Y-97005000D01*
X140875000Y-99845000D02*
X140875000Y-99220000D01*
X140875000Y-97630000D02*
X140875000Y-97005000D01*
X164600000Y-78255000D02*
X160560000Y-78255000D01*
X164600000Y-75415000D02*
X160560000Y-75415000D01*
X164600000Y-78255000D02*
X164600000Y-77630000D01*
X164600000Y-76040000D02*
X164600000Y-75415000D01*
X160560000Y-78255000D02*
X160560000Y-77630000D01*
X160560000Y-76040000D02*
X160560000Y-75415000D01*
D10*
X193762380Y-69548333D02*
X194476666Y-69548333D01*
X194619523Y-69595952D01*
X194714761Y-69691190D01*
X194762380Y-69834047D01*
X194762380Y-69929285D01*
X193857619Y-69119761D02*
X193810000Y-69072142D01*
X193762380Y-68976904D01*
X193762380Y-68738809D01*
X193810000Y-68643571D01*
X193857619Y-68595952D01*
X193952857Y-68548333D01*
X194048095Y-68548333D01*
X194190952Y-68595952D01*
X194762380Y-69167380D01*
X194762380Y-68548333D01*
X134516904Y-76232380D02*
X134516904Y-75232380D01*
X134755000Y-75232380D01*
X134897857Y-75280000D01*
X134993095Y-75375238D01*
X135040714Y-75470476D01*
X135088333Y-75660952D01*
X135088333Y-75803809D01*
X135040714Y-75994285D01*
X134993095Y-76089523D01*
X134897857Y-76184761D01*
X134755000Y-76232380D01*
X134516904Y-76232380D01*
X136040714Y-76232380D02*
X135469285Y-76232380D01*
X135755000Y-76232380D02*
X135755000Y-75232380D01*
X135659761Y-75375238D01*
X135564523Y-75470476D01*
X135469285Y-75518095D01*
X138803095Y-75912380D02*
X138803095Y-74912380D01*
X139374523Y-75912380D02*
X138945952Y-75340952D01*
X139374523Y-74912380D02*
X138803095Y-75483809D01*
X124313333Y-64492142D02*
X124265714Y-64539761D01*
X124122857Y-64587380D01*
X124027619Y-64587380D01*
X123884761Y-64539761D01*
X123789523Y-64444523D01*
X123741904Y-64349285D01*
X123694285Y-64158809D01*
X123694285Y-64015952D01*
X123741904Y-63825476D01*
X123789523Y-63730238D01*
X123884761Y-63635000D01*
X124027619Y-63587380D01*
X124122857Y-63587380D01*
X124265714Y-63635000D01*
X124313333Y-63682619D01*
X125265714Y-64587380D02*
X124694285Y-64587380D01*
X124980000Y-64587380D02*
X124980000Y-63587380D01*
X124884761Y-63730238D01*
X124789523Y-63825476D01*
X124694285Y-63873095D01*
X141327142Y-66841666D02*
X141374761Y-66889285D01*
X141422380Y-67032142D01*
X141422380Y-67127380D01*
X141374761Y-67270238D01*
X141279523Y-67365476D01*
X141184285Y-67413095D01*
X140993809Y-67460714D01*
X140850952Y-67460714D01*
X140660476Y-67413095D01*
X140565238Y-67365476D01*
X140470000Y-67270238D01*
X140422380Y-67127380D01*
X140422380Y-67032142D01*
X140470000Y-66889285D01*
X140517619Y-66841666D01*
X140517619Y-66460714D02*
X140470000Y-66413095D01*
X140422380Y-66317857D01*
X140422380Y-66079761D01*
X140470000Y-65984523D01*
X140517619Y-65936904D01*
X140612857Y-65889285D01*
X140708095Y-65889285D01*
X140850952Y-65936904D01*
X141422380Y-66508333D01*
X141422380Y-65889285D01*
X145851666Y-70572380D02*
X145851666Y-71286666D01*
X145804047Y-71429523D01*
X145708809Y-71524761D01*
X145565952Y-71572380D01*
X145470714Y-71572380D01*
X146327857Y-71572380D02*
X146327857Y-70572380D01*
X146708809Y-70572380D01*
X146804047Y-70620000D01*
X146851666Y-70667619D01*
X146899285Y-70762857D01*
X146899285Y-70905714D01*
X146851666Y-71000952D01*
X146804047Y-71048571D01*
X146708809Y-71096190D01*
X146327857Y-71096190D01*
X147851666Y-71572380D02*
X147280238Y-71572380D01*
X147565952Y-71572380D02*
X147565952Y-70572380D01*
X147470714Y-70715238D01*
X147375476Y-70810476D01*
X147280238Y-70858095D01*
X134437380Y-81446666D02*
X133961190Y-81780000D01*
X134437380Y-82018095D02*
X133437380Y-82018095D01*
X133437380Y-81637142D01*
X133485000Y-81541904D01*
X133532619Y-81494285D01*
X133627857Y-81446666D01*
X133770714Y-81446666D01*
X133865952Y-81494285D01*
X133913571Y-81541904D01*
X133961190Y-81637142D01*
X133961190Y-82018095D01*
X134437380Y-80494285D02*
X134437380Y-81065714D01*
X134437380Y-80780000D02*
X133437380Y-80780000D01*
X133580238Y-80875238D01*
X133675476Y-80970476D01*
X133723095Y-81065714D01*
X106667380Y-99226666D02*
X106191190Y-99560000D01*
X106667380Y-99798095D02*
X105667380Y-99798095D01*
X105667380Y-99417142D01*
X105715000Y-99321904D01*
X105762619Y-99274285D01*
X105857857Y-99226666D01*
X106000714Y-99226666D01*
X106095952Y-99274285D01*
X106143571Y-99321904D01*
X106191190Y-99417142D01*
X106191190Y-99798095D01*
X105762619Y-98845714D02*
X105715000Y-98798095D01*
X105667380Y-98702857D01*
X105667380Y-98464761D01*
X105715000Y-98369523D01*
X105762619Y-98321904D01*
X105857857Y-98274285D01*
X105953095Y-98274285D01*
X106095952Y-98321904D01*
X106667380Y-98893333D01*
X106667380Y-98274285D01*
X153503333Y-74917380D02*
X153170000Y-74441190D01*
X152931904Y-74917380D02*
X152931904Y-73917380D01*
X153312857Y-73917380D01*
X153408095Y-73965000D01*
X153455714Y-74012619D01*
X153503333Y-74107857D01*
X153503333Y-74250714D01*
X153455714Y-74345952D01*
X153408095Y-74393571D01*
X153312857Y-74441190D01*
X152931904Y-74441190D01*
X153836666Y-73917380D02*
X154455714Y-73917380D01*
X154122380Y-74298333D01*
X154265238Y-74298333D01*
X154360476Y-74345952D01*
X154408095Y-74393571D01*
X154455714Y-74488809D01*
X154455714Y-74726904D01*
X154408095Y-74822142D01*
X154360476Y-74869761D01*
X154265238Y-74917380D01*
X153979523Y-74917380D01*
X153884285Y-74869761D01*
X153836666Y-74822142D01*
X106497380Y-81446666D02*
X106021190Y-81780000D01*
X106497380Y-82018095D02*
X105497380Y-82018095D01*
X105497380Y-81637142D01*
X105545000Y-81541904D01*
X105592619Y-81494285D01*
X105687857Y-81446666D01*
X105830714Y-81446666D01*
X105925952Y-81494285D01*
X105973571Y-81541904D01*
X106021190Y-81637142D01*
X106021190Y-82018095D01*
X105830714Y-80589523D02*
X106497380Y-80589523D01*
X105449761Y-80827619D02*
X106164047Y-81065714D01*
X106164047Y-80446666D01*
X180427380Y-127333333D02*
X181141666Y-127333333D01*
X181284523Y-127380952D01*
X181379761Y-127476190D01*
X181427380Y-127619047D01*
X181427380Y-127714285D01*
X181427380Y-126333333D02*
X181427380Y-126904761D01*
X181427380Y-126619047D02*
X180427380Y-126619047D01*
X180570238Y-126714285D01*
X180665476Y-126809523D01*
X180713095Y-126904761D01*
X119253095Y-69512380D02*
X119253095Y-70321904D01*
X119300714Y-70417142D01*
X119348333Y-70464761D01*
X119443571Y-70512380D01*
X119634047Y-70512380D01*
X119729285Y-70464761D01*
X119776904Y-70417142D01*
X119824523Y-70321904D01*
X119824523Y-69512380D01*
X120824523Y-70512380D02*
X120253095Y-70512380D01*
X120538809Y-70512380D02*
X120538809Y-69512380D01*
X120443571Y-69655238D01*
X120348333Y-69750476D01*
X120253095Y-69798095D01*
X153967380Y-70611904D02*
X154776904Y-70611904D01*
X154872142Y-70564285D01*
X154919761Y-70516666D01*
X154967380Y-70421428D01*
X154967380Y-70230952D01*
X154919761Y-70135714D01*
X154872142Y-70088095D01*
X154776904Y-70040476D01*
X153967380Y-70040476D01*
X154062619Y-69611904D02*
X154015000Y-69564285D01*
X153967380Y-69469047D01*
X153967380Y-69230952D01*
X154015000Y-69135714D01*
X154062619Y-69088095D01*
X154157857Y-69040476D01*
X154253095Y-69040476D01*
X154395952Y-69088095D01*
X154967380Y-69659523D01*
X154967380Y-69040476D01*
X137033095Y-76497380D02*
X137033095Y-77306904D01*
X137080714Y-77402142D01*
X137128333Y-77449761D01*
X137223571Y-77497380D01*
X137414047Y-77497380D01*
X137509285Y-77449761D01*
X137556904Y-77402142D01*
X137604523Y-77306904D01*
X137604523Y-76497380D01*
X137985476Y-76497380D02*
X138604523Y-76497380D01*
X138271190Y-76878333D01*
X138414047Y-76878333D01*
X138509285Y-76925952D01*
X138556904Y-76973571D01*
X138604523Y-77068809D01*
X138604523Y-77306904D01*
X138556904Y-77402142D01*
X138509285Y-77449761D01*
X138414047Y-77497380D01*
X138128333Y-77497380D01*
X138033095Y-77449761D01*
X137985476Y-77402142D01*
X137033095Y-99357380D02*
X137033095Y-100166904D01*
X137080714Y-100262142D01*
X137128333Y-100309761D01*
X137223571Y-100357380D01*
X137414047Y-100357380D01*
X137509285Y-100309761D01*
X137556904Y-100262142D01*
X137604523Y-100166904D01*
X137604523Y-99357380D01*
X138509285Y-99690714D02*
X138509285Y-100357380D01*
X138271190Y-99309761D02*
X138033095Y-100024047D01*
X138652142Y-100024047D01*
X158623095Y-77557380D02*
X158623095Y-78366904D01*
X158670714Y-78462142D01*
X158718333Y-78509761D01*
X158813571Y-78557380D01*
X159004047Y-78557380D01*
X159099285Y-78509761D01*
X159146904Y-78462142D01*
X159194523Y-78366904D01*
X159194523Y-77557380D01*
X160146904Y-77557380D02*
X159670714Y-77557380D01*
X159623095Y-78033571D01*
X159670714Y-77985952D01*
X159765952Y-77938333D01*
X160004047Y-77938333D01*
X160099285Y-77985952D01*
X160146904Y-78033571D01*
X160194523Y-78128809D01*
X160194523Y-78366904D01*
X160146904Y-78462142D01*
X160099285Y-78509761D01*
X160004047Y-78557380D01*
X159765952Y-78557380D01*
X159670714Y-78509761D01*
X159623095Y-78462142D01*
X170688095Y-77767380D02*
X170688095Y-78576904D01*
X170735714Y-78672142D01*
X170783333Y-78719761D01*
X170878571Y-78767380D01*
X171069047Y-78767380D01*
X171164285Y-78719761D01*
X171211904Y-78672142D01*
X171259523Y-78576904D01*
X171259523Y-77767380D01*
X172164285Y-77767380D02*
X171973809Y-77767380D01*
X171878571Y-77815000D01*
X171830952Y-77862619D01*
X171735714Y-78005476D01*
X171688095Y-78195952D01*
X171688095Y-78576904D01*
X171735714Y-78672142D01*
X171783333Y-78719761D01*
X171878571Y-78767380D01*
X172069047Y-78767380D01*
X172164285Y-78719761D01*
X172211904Y-78672142D01*
X172259523Y-78576904D01*
X172259523Y-78338809D01*
X172211904Y-78243571D01*
X172164285Y-78195952D01*
X172069047Y-78148333D01*
X171878571Y-78148333D01*
X171783333Y-78195952D01*
X171735714Y-78243571D01*
X171688095Y-78338809D01*
X197358095Y-108247380D02*
X197358095Y-109056904D01*
X197405714Y-109152142D01*
X197453333Y-109199761D01*
X197548571Y-109247380D01*
X197739047Y-109247380D01*
X197834285Y-109199761D01*
X197881904Y-109152142D01*
X197929523Y-109056904D01*
X197929523Y-108247380D01*
X198310476Y-108247380D02*
X198977142Y-108247380D01*
X198548571Y-109247380D01*
X196723095Y-72687380D02*
X196723095Y-73496904D01*
X196770714Y-73592142D01*
X196818333Y-73639761D01*
X196913571Y-73687380D01*
X197104047Y-73687380D01*
X197199285Y-73639761D01*
X197246904Y-73592142D01*
X197294523Y-73496904D01*
X197294523Y-72687380D01*
X197913571Y-73115952D02*
X197818333Y-73068333D01*
X197770714Y-73020714D01*
X197723095Y-72925476D01*
X197723095Y-72877857D01*
X197770714Y-72782619D01*
X197818333Y-72735000D01*
X197913571Y-72687380D01*
X198104047Y-72687380D01*
X198199285Y-72735000D01*
X198246904Y-72782619D01*
X198294523Y-72877857D01*
X198294523Y-72925476D01*
X198246904Y-73020714D01*
X198199285Y-73068333D01*
X198104047Y-73115952D01*
X197913571Y-73115952D01*
X197818333Y-73163571D01*
X197770714Y-73211190D01*
X197723095Y-73306428D01*
X197723095Y-73496904D01*
X197770714Y-73592142D01*
X197818333Y-73639761D01*
X197913571Y-73687380D01*
X198104047Y-73687380D01*
X198199285Y-73639761D01*
X198246904Y-73592142D01*
X198294523Y-73496904D01*
X198294523Y-73306428D01*
X198246904Y-73211190D01*
X198199285Y-73163571D01*
X198104047Y-73115952D01*
X129516190Y-69056190D02*
X129992380Y-69056190D01*
X128992380Y-69389523D02*
X129516190Y-69056190D01*
X128992380Y-68722857D01*
X129992380Y-67865714D02*
X129992380Y-68437142D01*
X129992380Y-68151428D02*
X128992380Y-68151428D01*
X129135238Y-68246666D01*
X129230476Y-68341904D01*
X129278095Y-68437142D01*
X195937142Y-107957857D02*
X195984761Y-108005476D01*
X196032380Y-108148333D01*
X196032380Y-108243571D01*
X195984761Y-108386428D01*
X195889523Y-108481666D01*
X195794285Y-108529285D01*
X195603809Y-108576904D01*
X195460952Y-108576904D01*
X195270476Y-108529285D01*
X195175238Y-108481666D01*
X195080000Y-108386428D01*
X195032380Y-108243571D01*
X195032380Y-108148333D01*
X195080000Y-108005476D01*
X195127619Y-107957857D01*
X196032380Y-107005476D02*
X196032380Y-107576904D01*
X196032380Y-107291190D02*
X195032380Y-107291190D01*
X195175238Y-107386428D01*
X195270476Y-107481666D01*
X195318095Y-107576904D01*
X196032380Y-106053095D02*
X196032380Y-106624523D01*
X196032380Y-106338809D02*
X195032380Y-106338809D01*
X195175238Y-106434047D01*
X195270476Y-106529285D01*
X195318095Y-106624523D01*
X179427142Y-77477857D02*
X179474761Y-77525476D01*
X179522380Y-77668333D01*
X179522380Y-77763571D01*
X179474761Y-77906428D01*
X179379523Y-78001666D01*
X179284285Y-78049285D01*
X179093809Y-78096904D01*
X178950952Y-78096904D01*
X178760476Y-78049285D01*
X178665238Y-78001666D01*
X178570000Y-77906428D01*
X178522380Y-77763571D01*
X178522380Y-77668333D01*
X178570000Y-77525476D01*
X178617619Y-77477857D01*
X179522380Y-76525476D02*
X179522380Y-77096904D01*
X179522380Y-76811190D02*
X178522380Y-76811190D01*
X178665238Y-76906428D01*
X178760476Y-77001666D01*
X178808095Y-77096904D01*
X178522380Y-75906428D02*
X178522380Y-75811190D01*
X178570000Y-75715952D01*
X178617619Y-75668333D01*
X178712857Y-75620714D01*
X178903333Y-75573095D01*
X179141428Y-75573095D01*
X179331904Y-75620714D01*
X179427142Y-75668333D01*
X179474761Y-75715952D01*
X179522380Y-75811190D01*
X179522380Y-75906428D01*
X179474761Y-76001666D01*
X179427142Y-76049285D01*
X179331904Y-76096904D01*
X179141428Y-76144523D01*
X178903333Y-76144523D01*
X178712857Y-76096904D01*
X178617619Y-76049285D01*
X178570000Y-76001666D01*
X178522380Y-75906428D01*
X188317142Y-107957857D02*
X188364761Y-108005476D01*
X188412380Y-108148333D01*
X188412380Y-108243571D01*
X188364761Y-108386428D01*
X188269523Y-108481666D01*
X188174285Y-108529285D01*
X187983809Y-108576904D01*
X187840952Y-108576904D01*
X187650476Y-108529285D01*
X187555238Y-108481666D01*
X187460000Y-108386428D01*
X187412380Y-108243571D01*
X187412380Y-108148333D01*
X187460000Y-108005476D01*
X187507619Y-107957857D01*
X188412380Y-107005476D02*
X188412380Y-107576904D01*
X188412380Y-107291190D02*
X187412380Y-107291190D01*
X187555238Y-107386428D01*
X187650476Y-107481666D01*
X187698095Y-107576904D01*
X187507619Y-106624523D02*
X187460000Y-106576904D01*
X187412380Y-106481666D01*
X187412380Y-106243571D01*
X187460000Y-106148333D01*
X187507619Y-106100714D01*
X187602857Y-106053095D01*
X187698095Y-106053095D01*
X187840952Y-106100714D01*
X188412380Y-106672142D01*
X188412380Y-106053095D01*
X141327142Y-70016666D02*
X141374761Y-70064285D01*
X141422380Y-70207142D01*
X141422380Y-70302380D01*
X141374761Y-70445238D01*
X141279523Y-70540476D01*
X141184285Y-70588095D01*
X140993809Y-70635714D01*
X140850952Y-70635714D01*
X140660476Y-70588095D01*
X140565238Y-70540476D01*
X140470000Y-70445238D01*
X140422380Y-70302380D01*
X140422380Y-70207142D01*
X140470000Y-70064285D01*
X140517619Y-70016666D01*
X140422380Y-69683333D02*
X140422380Y-69064285D01*
X140803333Y-69397619D01*
X140803333Y-69254761D01*
X140850952Y-69159523D01*
X140898571Y-69111904D01*
X140993809Y-69064285D01*
X141231904Y-69064285D01*
X141327142Y-69111904D01*
X141374761Y-69159523D01*
X141422380Y-69254761D01*
X141422380Y-69540476D01*
X141374761Y-69635714D01*
X141327142Y-69683333D01*
X106392142Y-90316666D02*
X106439761Y-90364285D01*
X106487380Y-90507142D01*
X106487380Y-90602380D01*
X106439761Y-90745238D01*
X106344523Y-90840476D01*
X106249285Y-90888095D01*
X106058809Y-90935714D01*
X105915952Y-90935714D01*
X105725476Y-90888095D01*
X105630238Y-90840476D01*
X105535000Y-90745238D01*
X105487380Y-90602380D01*
X105487380Y-90507142D01*
X105535000Y-90364285D01*
X105582619Y-90316666D01*
X105820714Y-89459523D02*
X106487380Y-89459523D01*
X105439761Y-89697619D02*
X106154047Y-89935714D01*
X106154047Y-89316666D01*
X152233333Y-70842142D02*
X152185714Y-70889761D01*
X152042857Y-70937380D01*
X151947619Y-70937380D01*
X151804761Y-70889761D01*
X151709523Y-70794523D01*
X151661904Y-70699285D01*
X151614285Y-70508809D01*
X151614285Y-70365952D01*
X151661904Y-70175476D01*
X151709523Y-70080238D01*
X151804761Y-69985000D01*
X151947619Y-69937380D01*
X152042857Y-69937380D01*
X152185714Y-69985000D01*
X152233333Y-70032619D01*
X153138095Y-69937380D02*
X152661904Y-69937380D01*
X152614285Y-70413571D01*
X152661904Y-70365952D01*
X152757142Y-70318333D01*
X152995238Y-70318333D01*
X153090476Y-70365952D01*
X153138095Y-70413571D01*
X153185714Y-70508809D01*
X153185714Y-70746904D01*
X153138095Y-70842142D01*
X153090476Y-70889761D01*
X152995238Y-70937380D01*
X152757142Y-70937380D01*
X152661904Y-70889761D01*
X152614285Y-70842142D01*
X119102142Y-127166666D02*
X119149761Y-127214285D01*
X119197380Y-127357142D01*
X119197380Y-127452380D01*
X119149761Y-127595238D01*
X119054523Y-127690476D01*
X118959285Y-127738095D01*
X118768809Y-127785714D01*
X118625952Y-127785714D01*
X118435476Y-127738095D01*
X118340238Y-127690476D01*
X118245000Y-127595238D01*
X118197380Y-127452380D01*
X118197380Y-127357142D01*
X118245000Y-127214285D01*
X118292619Y-127166666D01*
X118197380Y-126309523D02*
X118197380Y-126500000D01*
X118245000Y-126595238D01*
X118292619Y-126642857D01*
X118435476Y-126738095D01*
X118625952Y-126785714D01*
X119006904Y-126785714D01*
X119102142Y-126738095D01*
X119149761Y-126690476D01*
X119197380Y-126595238D01*
X119197380Y-126404761D01*
X119149761Y-126309523D01*
X119102142Y-126261904D01*
X119006904Y-126214285D01*
X118768809Y-126214285D01*
X118673571Y-126261904D01*
X118625952Y-126309523D01*
X118578333Y-126404761D01*
X118578333Y-126595238D01*
X118625952Y-126690476D01*
X118673571Y-126738095D01*
X118768809Y-126785714D01*
X146407142Y-75731666D02*
X146454761Y-75779285D01*
X146502380Y-75922142D01*
X146502380Y-76017380D01*
X146454761Y-76160238D01*
X146359523Y-76255476D01*
X146264285Y-76303095D01*
X146073809Y-76350714D01*
X145930952Y-76350714D01*
X145740476Y-76303095D01*
X145645238Y-76255476D01*
X145550000Y-76160238D01*
X145502380Y-76017380D01*
X145502380Y-75922142D01*
X145550000Y-75779285D01*
X145597619Y-75731666D01*
X145502380Y-75398333D02*
X145502380Y-74731666D01*
X146502380Y-75160238D01*
X146407142Y-98591666D02*
X146454761Y-98639285D01*
X146502380Y-98782142D01*
X146502380Y-98877380D01*
X146454761Y-99020238D01*
X146359523Y-99115476D01*
X146264285Y-99163095D01*
X146073809Y-99210714D01*
X145930952Y-99210714D01*
X145740476Y-99163095D01*
X145645238Y-99115476D01*
X145550000Y-99020238D01*
X145502380Y-98877380D01*
X145502380Y-98782142D01*
X145550000Y-98639285D01*
X145597619Y-98591666D01*
X145930952Y-98020238D02*
X145883333Y-98115476D01*
X145835714Y-98163095D01*
X145740476Y-98210714D01*
X145692857Y-98210714D01*
X145597619Y-98163095D01*
X145550000Y-98115476D01*
X145502380Y-98020238D01*
X145502380Y-97829761D01*
X145550000Y-97734523D01*
X145597619Y-97686904D01*
X145692857Y-97639285D01*
X145740476Y-97639285D01*
X145835714Y-97686904D01*
X145883333Y-97734523D01*
X145930952Y-97829761D01*
X145930952Y-98020238D01*
X145978571Y-98115476D01*
X146026190Y-98163095D01*
X146121428Y-98210714D01*
X146311904Y-98210714D01*
X146407142Y-98163095D01*
X146454761Y-98115476D01*
X146502380Y-98020238D01*
X146502380Y-97829761D01*
X146454761Y-97734523D01*
X146407142Y-97686904D01*
X146311904Y-97639285D01*
X146121428Y-97639285D01*
X146026190Y-97686904D01*
X145978571Y-97734523D01*
X145930952Y-97829761D01*
X166092142Y-77001666D02*
X166139761Y-77049285D01*
X166187380Y-77192142D01*
X166187380Y-77287380D01*
X166139761Y-77430238D01*
X166044523Y-77525476D01*
X165949285Y-77573095D01*
X165758809Y-77620714D01*
X165615952Y-77620714D01*
X165425476Y-77573095D01*
X165330238Y-77525476D01*
X165235000Y-77430238D01*
X165187380Y-77287380D01*
X165187380Y-77192142D01*
X165235000Y-77049285D01*
X165282619Y-77001666D01*
X166187380Y-76525476D02*
X166187380Y-76335000D01*
X166139761Y-76239761D01*
X166092142Y-76192142D01*
X165949285Y-76096904D01*
X165758809Y-76049285D01*
X165377857Y-76049285D01*
X165282619Y-76096904D01*
X165235000Y-76144523D01*
X165187380Y-76239761D01*
X165187380Y-76430238D01*
X165235000Y-76525476D01*
X165282619Y-76573095D01*
X165377857Y-76620714D01*
X165615952Y-76620714D01*
X165711190Y-76573095D01*
X165758809Y-76525476D01*
X165806428Y-76430238D01*
X165806428Y-76239761D01*
X165758809Y-76144523D01*
X165711190Y-76096904D01*
X165615952Y-76049285D01*
M02*
