M48
; DRILL file {KiCad (5.1.2-1)-1} date Saturday, November 16, 2019 at 12:57:12 PM
; FORMAT={-:-/ absolute / metric / decimal}
; #@! TF.CreationDate,2019-11-16T12:57:12-08:00
; #@! TF.GenerationSoftware,Kicad,Pcbnew,(5.1.2-1)-1
FMAT,2
METRIC
T1C0.400
T2C0.700
T3C0.800
T4C1.000
T5C3.200
%
G90
G05
T1
X123.288Y-127.552
X123.365Y-77.491
X129.505Y-111.235
X130.997Y-91.81
X134.477Y-85.952
X138.898Y-107.825
X140.038Y-106.718
X142.717Y-79.153
X145.176Y-118.921
X146.854Y-84.496
X146.974Y-95.581
X147.084Y-105.868
X148.617Y-124.249
X148.706Y-123.058
X150.631Y-120.016
X151.95Y-102.122
X154.122Y-97.067
X154.122Y-113.665
X154.945Y-98.425
X156.97Y-124.273
X158.312Y-100.341
X158.543Y-84.449
X162.081Y-96.561
X168.464Y-110.207
X168.815Y-107.009
X171.464Y-112.861
X173.187Y-83.457
X174.708Y-120.764
X176.255Y-117.817
X176.375Y-115.303
X187.903Y-106.834
X195.128Y-99.127
X196.294Y-103.429
T2
X131.445Y-66.04
X131.445Y-71.12
T3
X152.4Y-66.04
X152.4Y-68.54
X108.585Y-88.9
X108.585Y-91.4
X170.18Y-80.645
X170.18Y-83.185
X170.18Y-85.725
X170.18Y-88.265
X170.18Y-90.805
X170.18Y-93.345
X170.18Y-95.885
X170.18Y-98.425
X170.18Y-100.965
X170.18Y-103.505
X170.18Y-106.045
X170.18Y-108.585
X170.18Y-111.125
X170.18Y-113.665
X177.8Y-80.645
X177.8Y-83.185
X177.8Y-85.725
X177.8Y-88.265
X177.8Y-90.805
X177.8Y-93.345
X177.8Y-95.885
X177.8Y-98.425
X177.8Y-100.965
X177.8Y-103.505
X177.8Y-106.045
X177.8Y-108.585
X177.8Y-111.125
X177.8Y-113.665
X136.525Y-79.375
X136.525Y-81.915
X136.525Y-84.455
X136.525Y-86.995
X136.525Y-89.535
X136.525Y-92.075
X136.525Y-94.615
X144.145Y-79.375
X144.145Y-81.915
X144.145Y-84.455
X144.145Y-86.995
X144.145Y-89.535
X144.145Y-92.075
X144.145Y-94.615
X149.86Y-76.835
X157.48Y-76.835
X183.515Y-75.565
X183.515Y-78.105
X183.515Y-80.645
X183.515Y-83.185
X183.515Y-85.725
X183.515Y-88.265
X183.515Y-90.805
X183.515Y-93.345
X183.515Y-95.885
X183.515Y-98.425
X183.515Y-100.965
X183.515Y-103.505
X198.755Y-75.565
X198.755Y-78.105
X198.755Y-80.645
X198.755Y-83.185
X198.755Y-85.725
X198.755Y-88.265
X198.755Y-90.805
X198.755Y-93.345
X198.755Y-95.885
X198.755Y-98.425
X198.755Y-100.965
X198.755Y-103.505
X131.445Y-73.66
X139.065Y-73.66
X112.395Y-72.39
X112.395Y-74.93
X112.395Y-77.47
X112.395Y-80.01
X112.395Y-82.55
X112.395Y-85.09
X112.395Y-87.63
X112.395Y-90.17
X112.395Y-92.71
X112.395Y-95.25
X112.395Y-97.79
X112.395Y-100.33
X112.395Y-102.87
X112.395Y-105.41
X112.395Y-107.95
X112.395Y-110.49
X112.395Y-113.03
X112.395Y-115.57
X112.395Y-118.11
X112.395Y-120.65
X127.635Y-72.39
X127.635Y-74.93
X127.635Y-77.47
X127.635Y-80.01
X127.635Y-82.55
X127.635Y-85.09
X127.635Y-87.63
X127.635Y-90.17
X127.635Y-92.71
X127.635Y-95.25
X127.635Y-97.79
X127.635Y-100.33
X127.635Y-102.87
X127.635Y-105.41
X127.635Y-107.95
X127.635Y-110.49
X127.635Y-113.03
X127.635Y-115.57
X127.635Y-118.11
X127.635Y-120.65
X148.59Y-80.645
X148.59Y-83.185
X148.59Y-85.725
X148.59Y-88.265
X148.59Y-90.805
X148.59Y-93.345
X148.59Y-95.885
X148.59Y-98.425
X148.59Y-100.965
X148.59Y-103.505
X148.59Y-106.045
X148.59Y-108.585
X148.59Y-111.125
X148.59Y-113.665
X163.83Y-80.645
X163.83Y-83.185
X163.83Y-85.725
X163.83Y-88.265
X163.83Y-90.805
X163.83Y-93.345
X163.83Y-95.885
X163.83Y-98.425
X163.83Y-100.965
X163.83Y-103.505
X163.83Y-106.045
X163.83Y-108.585
X163.83Y-111.125
X163.83Y-113.665
X108.585Y-95.25
X108.585Y-102.87
X156.845Y-66.04
X156.845Y-73.66
X159.385Y-66.04
X159.385Y-73.66
X161.925Y-66.04
X161.925Y-73.66
X164.465Y-66.04
X164.465Y-73.66
X167.005Y-66.04
X167.005Y-73.66
X169.545Y-66.04
X169.545Y-73.66
X172.085Y-66.04
X172.085Y-73.66
X191.135Y-111.125
X191.135Y-113.665
X191.135Y-116.205
X191.135Y-118.745
X198.755Y-111.125
X198.755Y-113.665
X198.755Y-116.205
X198.755Y-118.745
X161.33Y-76.835
X163.83Y-76.835
X108.585Y-77.47
X108.585Y-85.09
X136.565Y-69.85
X139.065Y-69.85
X141.645Y-98.425
X144.145Y-98.425
X136.565Y-66.675
X139.065Y-66.675
X136.525Y-102.235
X136.525Y-104.775
X136.525Y-107.315
X136.525Y-109.855
X136.525Y-112.395
X136.525Y-114.935
X136.525Y-117.475
X136.525Y-120.015
X144.145Y-102.235
X144.145Y-104.775
X144.145Y-107.315
X144.145Y-109.855
X144.145Y-112.395
X144.145Y-114.935
X144.145Y-117.475
X144.145Y-120.015
X123.23Y-67.31
X125.73Y-67.31
X183.515Y-107.315
X186.015Y-107.315
X141.645Y-75.565
X144.145Y-75.565
X131.445Y-77.47
X131.445Y-85.09
X121.92Y-125.73
X121.92Y-128.23
X174.665Y-76.835
X177.165Y-76.835
X191.135Y-107.315
X193.635Y-107.315
T4
X146.685Y-66.04
X146.685Y-68.58
X129.54Y-125.73
X129.54Y-128.27
X132.08Y-125.73
X132.08Y-128.27
X134.62Y-125.73
X134.62Y-128.27
X137.16Y-125.73
X137.16Y-128.27
X139.7Y-125.73
X139.7Y-128.27
X142.24Y-125.73
X142.24Y-128.27
X144.78Y-125.73
X144.78Y-128.27
X147.32Y-125.73
X147.32Y-128.27
X149.86Y-125.73
X149.86Y-128.27
X152.4Y-125.73
X152.4Y-128.27
X154.94Y-125.73
X154.94Y-128.27
X157.48Y-125.73
X157.48Y-128.27
X160.02Y-125.73
X160.02Y-128.27
X162.56Y-125.73
X162.56Y-128.27
X165.1Y-125.73
X165.1Y-128.27
X167.64Y-125.73
X167.64Y-128.27
X170.18Y-125.73
X170.18Y-128.27
X172.72Y-125.73
X172.72Y-128.27
X175.26Y-125.73
X175.26Y-128.27
X177.8Y-125.73
X177.8Y-128.27
X179.07Y-69.215
X181.61Y-69.215
X184.15Y-69.215
X186.69Y-69.215
X189.23Y-69.215
X191.77Y-69.215
T5
X109.775Y-67.23
X109.775Y-132.795
X198.105Y-132.795
X198.105Y-67.23
T0
M30
